<svg width="254" height="393" viewBox="0 0 254 393" fill="none" xmlns="http://www.w3.org/2000/svg">
<g filter="url(#filter0_d_101_198)">
<path fill-rule="evenodd" clip-rule="evenodd" d="M102.648 140.02C109.076 133.978 125.213 131.261 132.073 137.079C138.849 142.92 139.588 152.367 142.745 161.058C145.724 159.324 150.644 161.807 151.508 165.22C152.579 166.829 152.627 171.351 153.366 173.514C185.509 179.83 190.389 210.763 194.258 245.881C199.376 281.517 210.995 317.074 205.951 353.744C206.608 354.918 207.127 356.059 207.606 357.414C208.754 359.825 207.275 363.239 204.959 363.107C201.962 362.782 198.994 362.338 195.983 362.2C187.635 361.842 179.279 361.884 170.928 362.015L169.789 362.034C127.701 362.68 85.6158 363.955 43.5261 364.293C41.9992 364.295 41.2516 362.605 41.4555 360.938C41.8662 357.58 42.2471 354.221 42.6447 350.863C32.6894 354.108 22.1061 354.925 12.179 351.204C11.4845 350.331 13.797 350.804 14.1639 350.671C5.02783 342.965 7.75621 326.731 8.56551 315.039C13.5978 274.973 15.3719 230.643 34.815 196.454C43.2264 182.502 55.5583 171.456 69.7285 168.97L70.1217 168.904C74.265 168.222 78.8828 168.002 82.5054 165.22C86.5798 161.205 88.3161 153.786 92.6025 153.717C94.0179 153.694 95.9434 155.904 98.0153 157.405C98.17 154.103 99.6113 151.317 99.9295 148.758L99.9553 148.539C100.287 145.555 99.8325 142.87 102.648 140.02ZM171.727 246.939C162.694 239.193 139.359 243.085 138.825 243.519C137.649 244.474 137.142 244.558 136.506 245.798C135.878 245.901 135.251 246.008 134.623 246.118C133.366 246.625 134.298 248.535 135.751 247.854C134.877 252.506 137.449 255.815 138.473 260.414C138.805 261.907 138.485 264.593 138.473 266.119C138.572 268.065 140.314 270.363 140.024 272.315C138.992 279.254 133.388 286.023 135.751 292.753C137.316 296.553 142.023 298.491 145.152 299.784C151.635 302.855 162.932 299.668 166.699 292.753C168.709 289.064 171.036 279.76 172.235 276.873L172.5 272.295C173.155 260.915 173.737 248.664 171.727 246.939Z" fill="white"/>
<path fill-rule="evenodd" clip-rule="evenodd" d="M91.0287 153.046C91.6523 152.364 92.5751 153.22 92.1788 154.141C91.2883 156.211 90.3748 158.172 89.1796 160.001C88.455 161.111 87.6787 162.16 86.8921 163.197C88.9109 165.353 90.6423 168.03 92.2772 170.538C94.3679 173.746 96.3446 177.09 98.6915 180.026C101.006 182.921 103.565 184.945 106.66 186.294L107.285 186.562C110.393 187.909 113.716 189.728 115.468 193.361C115.813 194.078 115.118 194.963 114.533 194.516C111.488 192.189 107.911 191.721 104.596 190.183C101.395 188.698 98.604 186.412 96.1381 183.494C93.6763 180.582 91.6093 177.268 89.4533 174.024C87.3212 170.817 85.0256 168.077 82.5037 165.363C78.612 168.595 74.1698 170.001 69.6528 171.382L69.1597 171.533C64.6372 172.915 60.139 174.52 55.8962 176.927C52.1554 179.049 48.4761 181.583 45.429 185.035C42.1944 188.7 39.6769 193.379 37.3727 197.956C32.2185 208.195 28.5949 219.413 25.4049 230.767C22.087 242.577 19.3117 254.623 17.0713 266.812C15.9318 273.012 15.0064 279.257 14.2458 285.545C13.8797 288.573 13.5545 291.608 13.2688 294.65C12.9639 297.897 12.8939 301.239 12.0867 304.362C11.7406 305.7 10.9235 306.256 10.1056 306.208L9.93947 308.773C9.71919 312.192 9.51383 315.613 9.44446 319.053C9.32939 324.774 9.38157 330.478 9.71493 336.187L9.76214 336.965C10.0241 341.131 10.6095 345.813 13.1475 348.863C15.7759 352.023 19.8179 353.016 23.3606 353.073C31.6116 353.206 39.554 348.394 46.8554 344.172C54.375 339.824 61.6891 334.998 68.828 329.764C72.4636 327.098 76.0598 324.344 79.6103 321.509C81.3525 320.118 83.0826 318.703 84.7996 317.265C85.7831 316.442 86.715 315.539 87.7162 314.808C87.2257 314.244 87.0067 313.358 87.4176 312.584C84.5233 309.483 83.3187 303.949 83.1779 299.471C83.0641 295.857 83.495 292.253 83.8351 288.672C84.0067 286.867 84.2187 285.065 84.4387 283.267C84.5257 282.557 84.5921 281.798 84.6936 281.048C76.8785 286.349 68.8444 291.07 60.5975 295.265C56.3703 297.415 52.089 299.348 47.7485 301.119L46.8688 301.476C42.7562 303.138 38.5452 304.708 34.2936 305.658C34.0663 305.709 33.8817 305.294 34.1243 305.162C38.2677 302.906 42.5545 301.002 46.7601 298.924L47.4512 298.576V298.576C47.3717 298.571 47.2895 298.557 47.2035 298.532C44.7371 297.797 42.29 296.665 39.8709 295.712C37.6258 294.827 35.1034 294.271 33.0049 292.935C32.8435 292.832 32.9338 292.555 33.0911 292.542C35.4497 292.34 38.0102 293.189 40.3227 293.688L41.1914 293.876C42.6468 294.192 44.1344 294.533 45.5826 294.977C45.6349 294.378 45.906 293.777 46.2916 293.424C50.5352 289.545 50.1043 281.71 50.5582 275.932L50.8947 271.643C51.4867 264.136 52.1129 256.63 53.0644 249.18C53.1152 248.782 53.6138 248.896 53.6159 249.272C53.665 258.507 53.1002 267.701 52.8171 276.922L52.7732 278.435C52.6167 284.125 52.494 290.034 49.5908 294.412C49.9968 294.119 50.5457 294.119 50.8745 294.602C51.2787 295.196 51.512 295.862 51.5047 296.516C54.1281 295.159 56.7401 293.766 59.3393 292.344C67.6961 287.774 75.8776 282.66 83.8427 277.127C84.6999 276.531 85.5146 276.999 85.9385 277.784L85.9997 277.773C86.01 277.772 86.0203 277.77 86.031 277.77L86.0917 277.767C86.094 277.767 86.0963 277.767 86.0984 277.767C87.2197 277.007 88.7471 277.548 89.7093 278.657C89.7377 278.691 89.7619 278.727 89.7871 278.762C91.0052 278.087 92.1426 277.176 93.1748 276.021C95.2871 273.658 97.0763 270.736 98.636 267.806C101.508 262.409 103.948 256.408 107.828 251.966C110.981 248.356 114.889 246.109 118.99 244.699C118.973 244.551 119.018 244.393 119.101 244.288C119.312 244.022 119.462 243.93 119.734 244.091C119.756 244.105 119.769 244.123 119.778 244.142L120.178 243.298C120.396 242.84 120.62 242.379 120.698 242.258C121.164 241.534 121.643 240.816 122.129 240.113C122.954 238.923 123.894 237.749 124.982 236.923C127.364 235.116 129.869 236.139 132.319 237.126C133.799 237.723 135.274 238.339 136.751 238.945L136.904 239.007C138.005 239.444 139.295 239.826 139.787 241.266C139.982 241.837 140.012 242.428 139.922 243.002C150.385 239.718 162.007 241.227 172.218 245.083C172.609 245.231 173.001 245.629 173.083 246.151C174.253 253.557 174.774 261.152 174.245 268.684C173.788 275.186 172.621 281.557 170.422 287.51L170.297 287.846C168.23 293.362 164.954 300.162 159.951 301.891C156.931 302.935 153.589 302.32 150.509 302.129C147.514 301.943 144.454 301.916 141.488 301.334C138.846 300.817 136.532 299.355 134.9 296.704C133.491 294.417 132.75 291.653 132.142 288.903C131.864 289.012 131.588 289.128 131.316 289.26C130.169 289.813 129.196 290.706 128.317 291.757C126.461 293.976 125.021 296.671 123.079 298.788C121.321 300.705 119.317 302.196 117.168 303.342C112.715 305.717 107.938 306.667 103.228 307.925L102.899 308.014C99.3531 308.974 95.7337 310.153 92.6038 312.432C92.5426 313.103 92.295 313.734 91.8981 314.148C92.4502 314.788 92.684 315.801 92.1989 316.752C90.8438 319.406 88.5098 320.917 86.4144 322.614L86.2781 322.725C84.2168 324.412 82.1376 326.065 80.0415 327.685C75.7802 330.978 71.4298 334.09 67.018 337.065C59.9221 341.85 52.6738 346.364 45.2943 350.458C45.7373 353.148 45.5754 355.922 45.9083 358.63L45.9594 359.016C46.1016 360.021 45.9095 360.862 45.3487 361.518L45.2894 361.585L45.2904 361.576L45.2378 361.636L45.2203 361.654L45.2261 361.648C45.1615 361.721 45.0948 361.789 45.0268 361.848L44.9402 361.916V361.916C44.4001 362.322 43.7047 362.317 43.1517 361.959L43.0886 361.916L42.9823 361.841C42.2517 361.322 41.7478 360.037 42.0509 359.016C42.7959 356.506 43.0774 353.828 43.7653 351.301L43.2195 351.603V351.603L42.5002 351.99C34.7202 356.142 26.0783 359.639 17.6015 356.808C13.856 355.557 10.3553 352.91 8.48128 348.597C6.63719 344.352 6.37653 339.423 6.27863 334.702C6.15781 328.874 6.41091 322.957 7.0335 317.18C7.45143 313.301 7.95685 309.35 8.73646 305.512C8.33546 305.075 8.04069 304.448 7.96284 303.672C7.5949 300.007 8.23885 296.196 8.63308 292.549C9.0182 288.988 9.44368 285.434 9.92489 281.892C10.8964 274.737 12.0252 267.598 13.3394 260.527C15.6782 247.943 18.7667 235.583 22.4851 223.518L22.8107 222.467C26.2467 211.439 30.2251 200.647 35.7648 190.959C38.4148 186.324 41.2161 182.122 44.9605 178.782C48.4685 175.653 52.4254 173.4 56.5089 171.677C60.5968 169.954 64.7984 168.799 69.0743 168.081C73.4169 167.351 78.0005 166.904 82.0514 164.705C81.539 163.571 81.9788 162.04 82.8412 161.337C85.7435 158.97 88.4274 155.891 91.0287 153.046ZM183.938 255.972C184.059 255.744 184.348 255.888 184.295 256.157C182.883 263.296 181.558 270.449 180.693 277.724C179.131 290.854 179.418 304.155 179.546 317.382L179.552 318.066C179.618 325.191 179.709 332.316 179.9 339.438C179.996 343.037 180.187 346.672 180.083 350.273C180.027 352.227 179.605 354.074 179.455 356.005C179.324 357.692 179.441 359.406 179.506 361.096C179.55 362.22 178.207 362.172 178.115 361.096L177.998 359.705C177.846 357.944 177.659 356.194 177.191 354.508C176.629 352.481 176.359 350.49 176.164 348.361C175.866 345.1 175.733 341.806 175.617 338.521L175.539 336.249C175.057 322.523 175.074 308.733 175.853 295.021L175.91 294.042C176.682 281.081 178.021 267.077 183.938 255.972ZM153.848 174.283C153.48 174.096 153.609 173.408 154.017 173.528L154.76 173.747C160.2 175.355 165.542 177.098 170.621 180.091C175.702 183.086 180.004 187.558 183.423 193.056C190.068 203.744 192.829 216.732 195.009 229.709C197.432 244.128 199.638 258.6 202.082 273.015L202.535 275.7C204.797 289.126 206.932 302.559 208.505 316.144L208.618 317.129C210.204 331.098 211.158 345.551 209.427 359.557C209.085 362.328 205.349 361.638 205.495 358.901C205.917 350.986 206.219 343.113 205.927 335.181C205.635 327.248 205.032 319.349 204.134 311.484C203.377 304.866 202.25 298.331 201.253 291.765L201.096 290.728C200.261 285.144 199.4 279.565 198.54 273.986L197.256 265.633C195.332 253.125 193.37 240.607 191.152 228.178L191.021 227.447C188.851 215.489 185.652 202.964 179.144 193.468C172.539 183.831 163.084 178.978 153.848 174.283ZM129.849 301.116C130.008 300.679 130.563 300.727 130.734 301.116C131.403 302.64 131.478 304.586 131.604 306.307L131.618 306.484C131.779 308.584 131.921 310.691 132.008 312.797C132.174 316.795 132.253 320.788 132.243 324.792C132.232 328.894 132.165 332.992 131.986 337.089L131.937 338.186C131.774 341.746 131.5 345.717 130.129 348.829C129.631 349.961 128.276 349.628 127.988 348.484C127.043 344.737 127.528 340.295 127.77 336.458L127.959 333.464C128.145 330.47 128.323 327.474 128.464 324.476C128.657 320.375 128.816 316.269 128.97 312.166C129.02 310.833 129.073 309.5 129.13 308.167L129.218 306.168C129.293 304.496 129.286 302.661 129.849 301.116ZM23.5707 306.425L23.9891 305.926C25.2736 304.375 26.8969 301.985 28.7958 302.133C29.553 302.192 30.0355 302.968 29.8785 303.888C29.5431 305.854 27.9185 306.874 26.7491 308.074C25.468 309.388 24.2605 310.793 23.0554 312.212C21.9863 313.469 20.9582 314.763 19.9547 316.097L19.5795 316.599C19.2198 317.083 16.6583 319.943 16.9352 320.685L16.9503 320.719C17.0274 320.861 16.899 321.056 16.7712 321.006C15.665 320.575 15.734 319.405 16.1522 318.219C16.9558 315.941 18.3629 313.833 19.5917 311.887C20.8172 309.947 22.1436 308.139 23.5707 306.425V306.425ZM133.857 249.292C133.002 246.796 129.851 246.849 128.062 246.998C123.557 247.374 118.683 248.78 114.675 251.379C110.519 254.074 107.72 258.391 105.216 263.165L105.098 263.389C102.657 268.073 100.306 273.618 96.4836 276.839C94.5367 278.48 92.2632 279.978 89.9009 280.627C89.7387 280.979 89.476 281.257 89.1315 281.359L88.9713 281.404C88.2985 281.587 87.2533 281.79 86.3505 281.669C86.3565 282.214 86.3518 282.755 86.363 283.272C86.3948 284.752 86.4083 286.238 86.4083 287.719C86.4088 290.823 86.2737 293.932 86.3786 297.035C86.4716 299.78 86.7856 302.647 87.8532 305.101C88.6362 306.901 89.6697 308.092 90.9172 309.229C93.9862 306.92 97.4564 305.513 100.978 304.455C105.238 303.176 109.599 302.322 113.762 300.587C115.765 299.751 117.691 298.658 119.437 297.173C121.289 295.597 122.703 293.464 124.159 291.377L124.387 291.053C125.872 288.95 127.493 286.938 129.592 285.798C131.4 284.816 133.783 284.641 135.364 283.121C136.19 282.326 136.26 281.172 136.347 279.99C135.334 280.169 134.262 279.883 133.253 279.737L132.731 279.661C131.777 279.521 130.844 279.367 129.905 279.068C129.731 279.012 129.731 278.687 129.905 278.632C131.015 278.278 132.115 278.127 133.253 277.963L133.521 277.921C134.55 277.755 135.633 277.503 136.643 277.783C136.824 276.932 137.086 276.119 137.453 275.305C137.968 274.162 138.943 272.866 139.075 271.53C139.114 271.131 139.039 270.661 138.887 270.309L138.834 270.188C138.77 270.046 138.694 269.904 138.583 269.815C138.571 269.833 138.545 269.853 138.489 269.875C137.711 270.177 137.033 269.708 136.673 268.984C135.146 269.218 133.478 269.139 132.046 269.217L130.597 269.304C129.049 269.391 127.431 269.429 125.977 269.043C125.774 268.99 125.712 268.573 125.916 268.465C127.704 267.521 129.873 267.22 131.787 266.857C132.856 266.655 133.933 266.5 135.006 266.322C135.72 266.203 136.477 266.007 137.217 265.959C139.072 263.109 138.073 258.613 135.491 257.386C134.551 257.896 133.705 257.6 132.678 257.491C131.653 257.382 130.625 257.308 129.595 257.314C127.532 257.325 125.346 257.995 123.303 257.707C122.971 257.659 122.662 257.114 122.992 256.781C124.556 255.205 126.797 254.692 128.783 254.356L129.194 254.288C129.86 254.18 130.669 254.023 131.508 253.93C131.698 253.472 132.039 253.127 132.55 253.041C132.702 253.015 132.855 253 133.008 252.984L133.006 252.966V252.966C134.253 252.892 134.199 250.29 133.857 249.292ZM48.4308 297.963C48.4087 298.005 48.3846 298.045 48.3589 298.084L48.3193 298.14L48.5245 298.037L48.4308 297.963V297.963ZM155.631 243.715C150.379 243.019 145.12 243.166 139.852 243.353C139.431 245.054 137.964 246.503 136.543 246.558C137.656 248.649 137.771 251.479 136.991 253.696C138.647 254.51 140.075 255.973 140.942 258.056C142.143 260.943 141.986 264.156 140.798 266.824C141.812 267.957 142.41 269.797 142.35 271.53C142.283 273.464 141.35 275.115 140.574 276.716C139.736 278.447 139.708 279.971 139.45 281.91C139.073 284.747 137.523 286.468 135.528 287.543L135.634 288.058C136.149 290.529 136.788 293.137 138.258 294.944C140.149 297.268 143.083 297.247 145.581 297.394L145.702 297.401C147.989 297.542 150.276 297.708 152.563 297.868L154.278 297.986C156.911 298.165 159.44 298.186 161.589 296.038C165.099 292.53 167.505 286.726 169.027 281.587C172.223 270.802 172.262 258.965 170.795 247.732C165.874 245.775 160.77 244.397 155.631 243.715ZM111.954 261.61L111.992 261.613C113.074 261.765 113.817 262.846 114.081 264.128C114.466 265.992 114.277 267.677 115.202 269.359C116.153 271.089 116.738 272.474 116.876 274.611C116.933 275.491 116.907 276.368 117.065 277.229L117.18 277.832C117.302 278.475 117.402 279.094 117.342 279.784C117.286 280.414 117.038 280.905 116.526 281.106C114.859 281.765 113.571 280.248 113.141 278.33C112.769 276.674 113.265 274.7 112.74 273.144C112.45 272.282 111.913 271.56 111.61 270.692C111.31 269.832 111.159 268.933 111.111 267.997C111.02 266.228 112.287 264.103 111.58 262.5C111.429 262.158 111.6 261.599 111.954 261.61ZM89.8068 243.353C90.9358 243.07 92.2167 242.421 93.3301 242.96C93.9025 243.238 94.1853 244.1 93.7017 244.698C92.8622 245.737 91.642 245.795 90.5112 246.04L90.4117 246.062C89.0746 246.368 87.7351 246.657 86.3938 246.932C83.8704 247.448 81.3409 247.904 78.8027 248.291C76.1956 248.69 73.5813 249.044 70.9633 249.311L69.9498 249.413C67.7384 249.632 65.4373 249.796 63.2675 249.378C62.9521 249.318 63.0029 248.751 63.2675 248.652C65.6446 247.763 68.2521 247.525 70.7097 247.15C73.3225 246.749 75.9308 246.327 78.5324 245.825C81.1298 245.325 83.7238 244.787 86.3082 244.193C87.4763 243.925 88.6426 243.645 89.8068 243.353ZM130.546 240.502C129.555 240.069 128.465 239.427 127.392 239.642C125.54 240.012 123.893 242.239 122.427 243.705L123.163 243.529C126.928 242.635 131.914 241.673 135.075 244.628C135.083 244.611 135.089 244.594 135.098 244.577C135.353 244.099 135.649 243.725 135.971 243.316C136.002 243.28 136.032 243.243 136.061 243.206L136.235 242.977L135.837 242.807C134.985 242.434 133.974 241.954 133.815 241.884L133.804 241.879C132.717 241.425 131.628 240.975 130.546 240.502ZM99.6112 143.087C99.4563 140.627 102.558 140.648 102.711 143.087C103.047 148.413 102.076 153.689 99.9857 158.358C99.9703 158.392 99.9534 158.422 99.9373 158.454C101.244 159.294 102.566 160.099 103.918 160.819C105.647 161.741 107.408 162.579 109.201 163.291C110.822 163.935 112.82 164.189 114.184 165.53C117.059 168.356 115.979 174.22 115.426 178.022L115.339 178.622C115.064 180.578 114.865 182.585 115.533 184.462C116.246 186.468 117.689 187.955 118.976 189.39L119.236 189.681C120.377 190.963 121.679 192.521 122.516 194.26C123.279 192.311 124.32 190.719 125.42 188.926C126.206 187.647 125.647 187.225 125.083 185.976C124.54 184.773 124.275 183.491 124.444 182.119C124.758 179.585 126.398 177.754 128.032 176.379C129.96 174.755 132.113 173.552 134.107 172.042C138.204 168.939 142.194 165.391 145.789 161.451C145.888 161.342 146.06 161.485 145.98 161.633C143.141 166.965 139.811 171.572 135.719 175.482C134.06 177.068 132.317 178.383 130.562 179.766L130.057 180.165C129.353 180.729 128.474 181.482 128.156 182.441C127.835 183.405 128.519 184.134 128.887 184.933C130.055 187.47 129.491 189.838 128.106 191.99L128.042 192.089C126.665 194.183 125.622 196.13 125.123 198.805C124.051 204.551 125.544 210.536 127.107 215.93L127.169 216.143C128.014 219.05 128.913 221.937 129.648 224.891L129.85 225.708C130.515 228.426 131.06 231.107 130.314 233.901C130.06 234.851 129.01 235.076 128.574 234.182C127.035 231.027 126.651 227.231 125.687 223.763C124.747 220.383 123.667 217.064 122.76 213.67C121.59 209.3 120.808 204.597 121.233 200.013C121.22 199.987 121.206 199.961 121.196 199.933L120.898 199.13C120.087 196.954 119.303 195.053 117.827 193.319C116.287 191.51 114.617 189.908 113.405 187.718C110.774 182.96 112.401 177.668 112.719 172.466L112.755 171.828C112.813 170.748 112.845 169.281 112.273 168.533C111.63 167.692 110.123 167.477 109.27 167.104C107.065 166.141 104.893 165.019 102.824 163.672C100.854 162.389 98.9462 160.973 97.1698 159.313L96.2694 158.477C94.8489 157.154 93.3758 155.709 92.4237 153.908C92.3138 153.7 92.5005 153.366 92.6994 153.465C94.2888 154.261 95.7411 155.528 97.2281 156.63C97.2513 156.562 97.2781 156.495 97.3086 156.426C99.1485 152.316 99.9052 147.762 99.6112 143.087ZM150.383 171.249C151.016 169.105 153.903 169.271 153.788 171.817C153.699 173.774 153.026 175.54 152.411 177.317L152.345 177.507C151.71 179.358 150.976 181.096 150.098 182.793C148.42 186.036 146.455 189.046 144.356 191.886C142.453 194.461 139.956 196.036 137.077 195.774C135.865 195.664 134.641 195.283 133.578 194.536C132.316 193.647 130.945 190.98 129.335 191.626C129.179 191.688 129.034 191.407 129.169 191.273C131.028 189.425 133.137 192.29 134.917 192.981C137.599 194.021 140.351 192.871 142.077 190.195C143.879 187.401 145.538 184.272 147.053 181.23C147.822 179.685 148.524 178.082 149.13 176.43C149.742 174.762 149.881 172.949 150.383 171.249ZM146.06 158.057C145.982 157.761 146.28 157.479 146.491 157.648C147.712 158.63 148.771 159.927 149.897 161.064C151.148 162.325 152.407 163.56 153.686 164.777C155.55 166.551 153.388 169.816 151.747 167.879C149.501 165.228 147.042 161.762 146.06 158.057ZM139.354 147.681C139.85 145.319 142.785 146.293 142.358 148.628L142.344 148.699C141.533 152.555 142.687 156.481 145.15 158.98L145.241 159.071C146.799 160.61 144.591 163.301 143.049 161.777C139.681 158.45 138.279 152.797 139.354 147.681Z" fill="#594A4E"/>
</g>
<path fill-rule="evenodd" clip-rule="evenodd" d="M181.714 122.451C180.552 120.761 177.754 108.5 175.966 106.614C176.101 99.371 178.138 74.2934 172.32 63.0204C173.544 61.8039 176.796 51.3255 175.966 47.3643C178.707 39.0686 161.101 25.8929 154.401 22.3325C123.262 5.91558 78.1379 24.0371 63.9763 54.4492C55.4661 72.7644 55.3093 93.2705 54.3471 112.978C54.2334 117.196 53.8391 121.448 53.8435 125.661C54.4588 129.363 57.4446 133.133 55.1811 136.212C52.6808 137.912 47.6273 142.054 49.8773 144.403C51.196 145.483 53.3023 144.857 54.7332 145.894C55.4617 146.295 55.9161 147.173 56.7681 147.307C64.5503 147.016 70.0419 146.992 77.8481 146.681C81.2655 146.571 86.4691 147.992 90.3917 145.163C104.093 152.656 98.3621 141.786 101.133 134.046C109.57 136.851 126.377 145.795 135.37 146.084C142.678 146.972 149.512 142.787 156.697 143.74C165.623 147 176.083 147.725 184.259 142.209C186.299 140.764 188.569 142.438 191.141 140.878C196.139 138.527 184.236 125.058 181.714 122.451Z" fill="white"/>
<path fill-rule="evenodd" clip-rule="evenodd" d="M171.513 62.0584C171.403 61.4327 172.279 60.966 172.619 61.6001C175.083 66.2062 176.07 71.5407 176.942 76.6285C177.824 81.7698 178.407 86.9325 178.439 92.1517C178.463 96.1664 178.093 100.227 177.396 104.245L177.481 104.531V104.531C177.637 105.056 177.795 105.581 177.955 106.105L178.195 106.891C178.66 108.401 179.1 109.918 179.578 111.424C180.575 114.567 181.625 117.719 182.911 120.761C184.165 123.729 185.691 126.591 187.505 129.266C189.253 131.845 192.027 134.026 193.259 136.891C193.688 137.889 193.053 139.208 191.868 139.049C191.791 139.14 191.673 139.206 191.514 139.22C190.593 139.299 189.73 139.224 188.812 139.139C188.299 139.092 188.3 138.403 188.812 138.356C189.202 138.32 189.582 138.288 189.962 138.266C187.335 136.736 185.461 133.748 183.963 131.302C182.037 128.159 180.583 124.725 179.397 121.253C178.18 117.687 177.318 114.048 176.625 110.352C176.546 109.927 176.47 109.501 176.397 109.075C175.522 112.733 174.395 116.325 173.059 119.776L172.872 120.257C169.792 128.106 165.621 136.031 158.683 141.219C158.368 141.454 158.047 141.678 157.722 141.896L158.117 142.119C158.51 142.339 158.897 142.551 159.275 142.724C160.677 143.367 162.199 143.857 163.704 144.205C166.814 144.923 170.079 144.717 173.251 144.817C174.291 144.85 174.883 146.383 173.819 146.882C170.316 148.522 166.532 148.174 162.915 147.02C161.126 146.448 159.447 145.648 157.893 144.604C157.251 144.173 156.505 143.64 155.875 143.024C148.937 146.841 140.314 147.268 132.591 145.903C128.578 145.193 124.689 143.898 121.268 141.682C117.977 139.551 115.631 136.852 113.956 133.356C113.808 133.046 114.221 132.661 114.474 132.963C119.735 139.245 128.788 141.866 136.753 142.365C141.003 142.631 145.35 142.41 149.436 141.16C153.311 139.974 156.637 137.799 159.414 134.908C165.042 129.046 168.415 121.072 170.837 113.483C173.472 105.228 174.726 96.5416 174.985 87.9018C175.116 83.5245 174.951 79.1104 174.252 74.7815C173.559 70.4884 172.271 66.3334 171.513 62.0584ZM92.6386 24.8685C93.0113 24.6823 93.2736 25.1669 92.9576 25.4052C86.3976 30.3514 80.5227 36.6232 75.7676 43.2613C66.9983 55.5043 61.3744 69.6717 58.7846 84.393C57.2555 93.0868 56.8562 101.912 57.0089 110.722C57.0694 114.221 57.2727 117.71 57.4989 121.2L57.7542 125.069C57.8727 126.871 57.9717 128.658 57.8952 130.469L57.8743 130.887C57.753 132.995 57.9637 135.119 57.4261 137.175C57.1502 138.23 55.6378 138.396 55.0902 137.475C54.9829 137.295 54.8826 137.109 54.7853 136.922C53.5019 138.98 51.8396 140.819 49.9954 142.463C50.8769 142.278 51.7669 142.161 52.6807 142.268C54.1292 142.439 55.4285 142.989 56.3478 143.953C57.2605 143.548 58.1989 143.27 59.278 143.264C60.0727 143.26 60.6687 144.184 60.2152 144.87C59.3105 146.24 58.0482 147.008 56.6137 147.766C55.5972 148.305 54.3839 147.844 54.0085 146.781L53.987 146.716C53.5646 145.371 51.3178 145.588 50.2578 145.796L49.9458 145.859C47.9725 146.262 46.0457 146.779 44.0354 146.246C42.7388 145.903 42.3999 143.984 43.6499 143.347C47.5988 141.335 50.9138 138.632 54.3207 135.919C53.5684 134.106 53.1413 132.08 52.6488 130.236C51.9554 127.641 51.7529 124.849 51.5025 122.183C51.0267 117.114 50.8452 111.991 50.8963 106.903C51.0689 89.7163 54.0586 72.4767 61.6951 56.914C65.0406 50.0966 69.4357 43.7882 74.6307 38.2044C79.795 32.6535 85.8268 28.2702 92.6386 24.8685ZM86.5248 109.034C86.3222 108.758 86.7177 108.393 86.995 108.572C92.9992 112.449 97.1659 118.337 99.8544 124.805C102.516 131.209 104.15 139.052 101.525 145.73C101.107 146.793 99.1066 147.188 98.9017 145.73C97.9867 139.217 97.8445 132.695 95.8326 126.363C93.8379 120.087 90.425 114.339 86.5248 109.034ZM81.8693 130.177C81.9021 130.062 82.0933 130.082 82.0851 130.206C81.9347 132.503 81.8326 134.827 81.5389 137.111C81.3961 138.221 81.2073 139.324 81.0467 140.431C80.8819 141.567 80.9068 142.714 80.2352 143.683C79.3452 144.969 76.9806 144.607 77.06 142.838C77.1148 141.617 77.6853 140.834 78.2197 139.763C78.5625 139.076 78.8613 138.366 79.1493 137.653L79.5774 136.583C80.4281 134.461 81.2422 132.375 81.8693 130.177ZM71.1177 124.094C71.1541 123.913 71.4505 123.957 71.4417 124.137C71.2813 127.387 70.9084 130.601 70.3244 133.804C70.0582 135.264 69.7477 136.716 69.4193 138.164L69.2776 138.784C68.9264 140.309 68.6997 142.101 67.9129 143.463C67.1266 144.825 65.2598 143.836 65.5017 142.464C65.7843 140.862 66.7842 139.25 67.3656 137.712C67.9021 136.291 68.3711 134.846 68.8094 133.394C69.732 130.336 70.4886 127.222 71.1177 124.094ZM91.1394 133.118L91.2093 133.048C91.4825 132.756 91.89 132.95 92.0205 133.258C92.5546 134.521 92.2873 136.01 92.2492 137.351L92.2421 137.643C92.2136 139.001 92.2334 140.273 91.6071 141.526C90.8467 143.048 88.8429 142.103 88.6879 140.749C88.5184 139.271 89.2293 137.825 89.6884 136.441C89.9801 135.561 90.1926 134.646 90.6362 133.848C90.2568 133.912 89.8781 134.041 89.5313 134.134C89.3759 134.175 89.3173 133.951 89.4656 133.899C90.039 133.699 90.6863 133.55 91.1394 133.118V133.118ZM171.072 137.599C170.889 137.398 171.117 137.129 171.355 137.238C174.21 138.549 176.881 139.402 180.031 139.682C181.397 139.803 181.405 141.911 180.031 141.789C176.743 141.498 173.297 140.048 171.072 137.599ZM70.6134 93.3009C73.1273 87.7413 81.0801 82.8095 86.413 87.9797C86.5129 88.0762 86.4112 88.2869 86.2661 88.2278C82.949 86.8764 78.8881 88.5953 76.5924 91.0539C74.771 93.004 73.6766 95.5081 73.4594 98.1474C73.2422 100.789 73.8845 103.546 75.669 105.589C76.605 106.661 77.8691 107.676 79.3566 107.805C80.8585 107.935 82.1103 106.895 83.53 106.612C84.6004 106.4 85.4083 107.06 85.5133 108.097C85.7446 110.387 83.4263 111.923 81.4166 112.296C79.2549 112.698 77.0486 112.259 75.1858 111.107C69.1696 107.388 67.8718 99.3649 70.6134 93.3009ZM127.06 38.8084C128.153 37.7812 130.013 38.8024 129.609 40.2677C128.751 43.3863 126.928 46.0221 124.908 48.5239C122.965 50.9309 120.883 53.2439 118.652 55.3966C116.435 57.5353 114.026 59.5142 111.495 61.2819L110.732 61.8128C108.938 63.0562 107.038 64.3137 105.03 65.2093C104.545 69.3165 103.596 73.3689 102.161 77.2487C100.778 80.9847 99.0195 84.5953 96.8882 87.9741L96.5822 88.458C94.6237 91.5439 92.2687 94.9927 88.9454 96.6843C88.8457 96.7353 88.7457 96.7664 88.6472 96.7846C89.3907 97.272 90.0189 97.885 90.3924 98.7658C90.8016 99.7302 89.9462 100.64 89.1262 100.959C87.3922 101.632 85.7007 100.492 84.1419 99.2757C84.076 99.4216 84.0138 99.5688 83.9605 99.7173C83.6119 100.689 83.5093 101.681 82.6105 102.326C82.1833 102.632 81.6571 102.358 81.3883 102.011C80.5071 100.872 81.4194 99.3215 82.1942 98.3911C82.3015 98.2626 82.4123 98.1404 82.5263 98.0231C82.1989 97.7865 81.8793 97.5766 81.5698 97.4155C79.7495 96.4678 77.0513 96.2998 76.0033 98.3978C75.9229 98.5589 75.6705 98.4756 75.6705 98.309C75.6732 95.732 78.3582 94.3324 80.6882 94.1421C82.3906 94.0032 84.0372 94.5902 85.5695 95.2737L85.8555 95.4028C86.4257 95.6631 87.0131 95.9087 87.5754 96.1833C87.484 95.9461 87.4854 95.6671 87.6294 95.3904C89.3916 92.007 92.4175 89.2556 94.5998 86.122C96.7639 83.0132 98.622 79.6862 100.105 76.2122C101.544 72.8403 102.672 69.3626 103.461 65.8154C103.201 65.8681 102.908 65.6407 102.927 65.3741C102.971 64.7291 103.292 64.148 103.855 63.9004C104.476 60.5639 104.793 57.1709 104.775 53.7506C104.773 53.4854 105.164 53.4949 105.187 53.7506C105.461 56.7916 105.484 59.8624 105.253 62.9153C106.719 61.5889 108.266 60.3279 109.678 58.9663C111.802 56.9176 113.857 54.8141 115.84 52.6326C117.863 50.4069 119.775 48.0994 121.523 45.6578L122.438 44.3774C123.845 42.4145 125.29 40.4721 127.06 38.8084ZM124.301 16.8958C136.367 16.1554 149.252 17.6132 160.09 23.1814C166.042 26.2392 170.642 30.8609 173.93 36.6124C175.892 40.0469 177.381 43.8501 177.945 47.7601C178.524 51.7777 177.844 55.36 175.235 58.5536C174.199 59.8218 172.453 58.4051 172.709 57.1075C174.271 49.1687 171.737 41.3249 167.244 34.7525C160.724 25.2152 149.337 20.9785 138.251 19.0887C132.804 18.1606 127.279 17.7726 121.753 17.9614C117.54 18.1055 113.219 18.4915 109.22 19.885C109.052 19.9438 108.985 19.6856 109.147 19.6248C113.916 17.834 119.24 17.2065 124.301 16.8958ZM142.195 34.8473C142.816 34.4602 143.576 34.8574 143.79 35.4855C144.543 37.6996 142.965 40.6248 141.909 42.5409C140.715 44.7092 139.179 46.7366 137.593 48.6409C134.42 52.4495 130.25 55.6275 125.674 57.6249C125.394 57.7474 125.067 57.4148 125.324 57.1796C128.865 53.9379 132.075 50.4625 134.855 46.5637C136.22 44.6478 137.359 42.6268 138.447 40.5507C139.42 38.6928 140.335 36.0066 142.195 34.8473ZM162.487 37.4556C162.884 36.0929 165.145 36.3249 165.051 37.7969C164.81 41.5994 162.985 45.4164 161.002 48.639C158.961 51.9574 156.375 54.9146 153.412 57.4685C153.266 57.5945 153.066 57.4005 153.198 57.2584C155.755 54.5064 157.82 51.3717 159.35 47.9603C160.877 44.5537 161.454 40.9993 162.487 37.4556ZM151.25 36.8399C151.683 35.655 153.753 35.743 153.626 37.1561C153.277 41.0408 150.958 45.112 148.81 48.3205C146.531 51.7247 143.622 54.7237 140.371 57.2425C140.249 57.3368 140.077 57.1805 140.196 57.0704C143.116 54.3655 145.484 51.2408 147.359 47.7556C148.316 45.9772 149.119 44.1254 149.752 42.2124C150.339 40.4427 150.614 38.5843 151.25 36.8399Z" fill="#594A4E"/>
<path fill-rule="evenodd" clip-rule="evenodd" d="M138.645 125.069C136.347 124.252 134.296 122.888 132.796 121.145C132.275 120.539 132.14 119.9 132.249 119.314C132.372 118.657 132.818 118.06 133.427 117.66C134.038 117.259 134.801 117.061 135.54 117.162C136.181 117.25 136.82 117.556 137.325 118.191L137.431 118.319C138.322 119.37 139.484 120.233 140.808 120.789C142.083 121.326 143.51 121.576 144.987 121.43C147.799 121.153 149.737 119.827 151.797 118.026C152.052 117.799 152.308 117.564 152.565 117.326C152.727 117.11 152.952 116.971 153.202 116.898C153.479 116.817 153.793 116.822 154.08 116.909C154.357 116.994 154.605 117.153 154.771 117.366C154.929 117.568 155.019 117.818 154.99 118.106C154.801 119.972 153.682 121.638 152.093 122.946C150.328 124.399 147.988 125.404 145.785 125.756C143.358 126.144 140.885 125.866 138.645 125.069ZM146.93 96.2752C149.512 97.644 153.446 100.836 150.668 104.229C147.399 107.221 142.691 103.79 140.371 102.239C138.22 101.037 135.803 104.129 137.799 105.533C154.562 116.356 161.365 96.6331 148.236 94.6659C146.79 94.4491 146.253 95.8518 146.93 96.2752ZM116.89 83.6849C117.175 80.5967 122.568 79.8954 123.105 82.9513C123.585 85.6888 123.02 88.2036 121.606 90.6682C120.255 93.0228 116.859 91.9243 116.602 89.7802C116.258 86.9062 116.712 85.606 116.89 83.6849ZM157.944 82.3177C158.696 81.4589 159.782 80.8726 161.083 81.2039C165.147 82.2396 163.949 87.2711 162.522 89.7203C161.746 91.0502 159.239 91.3875 158.107 90.2165C156.26 88.3068 155.376 84.4931 157.723 82.612C157.787 82.5148 157.858 82.4167 157.944 82.3177ZM121.549 70.1717L122.191 70.0737C124.177 69.7742 126.646 69.4863 128.051 70.8787C128.796 71.617 129.052 72.9894 128.051 73.6961C126.289 74.9396 124.341 74.4577 122.23 74.563C120.49 74.6501 118.818 74.9011 117.142 75.3189C113.466 76.2353 110.47 77.9082 107.33 79.7451C106.918 79.9861 106.498 79.5266 106.694 79.1905C108.507 76.0942 112.02 73.5509 115.538 72.0005C117.416 71.173 119.471 70.4866 121.549 70.1717ZM154.24 68.7847L154.731 68.8724C160.078 69.8471 167.025 71.7941 169.557 76.3743C169.654 77.022 169.552 77.1608 169.469 77.2515L169.441 77.2817C169.373 77.3591 169.318 77.4659 168.997 77.554C168.907 77.5355 168.817 77.5158 168.726 77.495C167.565 77.2297 166.647 76.8643 165.758 76.4851L164.794 76.071C163.676 75.5928 162.547 75.132 161.352 74.7918C158.8 74.066 156.176 73.5547 153.51 73.2817C152.933 73.2225 152.377 73.0525 151.938 72.7611C151.521 72.4845 151.203 72.1016 151.058 71.5926C150.87 70.9338 150.924 70.4351 151.329 69.8408C151.634 69.3945 152.07 69.0852 152.571 68.9075C153.081 68.7265 153.662 68.6838 154.24 68.7847Z" fill="#594A4E"/>
<path fill-rule="evenodd" clip-rule="evenodd" d="M168.375 95.9478C165.01 99.1666 159.393 100.09 154.916 98.364C143.421 93.9177 149.048 80.0494 157.913 76.3251C159.02 76.0696 160.499 75.4632 161.848 75.3257C161.97 75.2703 162.236 75.4307 162.558 75.279C172.333 76.2894 174.559 90.3379 168.375 95.9478M131.298 96.7717C127.524 101.406 120.508 102.836 114.775 100.681C103.45 96.5523 107.467 84.2545 115.215 79.4334C131.583 73.7395 138.342 88.2272 131.298 96.7717M106.748 86.5038C106.737 86.4991 106.727 86.4968 106.716 86.4922C106.776 86.4678 106.836 86.4435 106.895 86.4186C106.876 86.4655 106.855 86.512 106.836 86.5589C106.807 86.5402 106.781 86.5184 106.748 86.5038M176.167 81.4945C175.243 81.4963 173.908 81.6369 173.143 82.2304C171.257 76.341 164.294 70.8904 158.239 74.8649C153.47 76.2846 149.932 79.4331 147.921 83.619C144.295 81.6223 138.593 82.4749 135.449 85.1154C133.39 78.816 128.322 76.6102 122.289 76.2846C115.705 75.2862 109.143 81.2058 107.095 85.9547C105.393 85.7753 102.849 85.2737 101.247 86.2464C90.8518 83.7227 72.6775 82.3312 70.5642 83.7334C69.0581 84.2684 68.2317 87.5593 70.3353 87.7369C72.1683 87.496 70.1213 85.3255 71.9691 85.0887C81.8144 84.5237 91.3721 86.3593 101.113 87.1296C101.983 88.2126 104.793 88.5749 106.292 88.1397C103.931 96.1954 109.028 101.676 116.665 103.318C128.49 105.832 138.778 96.0391 135.686 85.8528C139.268 84.203 143.389 84.2738 147.291 85.1428C140.77 107.36 179.421 106.364 173.385 82.9916C177.402 84.8416 178.274 81.8678 176.167 81.4945" fill="#594A4E"/>
<path d="M191.434 378.024C191.391 378.103 191.315 378.246 191.208 378.454C191.108 378.662 190.968 378.898 190.789 379.163C190.617 379.421 190.41 379.689 190.166 379.969C189.923 380.248 189.643 380.506 189.328 380.742C189.013 380.971 188.659 381.161 188.265 381.312C187.878 381.462 187.455 381.537 186.997 381.537C186.589 381.537 186.227 381.462 185.912 381.312C185.597 381.168 185.328 380.964 185.106 380.699C184.884 380.427 184.716 380.108 184.602 379.743C184.487 379.378 184.43 378.973 184.43 378.529C184.43 378.1 184.491 377.699 184.612 377.326C184.734 376.947 184.899 376.617 185.106 376.338C185.321 376.059 185.568 375.84 185.848 375.683C186.127 375.518 186.424 375.436 186.739 375.436C186.976 375.436 187.19 375.479 187.384 375.564C187.577 375.643 187.738 375.751 187.867 375.887C188.003 376.023 188.107 376.173 188.179 376.338C188.257 376.503 188.297 376.667 188.297 376.832C188.297 376.99 188.275 377.136 188.232 377.272C188.197 377.409 188.146 377.53 188.082 377.638C188.025 377.738 187.957 377.82 187.878 377.885C187.799 377.942 187.72 377.971 187.642 377.971C187.52 377.971 187.42 377.931 187.341 377.853C187.269 377.774 187.233 377.677 187.233 377.562C187.233 377.505 187.244 377.455 187.266 377.412C187.294 377.369 187.323 377.326 187.352 377.283C187.387 377.233 187.416 377.176 187.438 377.111C187.466 377.04 187.48 376.95 187.48 376.843C187.48 376.692 187.409 376.556 187.266 376.435C187.13 376.313 186.954 376.252 186.739 376.252C186.539 376.252 186.345 376.313 186.159 376.435C185.98 376.556 185.823 376.721 185.687 376.929C185.55 377.129 185.439 377.369 185.354 377.648C185.275 377.921 185.235 378.211 185.235 378.519C185.235 378.812 185.271 379.091 185.343 379.356C185.414 379.621 185.522 379.858 185.665 380.065C185.808 380.266 185.987 380.427 186.202 380.549C186.424 380.671 186.686 380.731 186.986 380.731C187.373 380.731 187.731 380.663 188.061 380.527C188.39 380.384 188.691 380.205 188.963 379.99C189.235 379.775 189.475 379.543 189.683 379.292C189.89 379.034 190.066 378.794 190.209 378.572C190.359 378.343 190.474 378.146 190.553 377.981C190.639 377.81 190.689 377.702 190.703 377.659C190.732 377.588 190.778 377.534 190.843 377.498C190.914 377.455 190.99 377.434 191.068 377.434C191.19 377.434 191.287 377.477 191.358 377.562C191.437 377.648 191.477 377.745 191.477 377.853C191.477 377.896 191.462 377.953 191.434 378.024ZM196.815 378.024C196.737 378.189 196.636 378.386 196.515 378.615C196.4 378.837 196.268 379.07 196.117 379.313C195.967 379.557 195.799 379.8 195.612 380.044C195.426 380.28 195.222 380.495 195 380.688C194.785 380.875 194.552 381.025 194.302 381.14C194.058 381.261 193.797 381.322 193.518 381.322C193.088 381.322 192.719 381.19 192.411 380.925C192.103 380.66 191.842 380.312 191.627 379.883C191.412 379.453 191.237 378.966 191.101 378.422C190.972 377.87 190.871 377.312 190.8 376.746C190.728 376.173 190.678 375.618 190.649 375.081C190.628 374.544 190.617 374.068 190.617 373.652C190.617 373.051 190.635 372.428 190.671 371.783C190.714 371.139 190.778 370.508 190.864 369.893C190.95 369.277 191.058 368.693 191.187 368.142C191.323 367.59 191.48 367.107 191.659 366.691C191.845 366.276 192.057 365.947 192.293 365.703C192.529 365.46 192.798 365.338 193.099 365.338C193.335 365.338 193.546 365.395 193.732 365.51C193.926 365.617 194.087 365.796 194.216 366.047C194.345 366.298 194.445 366.623 194.517 367.024C194.588 367.425 194.624 367.916 194.624 368.496C194.624 369.212 194.549 369.953 194.398 370.72C194.248 371.479 194.044 372.245 193.786 373.019C193.528 373.792 193.224 374.565 192.873 375.339C192.522 376.105 192.146 376.854 191.745 377.584C191.924 378.493 192.164 379.21 192.465 379.732C192.766 380.248 193.127 380.506 193.55 380.506C193.836 380.506 194.112 380.395 194.377 380.173C194.642 379.944 194.885 379.675 195.107 379.367C195.329 379.059 195.523 378.748 195.688 378.433C195.859 378.11 195.992 377.853 196.085 377.659C196.121 377.588 196.171 377.534 196.235 377.498C196.3 377.455 196.371 377.434 196.45 377.434C196.572 377.434 196.669 377.477 196.74 377.562C196.819 377.648 196.858 377.745 196.858 377.853C196.858 377.896 196.844 377.953 196.815 378.024ZM191.434 373.706C191.434 374.164 191.444 374.605 191.466 375.027C191.487 375.45 191.516 375.854 191.552 376.241C191.853 375.661 192.139 375.045 192.411 374.394C192.683 373.735 192.923 373.072 193.131 372.406C193.339 371.733 193.503 371.067 193.625 370.408C193.754 369.742 193.818 369.108 193.818 368.507C193.818 367.662 193.75 367.057 193.614 366.691C193.478 366.326 193.296 366.144 193.066 366.144C192.916 366.144 192.769 366.247 192.626 366.455C192.49 366.663 192.361 366.946 192.239 367.304C192.118 367.662 192.007 368.084 191.906 368.571C191.806 369.058 191.72 369.581 191.648 370.14C191.584 370.698 191.53 371.282 191.487 371.891C191.451 372.499 191.434 373.104 191.434 373.706ZM204.399 378.003C204.371 378.06 204.31 378.182 204.217 378.368C204.131 378.547 204.016 378.755 203.873 378.991C203.737 379.228 203.576 379.475 203.39 379.732C203.203 379.99 202.996 380.227 202.767 380.441C202.537 380.656 202.29 380.835 202.025 380.979C201.76 381.115 201.481 381.183 201.188 381.183C200.772 381.183 200.421 381.05 200.135 380.785C199.855 380.52 199.651 380.187 199.522 379.786C199.279 380.194 198.989 380.52 198.652 380.764C198.316 381 197.979 381.118 197.643 381.118C197.378 381.118 197.138 381.072 196.923 380.979C196.708 380.878 196.525 380.742 196.375 380.57C196.225 380.391 196.106 380.184 196.021 379.947C195.942 379.711 195.902 379.453 195.902 379.174C195.902 378.615 195.995 378.125 196.182 377.702C196.375 377.272 196.618 376.914 196.912 376.628C197.206 376.341 197.528 376.127 197.879 375.983C198.237 375.84 198.581 375.769 198.91 375.769C199.132 375.769 199.336 375.801 199.522 375.865C199.709 375.923 199.866 375.987 199.995 376.059C200.131 376.13 200.235 376.198 200.307 376.263C200.378 376.32 200.418 376.352 200.425 376.359C200.504 376.452 200.543 376.549 200.543 376.649C200.543 376.757 200.504 376.854 200.425 376.939C200.346 377.018 200.253 377.058 200.146 377.058C200.031 377.058 199.934 377.018 199.855 376.939C199.841 376.925 199.809 376.9 199.759 376.864C199.709 376.821 199.641 376.778 199.555 376.735C199.469 376.692 199.365 376.657 199.243 376.628C199.129 376.592 198.996 376.574 198.846 376.574C198.624 376.574 198.387 376.624 198.137 376.725C197.886 376.825 197.657 376.982 197.449 377.197C197.242 377.405 197.066 377.67 196.923 377.992C196.787 378.307 196.719 378.683 196.719 379.12C196.719 379.256 196.733 379.396 196.762 379.539C196.79 379.675 196.84 379.8 196.912 379.915C196.984 380.03 197.08 380.123 197.202 380.194C197.324 380.266 197.474 380.302 197.653 380.302C197.782 380.302 197.929 380.259 198.094 380.173C198.266 380.087 198.427 379.954 198.577 379.775C198.735 379.596 198.874 379.371 198.996 379.099C199.125 378.826 199.215 378.504 199.265 378.132C199.279 378.032 199.326 377.949 199.404 377.885C199.483 377.813 199.576 377.777 199.684 377.777C199.784 377.777 199.87 377.817 199.941 377.896C200.02 377.974 200.063 378.064 200.07 378.164C200.077 378.3 200.092 378.493 200.113 378.744C200.135 378.988 200.181 379.231 200.253 379.475C200.332 379.718 200.446 379.929 200.597 380.108C200.747 380.287 200.955 380.377 201.22 380.377C201.392 380.377 201.56 380.33 201.725 380.237C201.896 380.144 202.061 380.022 202.219 379.872C202.383 379.715 202.537 379.539 202.681 379.346C202.831 379.145 202.967 378.945 203.089 378.744C203.211 378.544 203.318 378.35 203.411 378.164C203.504 377.978 203.583 377.817 203.647 377.681C203.683 377.602 203.733 377.541 203.798 377.498C203.869 377.455 203.945 377.434 204.023 377.434C204.145 377.434 204.242 377.48 204.313 377.573C204.392 377.659 204.432 377.752 204.432 377.853C204.432 377.903 204.421 377.953 204.399 378.003ZM204.786 376.585C204.757 376.778 204.722 376.961 204.679 377.133C204.636 377.298 204.593 377.444 204.55 377.573C204.514 377.695 204.482 377.795 204.453 377.874C204.424 377.953 204.407 377.996 204.399 378.003C204.328 378.168 204.202 378.25 204.023 378.25C203.923 378.25 203.83 378.214 203.744 378.143C203.658 378.064 203.615 377.967 203.615 377.853C203.615 377.81 203.622 377.777 203.637 377.756C203.651 377.734 203.673 377.691 203.701 377.627C203.73 377.562 203.766 377.455 203.809 377.305C203.852 377.154 203.905 376.922 203.97 376.606C203.848 376.606 203.723 376.603 203.594 376.596C203.465 376.589 203.347 376.563 203.239 376.521C203.125 376.478 203.032 376.41 202.96 376.316C202.888 376.223 202.853 376.094 202.853 375.93C202.853 375.808 202.888 375.643 202.96 375.436C203.024 375.228 203.114 375.024 203.229 374.823C203.343 374.623 203.472 374.451 203.615 374.308C203.758 374.157 203.902 374.082 204.045 374.082C204.21 374.082 204.342 374.143 204.442 374.265C204.55 374.386 204.632 374.537 204.689 374.716C204.747 374.888 204.786 375.07 204.808 375.264C204.836 375.457 204.851 375.625 204.851 375.769C204.972 375.769 205.09 375.769 205.205 375.769C205.327 375.761 205.441 375.758 205.549 375.758C205.957 375.758 206.269 375.847 206.483 376.026C206.698 376.205 206.806 376.499 206.806 376.907C206.806 377.072 206.795 377.244 206.773 377.423C206.752 377.602 206.727 377.788 206.698 377.981C206.67 378.168 206.645 378.354 206.623 378.54C206.602 378.726 206.591 378.909 206.591 379.088C206.591 379.346 206.627 379.561 206.698 379.732C206.77 379.897 206.859 380.03 206.967 380.13C207.074 380.23 207.189 380.302 207.311 380.345C207.432 380.381 207.543 380.398 207.644 380.398C207.951 380.398 208.242 380.298 208.514 380.098C208.786 379.897 209.036 379.657 209.266 379.378C209.495 379.091 209.699 378.791 209.878 378.476C210.064 378.16 210.218 377.885 210.34 377.648C210.376 377.584 210.426 377.534 210.49 377.498C210.555 377.462 210.623 377.444 210.694 377.444C210.823 377.444 210.924 377.487 210.995 377.573C211.067 377.652 211.103 377.742 211.103 377.842C211.103 377.913 211.088 377.978 211.06 378.035C210.895 378.329 210.701 378.662 210.479 379.034C210.265 379.399 210.018 379.743 209.738 380.065C209.459 380.388 209.144 380.66 208.793 380.882C208.449 381.104 208.07 381.215 207.654 381.215C207.396 381.215 207.153 381.165 206.924 381.064C206.695 380.971 206.494 380.835 206.322 380.656C206.158 380.47 206.025 380.244 205.925 379.979C205.825 379.707 205.774 379.403 205.774 379.066C205.774 378.708 205.81 378.354 205.882 378.003C205.953 377.645 205.989 377.305 205.989 376.982C205.989 376.846 205.957 376.746 205.893 376.682C205.835 376.61 205.703 376.574 205.495 376.574C205.395 376.574 205.284 376.574 205.162 376.574C205.048 376.574 204.922 376.578 204.786 376.585ZM204.066 375.79C204.066 375.74 204.063 375.675 204.056 375.597C204.056 375.511 204.049 375.428 204.034 375.35C204.027 375.271 204.013 375.203 203.991 375.146C203.977 375.088 203.959 375.06 203.938 375.06C203.916 375.06 203.887 375.088 203.852 375.146C203.823 375.196 203.791 375.26 203.755 375.339C203.719 375.41 203.687 375.489 203.658 375.575C203.63 375.661 203.608 375.733 203.594 375.79H204.066ZM212.091 372.567C212.091 372.84 211.994 373.072 211.801 373.266C211.615 373.452 211.385 373.545 211.113 373.545C210.841 373.545 210.608 373.452 210.415 373.266C210.229 373.072 210.136 372.84 210.136 372.567C210.136 372.431 210.161 372.306 210.211 372.191C210.261 372.07 210.329 371.966 210.415 371.88C210.508 371.787 210.612 371.715 210.727 371.665C210.848 371.615 210.977 371.59 211.113 371.59C211.249 371.59 211.375 371.615 211.489 371.665C211.611 371.715 211.715 371.787 211.801 371.88C211.894 371.966 211.965 372.07 212.016 372.191C212.066 372.306 212.091 372.431 212.091 372.567ZM210.351 378.862C210.351 377.831 210.415 376.803 210.544 375.779C210.558 375.679 210.601 375.593 210.673 375.521C210.752 375.443 210.852 375.403 210.974 375.403C211.081 375.403 211.171 375.446 211.242 375.532C211.314 375.611 211.35 375.704 211.35 375.812C211.35 375.854 211.339 375.983 211.317 376.198C211.303 376.413 211.282 376.671 211.253 376.972C211.231 377.265 211.21 377.58 211.188 377.917C211.174 378.246 211.167 378.551 211.167 378.83C211.167 379.21 211.203 379.518 211.274 379.754C211.353 379.983 211.45 380.162 211.564 380.291C211.686 380.42 211.812 380.506 211.94 380.549C212.076 380.592 212.205 380.613 212.327 380.613C212.528 380.613 212.735 380.542 212.95 380.398C213.165 380.255 213.383 380.055 213.605 379.797C213.835 379.539 214.064 379.231 214.293 378.873C214.522 378.508 214.748 378.103 214.97 377.659C215.006 377.588 215.056 377.534 215.12 377.498C215.185 377.455 215.256 377.434 215.335 377.434C215.45 377.434 215.543 377.477 215.614 377.562C215.693 377.648 215.732 377.742 215.732 377.842C215.732 377.913 215.718 377.974 215.689 378.024C215.604 378.189 215.496 378.39 215.367 378.626C215.238 378.862 215.091 379.106 214.927 379.356C214.762 379.607 214.579 379.858 214.379 380.108C214.186 380.352 213.978 380.574 213.756 380.774C213.534 380.968 213.301 381.125 213.058 381.247C212.814 381.369 212.567 381.43 212.316 381.43C211.994 381.43 211.711 381.362 211.468 381.226C211.224 381.09 211.017 380.907 210.845 380.678C210.68 380.449 210.555 380.18 210.469 379.872C210.39 379.557 210.351 379.22 210.351 378.862ZM211.489 372.567C211.489 372.467 211.45 372.381 211.371 372.31C211.299 372.231 211.214 372.191 211.113 372.191C211.013 372.191 210.927 372.231 210.855 372.31C210.784 372.381 210.748 372.467 210.748 372.567C210.748 372.668 210.784 372.754 210.855 372.825C210.927 372.897 211.013 372.933 211.113 372.933C211.214 372.933 211.299 372.897 211.371 372.825C211.45 372.754 211.489 372.668 211.489 372.567ZM216.151 377.025C216.108 377.14 216.055 377.269 215.99 377.412C215.933 377.555 215.865 377.706 215.786 377.863C215.722 377.985 215.654 378.082 215.582 378.153C215.518 378.218 215.432 378.25 215.324 378.25C215.202 378.25 215.106 378.214 215.034 378.143C214.963 378.064 214.927 377.974 214.927 377.874C214.927 377.838 214.93 377.81 214.938 377.788C214.945 377.759 214.963 377.716 214.991 377.659C215.177 377.301 215.313 376.99 215.399 376.725C215.493 376.452 215.568 376.17 215.625 375.876C215.575 375.711 215.539 375.572 215.518 375.457C215.496 375.342 215.485 375.224 215.485 375.103C215.485 374.866 215.535 374.676 215.636 374.533C215.736 374.383 215.876 374.308 216.055 374.308C216.219 374.308 216.348 374.379 216.441 374.522C216.542 374.666 216.592 374.841 216.592 375.049C216.592 375.163 216.581 375.278 216.56 375.393C216.538 375.507 216.509 375.65 216.474 375.822C216.638 376.23 216.803 376.592 216.968 376.907C217.132 377.222 217.279 377.512 217.408 377.777C217.537 378.035 217.641 378.279 217.72 378.508C217.806 378.737 217.849 378.966 217.849 379.195C217.849 379.496 217.788 379.783 217.666 380.055C217.544 380.327 217.344 380.556 217.064 380.742C217.1 380.749 217.136 380.753 217.172 380.753C217.208 380.753 217.243 380.753 217.279 380.753C217.688 380.753 218.063 380.66 218.407 380.474C218.751 380.287 219.059 380.048 219.331 379.754C219.61 379.453 219.857 379.124 220.072 378.766C220.287 378.4 220.473 378.039 220.631 377.681C220.702 377.516 220.803 377.434 220.932 377.434C221.053 377.434 221.146 377.477 221.211 377.562C221.283 377.648 221.318 377.742 221.318 377.842C221.318 377.899 221.308 377.953 221.286 378.003C221.207 378.196 221.104 378.418 220.975 378.669C220.853 378.912 220.702 379.167 220.523 379.432C220.352 379.689 220.151 379.944 219.922 380.194C219.693 380.445 219.435 380.671 219.148 380.871C218.869 381.064 218.561 381.218 218.225 381.333C217.888 381.455 217.519 381.516 217.118 381.516C216.638 381.516 216.191 381.43 215.775 381.258C215.367 381.093 215.034 380.817 214.776 380.431C214.733 380.366 214.712 380.298 214.712 380.227C214.712 380.119 214.751 380.026 214.83 379.947C214.916 379.861 215.013 379.818 215.12 379.818C215.235 379.818 215.331 379.858 215.41 379.937C215.417 379.951 215.442 379.976 215.485 380.012C215.528 380.04 215.578 380.076 215.636 380.119C215.7 380.155 215.772 380.187 215.851 380.216C215.937 380.244 216.022 380.259 216.108 380.259C216.28 380.259 216.424 380.223 216.538 380.151C216.66 380.08 216.757 379.994 216.828 379.894C216.9 379.786 216.95 379.675 216.979 379.561C217.014 379.439 217.032 379.335 217.032 379.249C217.032 379.07 217.004 378.891 216.946 378.712C216.889 378.533 216.814 378.354 216.721 378.175C216.635 377.996 216.538 377.813 216.431 377.627C216.33 377.434 216.237 377.233 216.151 377.025ZM221.737 377.025C221.694 377.14 221.641 377.269 221.576 377.412C221.519 377.555 221.451 377.706 221.372 377.863C221.308 377.985 221.24 378.082 221.168 378.153C221.104 378.218 221.018 378.25 220.91 378.25C220.788 378.25 220.692 378.214 220.62 378.143C220.549 378.064 220.513 377.974 220.513 377.874C220.513 377.838 220.516 377.81 220.523 377.788C220.531 377.759 220.549 377.716 220.577 377.659C220.763 377.301 220.899 376.99 220.985 376.725C221.078 376.452 221.154 376.17 221.211 375.876C221.161 375.711 221.125 375.572 221.104 375.457C221.082 375.342 221.071 375.224 221.071 375.103C221.071 374.866 221.121 374.676 221.222 374.533C221.322 374.383 221.462 374.308 221.641 374.308C221.805 374.308 221.934 374.379 222.027 374.522C222.128 374.666 222.178 374.841 222.178 375.049C222.178 375.163 222.167 375.278 222.146 375.393C222.124 375.507 222.095 375.65 222.06 375.822C222.224 376.23 222.389 376.592 222.554 376.907C222.718 377.222 222.865 377.512 222.994 377.777C223.123 378.035 223.227 378.279 223.306 378.508C223.392 378.737 223.435 378.966 223.435 379.195C223.435 379.496 223.374 379.783 223.252 380.055C223.13 380.327 222.93 380.556 222.65 380.742C222.686 380.749 222.722 380.753 222.758 380.753C222.794 380.753 222.829 380.753 222.865 380.753C223.273 380.753 223.649 380.66 223.993 380.474C224.337 380.287 224.645 380.048 224.917 379.754C225.196 379.453 225.443 379.124 225.658 378.766C225.873 378.4 226.059 378.039 226.217 377.681C226.288 377.516 226.389 377.434 226.518 377.434C226.639 377.434 226.732 377.477 226.797 377.562C226.868 377.648 226.904 377.742 226.904 377.842C226.904 377.899 226.894 377.953 226.872 378.003C226.793 378.196 226.689 378.418 226.561 378.669C226.439 378.912 226.288 379.167 226.109 379.432C225.938 379.689 225.737 379.944 225.508 380.194C225.279 380.445 225.021 380.671 224.734 380.871C224.455 381.064 224.147 381.218 223.811 381.333C223.474 381.455 223.105 381.516 222.704 381.516C222.224 381.516 221.777 381.43 221.361 381.258C220.953 381.093 220.62 380.817 220.362 380.431C220.319 380.366 220.298 380.298 220.298 380.227C220.298 380.119 220.337 380.026 220.416 379.947C220.502 379.861 220.599 379.818 220.706 379.818C220.821 379.818 220.917 379.858 220.996 379.937C221.003 379.951 221.028 379.976 221.071 380.012C221.114 380.04 221.164 380.076 221.222 380.119C221.286 380.155 221.358 380.187 221.437 380.216C221.522 380.244 221.608 380.259 221.694 380.259C221.866 380.259 222.009 380.223 222.124 380.151C222.246 380.08 222.342 379.994 222.414 379.894C222.486 379.786 222.536 379.675 222.564 379.561C222.6 379.439 222.618 379.335 222.618 379.249C222.618 379.07 222.59 378.891 222.532 378.712C222.475 378.533 222.4 378.354 222.307 378.175C222.221 377.996 222.124 377.813 222.017 377.627C221.916 377.434 221.823 377.233 221.737 377.025ZM227.42 379.818C227.57 380.026 227.764 380.194 228 380.323C228.236 380.445 228.526 380.506 228.87 380.506C229.221 380.506 229.54 380.424 229.826 380.259C230.113 380.087 230.374 379.865 230.61 379.593C230.847 379.321 231.058 379.016 231.244 378.68C231.43 378.343 231.599 378.007 231.749 377.67C231.785 377.591 231.835 377.534 231.899 377.498C231.964 377.455 232.035 377.434 232.114 377.434C232.236 377.434 232.333 377.477 232.404 377.562C232.483 377.648 232.522 377.742 232.522 377.842C232.522 377.878 232.519 377.91 232.512 377.938C232.505 377.96 232.494 377.985 232.479 378.014C231.985 379.102 231.445 379.922 230.857 380.474C230.277 381.025 229.618 381.308 228.881 381.322C228.408 381.322 228 381.229 227.656 381.043C227.312 380.864 227.03 380.631 226.808 380.345C226.586 380.051 226.421 379.722 226.313 379.356C226.206 378.991 226.152 378.626 226.152 378.261C226.152 377.896 226.195 377.559 226.281 377.251C226.374 376.943 226.503 376.674 226.668 376.445C226.84 376.216 227.04 376.037 227.27 375.908C227.506 375.779 227.764 375.715 228.043 375.715C228.208 375.715 228.369 375.751 228.526 375.822C228.691 375.887 228.838 375.983 228.967 376.112C229.096 376.234 229.2 376.384 229.278 376.563C229.357 376.743 229.396 376.947 229.396 377.176C229.396 377.469 229.346 377.745 229.246 378.003C229.146 378.261 229.006 378.501 228.827 378.723C228.655 378.945 228.448 379.149 228.204 379.335C227.961 379.521 227.699 379.682 227.42 379.818ZM227.098 379.12C227.32 379.027 227.52 378.909 227.699 378.766C227.885 378.622 228.043 378.465 228.172 378.293C228.301 378.121 228.401 377.942 228.473 377.756C228.544 377.562 228.58 377.369 228.58 377.176C228.58 376.961 228.526 376.8 228.419 376.692C228.312 376.578 228.186 376.521 228.043 376.521C227.85 376.521 227.685 376.574 227.549 376.682C227.413 376.789 227.302 376.929 227.216 377.101C227.13 377.272 227.065 377.466 227.022 377.681C226.987 377.888 226.969 378.096 226.969 378.304C226.969 378.433 226.979 378.569 227.001 378.712C227.03 378.855 227.062 378.991 227.098 379.12ZM237.442 380.087C237.557 379.843 237.689 379.582 237.84 379.303C237.99 379.016 238.151 378.726 238.323 378.433C238.495 378.132 238.678 377.835 238.871 377.541C239.064 377.247 239.265 376.972 239.473 376.714C239.68 376.463 239.888 376.284 240.096 376.177C240.311 376.062 240.511 376.005 240.697 376.005C240.883 376.005 241.045 376.044 241.181 376.123C241.324 376.195 241.438 376.295 241.524 376.424C241.618 376.553 241.686 376.703 241.729 376.875C241.779 377.047 241.804 377.233 241.804 377.434C241.804 377.598 241.786 377.82 241.75 378.1C241.721 378.372 241.707 378.658 241.707 378.959C241.707 379.131 241.714 379.303 241.729 379.475C241.75 379.639 241.782 379.79 241.825 379.926C241.875 380.055 241.947 380.162 242.04 380.248C242.133 380.327 242.255 380.366 242.405 380.366C242.577 380.366 242.749 380.32 242.921 380.227C243.093 380.126 243.261 379.997 243.426 379.84C243.59 379.675 243.748 379.496 243.898 379.303C244.049 379.102 244.185 378.905 244.307 378.712C244.428 378.511 244.536 378.322 244.629 378.143C244.722 377.956 244.797 377.802 244.854 377.681C244.926 377.516 245.051 377.434 245.23 377.434C245.352 377.434 245.449 377.477 245.521 377.562C245.592 377.648 245.628 377.742 245.628 377.842C245.628 377.899 245.617 377.953 245.596 378.003C245.567 378.06 245.51 378.178 245.424 378.357C245.345 378.536 245.234 378.744 245.091 378.98C244.955 379.217 244.794 379.464 244.607 379.722C244.421 379.979 244.214 380.219 243.984 380.441C243.762 380.656 243.519 380.835 243.254 380.979C242.996 381.115 242.724 381.183 242.438 381.183C242.108 381.183 241.843 381.115 241.643 380.979C241.442 380.835 241.285 380.656 241.17 380.441C241.062 380.227 240.987 379.987 240.944 379.722C240.909 379.457 240.891 379.199 240.891 378.948C240.891 378.819 240.894 378.683 240.901 378.54C240.916 378.39 240.93 378.243 240.944 378.1C240.959 377.956 240.969 377.824 240.977 377.702C240.991 377.573 240.998 377.466 240.998 377.38C240.998 377.158 240.966 377.007 240.901 376.929C240.844 376.85 240.776 376.811 240.697 376.811C240.583 376.811 240.45 376.879 240.3 377.015C240.157 377.144 240.003 377.315 239.838 377.53C239.68 377.745 239.519 377.989 239.354 378.261C239.197 378.526 239.043 378.791 238.893 379.056C238.742 379.321 238.606 379.575 238.484 379.818C238.363 380.055 238.262 380.252 238.184 380.409C238.033 380.71 237.879 380.91 237.722 381.011C237.571 381.118 237.435 381.172 237.313 381.172C237.091 381.172 236.92 381.086 236.798 380.914C236.683 380.735 236.626 380.52 236.626 380.27V379.593C236.626 378.239 236.626 376.95 236.626 375.726C236.633 374.494 236.651 373.352 236.68 372.299C236.715 371.239 236.769 370.283 236.841 369.431C236.92 368.571 237.034 367.841 237.185 367.239C237.335 366.631 237.525 366.161 237.754 365.832C237.99 365.503 238.284 365.338 238.635 365.338C238.936 365.338 239.19 365.42 239.397 365.585C239.605 365.75 239.773 365.975 239.902 366.262C240.031 366.541 240.124 366.87 240.182 367.25C240.239 367.622 240.268 368.016 240.268 368.432C240.268 369.277 240.189 370.107 240.031 370.924C239.881 371.733 239.677 372.524 239.419 373.298C239.161 374.071 238.86 374.827 238.517 375.564C238.173 376.295 237.811 377.007 237.432 377.702C237.432 377.831 237.432 377.985 237.432 378.164C237.432 378.343 237.432 378.522 237.432 378.701C237.432 378.88 237.432 379.049 237.432 379.206C237.432 379.364 237.432 379.489 237.432 379.582L237.442 380.087ZM237.442 376.123C237.743 375.464 238.015 374.823 238.259 374.2C238.509 373.57 238.721 372.943 238.893 372.32C239.072 371.697 239.211 371.067 239.312 370.43C239.412 369.785 239.462 369.116 239.462 368.421C239.462 368.306 239.455 368.124 239.44 367.873C239.433 367.622 239.401 367.368 239.344 367.11C239.294 366.853 239.211 366.627 239.097 366.434C238.989 366.24 238.835 366.144 238.635 366.144C238.477 366.144 238.341 366.251 238.227 366.466C238.112 366.674 238.012 366.96 237.926 367.325C237.84 367.683 237.768 368.102 237.711 368.582C237.654 369.062 237.607 369.57 237.571 370.107C237.535 370.645 237.507 371.196 237.485 371.762C237.471 372.327 237.46 372.879 237.453 373.416C237.446 373.946 237.442 374.444 237.442 374.909C237.442 375.375 237.442 375.779 237.442 376.123ZM249.033 377.874C249.384 379.528 249.893 380.355 250.559 380.355C250.816 380.355 251.063 380.262 251.3 380.076C251.536 379.883 251.755 379.65 251.955 379.378C252.163 379.099 252.345 378.805 252.503 378.497C252.66 378.189 252.789 377.921 252.89 377.691C252.961 377.52 253.087 377.434 253.266 377.434C253.38 377.434 253.477 377.477 253.556 377.562C253.634 377.648 253.674 377.742 253.674 377.842C253.674 377.899 253.663 377.949 253.642 377.992C253.591 378.114 253.516 378.279 253.416 378.486C253.323 378.687 253.205 378.905 253.062 379.142C252.925 379.371 252.771 379.607 252.6 379.851C252.428 380.094 252.238 380.312 252.03 380.506C251.823 380.699 251.601 380.86 251.364 380.989C251.135 381.111 250.892 381.172 250.634 381.172C250.154 381.172 249.742 381.007 249.398 380.678C249.055 380.341 248.757 379.79 248.507 379.023C248.163 379.754 247.816 380.284 247.465 380.613C247.114 380.943 246.734 381.107 246.326 381.107C246.111 381.107 245.904 381.072 245.703 381C245.503 380.936 245.327 380.825 245.177 380.667C245.026 380.509 244.905 380.309 244.812 380.065C244.718 379.815 244.672 379.51 244.672 379.152C244.672 378.658 244.758 378.203 244.93 377.788C245.102 377.373 245.324 377.018 245.596 376.725C245.868 376.424 246.169 376.191 246.498 376.026C246.835 375.862 247.168 375.779 247.497 375.779C247.604 375.779 247.698 375.819 247.776 375.897C247.855 375.969 247.895 376.062 247.895 376.177C247.895 376.277 247.862 376.367 247.798 376.445C247.733 376.524 247.647 376.571 247.54 376.585C247.325 376.614 247.096 376.682 246.853 376.789C246.609 376.896 246.383 377.054 246.176 377.262C245.975 377.462 245.807 377.72 245.671 378.035C245.542 378.35 245.478 378.726 245.478 379.163C245.478 379.521 245.549 379.8 245.692 380.001C245.843 380.201 246.058 380.302 246.337 380.302C246.451 380.302 246.573 380.273 246.702 380.216C246.831 380.151 246.967 380.03 247.11 379.851C247.261 379.672 247.422 379.417 247.594 379.088C247.773 378.758 247.97 378.325 248.185 377.788C248.063 377.158 247.952 376.431 247.852 375.607C247.751 374.784 247.701 373.864 247.701 372.847C247.701 372.403 247.715 371.941 247.744 371.461C247.773 370.974 247.819 370.501 247.884 370.043C247.948 369.577 248.034 369.137 248.142 368.722C248.249 368.306 248.378 367.941 248.528 367.626C248.686 367.311 248.868 367.064 249.076 366.885C249.284 366.699 249.52 366.605 249.785 366.605C250.021 366.605 250.222 366.67 250.387 366.799C250.551 366.928 250.684 367.107 250.784 367.336C250.892 367.565 250.97 367.841 251.021 368.163C251.071 368.485 251.096 368.84 251.096 369.227C251.096 370.057 251.024 370.888 250.881 371.719C250.738 372.549 250.559 373.344 250.344 374.104C250.136 374.863 249.914 375.564 249.678 376.209C249.441 376.854 249.227 377.409 249.033 377.874ZM250.29 369.216C250.29 369.037 250.283 368.843 250.269 368.636C250.261 368.428 250.236 368.235 250.193 368.056C250.158 367.869 250.107 367.715 250.043 367.594C249.979 367.472 249.893 367.411 249.785 367.411C249.606 367.411 249.438 367.569 249.28 367.884C249.13 368.199 248.997 368.614 248.883 369.13C248.768 369.638 248.675 370.218 248.604 370.87C248.539 371.515 248.507 372.166 248.507 372.825C248.507 373.455 248.532 374.086 248.582 374.716C248.632 375.346 248.689 375.908 248.754 376.402C248.962 375.851 249.159 375.285 249.345 374.705C249.531 374.118 249.692 373.52 249.828 372.911C249.971 372.302 250.082 371.69 250.161 371.074C250.247 370.451 250.29 369.832 250.29 369.216Z" fill="black"/>
<defs>
<filter id="filter0_d_101_198" x="-4" y="133.857" width="221" height="248.745" filterUnits="userSpaceOnUse" color-interpolation-filters="sRGB">
<feFlood flood-opacity="0" result="BackgroundImageFix"/>
<feColorMatrix in="SourceAlpha" type="matrix" values="0 0 0 0 0 0 0 0 0 0 0 0 0 0 0 0 0 0 127 0" result="hardAlpha"/>
<feOffset dy="4"/>
<feGaussianBlur stdDeviation="2"/>
<feComposite in2="hardAlpha" operator="out"/>
<feColorMatrix type="matrix" values="0 0 0 0 0 0 0 0 0 0 0 0 0 0 0 0 0 0 0.25 0"/>
<feBlend mode="normal" in2="BackgroundImageFix" result="effect1_dropShadow_101_198"/>
<feBlend mode="normal" in="SourceGraphic" in2="effect1_dropShadow_101_198" result="shape"/>
</filter>
</defs>
</svg>


