<svg width="215" height="375" viewBox="0 0 215 375" fill="none" xmlns="http://www.w3.org/2000/svg">
<g filter="url(#filter0_d_17_87)">
<path fill-rule="evenodd" clip-rule="evenodd" d="M112.352 140.02C105.924 133.978 89.787 131.261 82.9268 137.079C76.1509 142.92 75.4122 152.367 72.2547 161.058C69.2755 159.324 64.3558 161.807 63.4921 165.22C62.4209 166.829 62.3727 171.351 61.634 173.514C29.4908 179.83 24.6109 210.763 20.742 245.881C15.6237 281.517 4.00482 317.074 9.04886 353.744C8.39163 354.918 7.87345 356.059 7.39433 357.414C6.24627 359.825 7.72502 363.239 10.0407 363.107C13.038 362.782 16.0057 362.338 19.0171 362.2C27.3652 361.842 35.7209 361.884 44.0722 362.015L45.2109 362.034C87.2987 362.68 129.384 363.955 171.474 364.293C173.001 364.295 173.748 362.605 173.544 360.938C173.134 357.58 172.753 354.221 172.355 350.863C182.311 354.108 192.894 354.925 202.821 351.204C203.515 350.331 201.203 350.804 200.836 350.671C209.972 342.965 207.244 326.731 206.434 315.039C201.402 274.973 199.628 230.643 180.185 196.454C171.774 182.502 159.442 171.456 145.271 168.97L144.878 168.904C140.735 168.222 136.117 168.002 132.495 165.22C128.42 161.205 126.684 153.786 122.397 153.717C120.982 153.694 119.057 155.904 116.985 157.405C116.83 154.103 115.389 151.317 115.07 148.758L115.045 148.539C114.713 145.555 115.167 142.87 112.352 140.02ZM43.2733 246.939C52.3064 239.193 75.6409 243.085 76.175 243.519C77.3512 244.474 77.8577 244.558 78.4939 245.798C79.1219 245.901 79.7495 246.008 80.3765 246.118C81.6344 246.625 80.7022 248.535 79.2493 247.854C80.1232 252.506 77.5513 255.815 76.5274 260.414C76.1949 261.907 76.5154 264.593 76.5274 266.119C76.4281 268.065 74.6855 270.363 74.9759 272.315C76.0085 279.254 81.6116 286.023 79.2493 292.753C77.6843 296.553 72.9775 298.491 69.8481 299.784C63.3646 302.855 52.0677 299.668 48.3007 292.753C46.2914 289.064 43.9635 279.76 42.7654 276.873L42.4999 272.295C41.845 260.915 41.2625 248.664 43.2733 246.939Z" fill="white"/>
<path fill-rule="evenodd" clip-rule="evenodd" d="M123.971 153.045C123.348 152.364 122.425 153.22 122.821 154.141C123.712 156.211 124.625 158.172 125.82 160.001C126.545 161.111 127.321 162.16 128.108 163.197C126.089 165.353 124.358 168.03 122.723 170.538C120.632 173.746 118.655 177.09 116.309 180.026C113.994 182.921 111.435 184.945 108.34 186.294L107.715 186.562C104.607 187.909 101.284 189.728 99.532 193.361C99.1865 194.078 99.8823 194.963 100.467 194.516C103.512 192.189 107.089 191.721 110.404 190.183C113.605 188.698 116.396 186.412 118.862 183.494C121.324 180.582 123.391 177.268 125.547 174.024C127.679 170.817 129.974 168.077 132.496 165.363C136.388 168.595 140.83 170.001 145.347 171.382L145.84 171.533C150.363 172.915 154.861 174.52 159.104 176.927C162.845 179.049 166.524 181.583 169.571 185.035C172.806 188.7 175.323 193.379 177.627 197.956C182.781 208.195 186.405 219.413 189.595 230.767C192.913 242.577 195.688 254.623 197.929 266.812C199.068 273.012 199.994 279.257 200.754 285.545C201.12 288.573 201.446 291.608 201.731 294.65C202.036 297.897 202.106 301.239 202.913 304.362C203.259 305.7 204.077 306.256 204.894 306.208L205.061 308.773C205.281 312.192 205.486 315.613 205.556 319.053C205.671 324.774 205.618 330.478 205.285 336.187L205.238 336.965C204.976 341.131 204.391 345.812 201.853 348.863C199.224 352.023 195.182 353.016 191.639 353.073C183.388 353.206 175.446 348.394 168.145 344.172C160.625 339.824 153.311 334.998 146.172 329.764C142.536 327.098 138.94 324.344 135.39 321.509C133.647 320.118 131.917 318.703 130.2 317.265C129.217 316.442 128.285 315.539 127.284 314.808C127.774 314.244 127.993 313.358 127.582 312.584C130.477 309.483 131.681 303.949 131.822 299.471C131.936 295.857 131.505 292.253 131.165 288.672C130.993 286.867 130.781 285.065 130.561 283.267C130.474 282.557 130.408 281.798 130.306 281.048C138.122 286.349 146.156 291.07 154.402 295.265C158.63 297.415 162.911 299.348 167.251 301.119L168.131 301.476C172.244 303.138 176.455 304.708 180.706 305.658C180.934 305.709 181.118 305.294 180.876 305.162C176.732 302.906 172.445 301.002 168.24 298.924L167.549 298.576V298.576C167.628 298.571 167.711 298.557 167.796 298.532C170.263 297.797 172.71 296.665 175.129 295.711C177.374 294.827 179.897 294.271 181.995 292.935C182.157 292.832 182.066 292.555 181.909 292.542C179.55 292.34 176.99 293.189 174.677 293.688L173.809 293.876C172.353 294.192 170.866 294.533 169.417 294.977C169.365 294.378 169.094 293.777 168.708 293.424C164.465 289.545 164.896 281.71 164.442 275.932L164.105 271.643C163.513 264.136 162.887 256.63 161.936 249.18C161.885 248.782 161.386 248.896 161.384 249.271C161.335 258.507 161.9 267.701 162.183 276.922L162.227 278.435C162.383 284.125 162.506 290.034 165.409 294.412C165.003 294.119 164.454 294.119 164.125 294.602C163.721 295.196 163.488 295.862 163.495 296.516C160.872 295.159 158.26 293.766 155.661 292.344C147.304 287.774 139.122 282.66 131.157 277.127C130.3 276.531 129.485 276.999 129.061 277.784L129 277.773C128.99 277.772 128.98 277.77 128.969 277.77L128.908 277.767C128.906 277.767 128.904 277.767 128.902 277.767C127.78 277.007 126.253 277.548 125.291 278.657C125.262 278.691 125.238 278.727 125.213 278.762C123.995 278.087 122.857 277.176 121.825 276.021C119.713 273.658 117.924 270.736 116.364 267.806C113.492 262.409 111.052 256.408 107.172 251.966C104.019 248.356 100.111 246.109 96.0103 244.699C96.0274 244.551 95.9816 244.393 95.8988 244.288C95.6882 244.022 95.5379 243.93 95.2658 244.091C95.2442 244.105 95.2312 244.123 95.2223 244.142L94.8222 243.298C94.6038 242.84 94.3795 242.379 94.3018 242.258C93.8363 241.534 93.3571 240.816 92.8707 240.113C92.0461 238.923 91.1063 237.749 90.0181 236.923C87.6356 235.116 85.1309 236.139 82.6814 237.126C81.2013 237.723 79.7262 238.339 78.2487 238.945L78.0963 239.007C76.9946 239.444 75.7055 239.826 75.2128 241.266C75.0178 241.837 74.9876 242.428 75.0785 243.002C64.6149 239.718 52.9931 241.227 42.7824 245.083C42.3905 245.231 41.9991 245.628 41.9166 246.151C40.7467 253.557 40.2256 261.152 40.755 268.684C41.2117 275.186 42.3788 281.557 44.5781 287.51L44.7031 287.846C46.7699 293.362 50.0458 300.162 55.0486 301.891C58.0694 302.935 61.4105 302.32 64.4915 302.129C67.4857 301.943 70.5463 301.916 73.5122 301.334C76.1536 300.817 78.468 299.355 80.1004 296.704C81.5086 294.417 82.2501 291.653 82.8576 288.903C83.1357 289.012 83.412 289.128 83.6839 289.26C84.8314 289.813 85.8037 290.706 86.6828 291.757C88.5391 293.976 89.9791 296.671 91.9213 298.788C93.6795 300.705 95.6829 302.196 97.832 303.342C102.285 305.717 107.062 306.667 111.772 307.925L112.101 308.014C115.647 308.974 119.266 310.153 122.396 312.432C122.457 313.103 122.705 313.734 123.102 314.148C122.55 314.788 122.316 315.801 122.801 316.752C124.156 319.406 126.49 320.917 128.586 322.614L128.722 322.725C130.783 324.412 132.862 326.065 134.959 327.685C139.22 330.978 143.57 334.09 147.982 337.065C155.078 341.85 162.326 346.364 169.706 350.458C169.263 353.148 169.425 355.922 169.092 358.629L169.041 359.016C168.898 360.021 169.091 360.862 169.651 361.518L169.711 361.585L169.71 361.576L169.762 361.636L169.78 361.654L169.774 361.648C169.839 361.721 169.905 361.789 169.973 361.848L170.06 361.916V361.916C170.6 362.322 171.295 362.317 171.848 361.959L171.911 361.916L172.018 361.841C172.748 361.322 173.252 360.037 172.949 359.016C172.204 356.506 171.923 353.828 171.235 351.301L171.78 351.603V351.603L172.5 351.99C180.28 356.142 188.922 359.639 197.399 356.808C201.144 355.557 204.645 352.91 206.519 348.597C208.363 344.352 208.623 339.423 208.721 334.702C208.842 328.874 208.589 322.957 207.966 317.18C207.549 313.301 207.043 309.35 206.264 305.512C206.665 305.075 206.959 304.448 207.037 303.672C207.405 300.007 206.761 296.196 206.367 292.549C205.982 288.988 205.556 285.434 205.075 281.892C204.104 274.737 202.975 267.598 201.661 260.527C199.322 247.943 196.233 235.583 192.515 223.518L192.189 222.467C188.753 211.439 184.775 200.647 179.235 190.959C176.585 186.324 173.784 182.122 170.039 178.782C166.531 175.653 162.575 173.4 158.491 171.677C154.403 169.954 150.202 168.799 145.926 168.081C141.583 167.351 136.999 166.904 132.949 164.705C133.461 163.571 133.021 162.04 132.159 161.337C129.256 158.97 126.573 155.891 123.971 153.045ZM31.0623 255.972C30.9407 255.744 30.6519 255.888 30.7053 256.157C32.1168 263.296 33.442 270.449 34.3072 277.724C35.8692 290.854 35.5819 304.155 35.4542 317.382L35.4478 318.066C35.3821 325.191 35.291 332.316 35.1001 339.438C35.0038 343.037 34.8132 346.672 34.9168 350.273C34.9733 352.227 35.3952 354.074 35.5446 356.005C35.6756 357.692 35.5589 359.406 35.4936 361.096C35.4498 362.22 36.7935 362.172 36.8849 361.096L37.0017 359.705C37.1535 357.944 37.3412 356.194 37.8087 354.508C38.3709 352.481 38.6407 350.49 38.8357 348.361C39.1344 345.1 39.2673 341.806 39.3826 338.521L39.4614 336.249C39.9429 322.523 39.926 308.733 39.1466 295.021L39.0896 294.042C38.3178 281.081 36.9786 267.077 31.0623 255.972ZM61.1517 174.283C61.5204 174.096 61.3913 173.408 60.983 173.528L60.2405 173.747C54.7997 175.355 49.4577 177.098 44.3794 180.091C39.2979 183.086 34.9957 187.558 31.5773 193.056C24.9321 203.744 22.1706 216.732 19.9907 229.709C17.568 244.128 15.3622 258.6 12.9184 273.015L12.4646 275.7C10.2034 289.126 8.06845 302.559 6.49536 316.143L6.38236 317.129C4.79601 331.098 3.84182 345.551 5.5728 359.557C5.91521 362.328 9.65078 361.638 9.5047 358.901C9.08287 350.986 8.78081 343.113 9.07271 335.181C9.36487 327.248 9.96768 319.349 10.8663 311.484C11.6225 304.866 12.7498 298.331 13.7474 291.765L13.9038 290.728C14.7391 285.144 15.6003 279.565 16.4595 273.986L17.7436 265.633C19.6682 253.125 21.6304 240.607 23.8476 228.178L23.9791 227.447C26.1489 215.489 29.3478 202.963 35.8563 193.468C42.4611 183.831 51.9162 178.978 61.1517 174.283ZM85.1512 301.116C84.9924 300.679 84.4367 300.727 84.2659 301.116C83.5966 302.64 83.5222 304.586 83.3957 306.307L83.3824 306.484C83.2215 308.584 83.079 310.69 82.9918 312.797C82.8264 316.795 82.7473 320.788 82.7574 324.792C82.7679 328.894 82.8348 332.992 83.0139 337.089L83.0625 338.186C83.2261 341.746 83.5004 345.717 84.8708 348.829C85.3689 349.961 86.7237 349.628 87.0122 348.484C87.9575 344.737 87.4721 340.295 87.2297 336.458L87.0414 333.464C86.855 330.47 86.6772 327.474 86.5362 324.476C86.343 320.375 86.1837 316.269 86.0303 312.166C85.9805 310.833 85.9266 309.5 85.8697 308.167L85.7821 306.168C85.7074 304.496 85.7137 302.661 85.1512 301.116ZM191.429 306.425L191.011 305.926C189.726 304.375 188.103 301.985 186.204 302.133C185.447 302.192 184.965 302.968 185.122 303.888C185.457 305.854 187.081 306.874 188.251 308.074C189.532 309.388 190.739 310.793 191.945 312.212C193.014 313.469 194.042 314.763 195.045 316.097L195.421 316.599C195.78 317.083 198.342 319.943 198.065 320.685L198.05 320.719C197.973 320.861 198.101 321.056 198.229 321.006C199.335 320.575 199.266 319.405 198.848 318.219C198.044 315.941 196.637 313.833 195.408 311.887C194.183 309.947 192.856 308.139 191.429 306.425V306.425ZM81.143 249.292C81.9983 246.796 85.1493 246.849 86.9382 246.998C91.443 247.373 96.317 248.78 100.325 251.379C104.481 254.074 107.28 258.391 109.784 263.165L109.902 263.389C112.343 268.073 114.694 273.618 118.516 276.839C120.463 278.48 122.737 279.978 125.099 280.627C125.261 280.979 125.524 281.257 125.869 281.359L126.029 281.404C126.701 281.587 127.747 281.79 128.65 281.669C128.644 282.214 128.648 282.755 128.637 283.271C128.605 284.752 128.592 286.238 128.592 287.719C128.591 290.823 128.726 293.932 128.621 297.035C128.528 299.78 128.214 302.647 127.147 305.101C126.364 306.901 125.33 308.092 124.083 309.229C121.014 306.92 117.544 305.513 114.022 304.455C109.762 303.176 105.401 302.322 101.238 300.586C99.2347 299.751 97.3086 298.658 95.5634 297.173C93.7113 295.597 92.2966 293.464 90.841 291.377L90.6135 291.053C89.128 288.95 87.5071 286.938 85.4076 285.798C83.5997 284.816 81.2169 284.641 79.6361 283.121C78.8096 282.326 78.7403 281.172 78.6534 279.99C79.6658 280.169 80.7375 279.883 81.7465 279.737L82.2693 279.661C83.2235 279.521 84.1556 279.367 85.0949 279.068C85.2694 279.012 85.2694 278.687 85.0949 278.632C83.9849 278.278 82.8847 278.127 81.7465 277.963L81.4792 277.921C80.4496 277.755 79.3673 277.503 78.3573 277.783C78.1761 276.932 77.9144 276.119 77.5472 275.305C77.0319 274.162 76.0567 272.866 75.925 271.53C75.8857 271.131 75.9609 270.661 76.1132 270.309L76.1657 270.188C76.2298 270.046 76.3056 269.904 76.4166 269.815C76.4288 269.833 76.4549 269.853 76.5114 269.875C77.2886 270.177 77.9667 269.707 78.3266 268.984C79.8543 269.218 81.5216 269.139 82.9542 269.217L84.4028 269.303C85.9506 269.391 87.5687 269.429 89.0232 269.043C89.2263 268.99 89.2877 268.573 89.0844 268.465C87.2963 267.521 85.1272 267.22 83.2128 266.857C82.1436 266.655 81.0667 266.5 79.9944 266.322C79.2804 266.203 78.5226 266.007 77.7829 265.959C75.9281 263.109 76.9275 258.613 79.5087 257.386C80.449 257.896 81.2945 257.6 82.3217 257.491C83.3472 257.382 84.3752 257.308 85.4048 257.314C87.4679 257.325 89.6541 257.995 91.6971 257.707C92.0294 257.659 92.3382 257.114 92.0078 256.781C90.4439 255.205 88.2026 254.692 86.2175 254.356L85.806 254.288C85.1405 254.18 84.3312 254.023 83.4917 253.93C83.3019 253.472 82.9613 253.127 82.4496 253.041C82.2975 253.015 82.1447 253 81.9921 252.984L81.9944 252.966V252.966C80.7466 252.892 80.8008 250.29 81.143 249.292ZM166.569 297.963C166.591 298.005 166.615 298.045 166.641 298.084L166.681 298.14L166.476 298.037L166.569 297.963V297.963ZM59.3685 243.715C64.6206 243.019 69.8803 243.166 75.148 243.353C75.5693 245.054 77.0358 246.503 78.4568 246.558C77.3439 248.649 77.229 251.479 78.0094 253.696C76.3525 254.51 74.9251 255.973 74.0585 258.056C72.8568 260.943 73.0141 264.156 74.2017 266.824C73.188 267.957 72.5899 269.797 72.6498 271.53C72.7167 273.464 73.6502 275.115 74.4259 276.716C75.2641 278.447 75.2922 279.971 75.5498 281.91C75.9265 284.747 77.4769 286.468 79.4718 287.543L79.3657 288.058C78.8514 290.529 78.2115 293.137 76.7416 294.944C74.8506 297.268 71.9172 297.247 69.4188 297.394L69.2983 297.401C67.0106 297.542 64.7239 297.708 62.437 297.868L60.7218 297.986C58.0887 298.165 55.56 298.186 53.4105 296.038C49.9012 292.53 47.4955 286.726 45.9727 281.587C42.7767 270.802 42.7384 258.965 44.2054 247.732C49.1255 245.775 54.2305 244.397 59.3685 243.715ZM103.046 261.61L103.008 261.613C101.926 261.765 101.183 262.846 100.919 264.128C100.534 265.992 100.723 267.677 99.7983 269.359C98.8471 271.089 98.2623 272.474 98.124 274.611C98.0672 275.491 98.0933 276.368 97.9347 277.229L97.8197 277.832C97.6976 278.475 97.5977 279.094 97.6584 279.784C97.7139 280.414 97.9623 280.905 98.474 281.106C100.141 281.765 101.429 280.248 101.859 278.33C102.231 276.674 101.735 274.7 102.26 273.144C102.55 272.282 103.087 271.56 103.39 270.692C103.69 269.832 103.841 268.933 103.889 267.997C103.98 266.228 102.713 264.103 103.42 262.5C103.571 262.158 103.4 261.599 103.046 261.61ZM125.193 243.353C124.064 243.07 122.783 242.421 121.67 242.96C121.098 243.238 120.815 244.1 121.298 244.698C122.138 245.737 123.358 245.795 124.489 246.04L124.588 246.062C125.925 246.368 127.265 246.657 128.606 246.932C131.13 247.448 133.659 247.904 136.197 248.291C138.804 248.689 141.419 249.044 144.037 249.311L145.05 249.413C147.262 249.632 149.563 249.796 151.733 249.378C152.048 249.318 151.997 248.751 151.733 248.652C149.355 247.763 146.748 247.525 144.29 247.15C141.678 246.749 139.069 246.327 136.468 245.825C133.87 245.325 131.276 244.787 128.692 244.193C127.524 243.925 126.357 243.645 125.193 243.353ZM84.4538 240.502C85.4446 240.069 86.5346 239.427 87.6082 239.642C89.4596 240.012 91.1074 242.239 92.5728 243.705L91.837 243.529C88.0719 242.635 83.086 241.673 79.9254 244.628C79.9173 244.611 79.9111 244.594 79.9019 244.577C79.6468 244.099 79.3512 243.725 79.0286 243.316C78.9978 243.28 78.968 243.243 78.9386 243.206L78.7646 242.977L79.1627 242.807C80.0154 242.434 81.0256 241.954 81.1853 241.884L81.1964 241.879C82.2835 241.425 83.3719 240.975 84.4538 240.502ZM115.389 143.087C115.544 140.627 112.442 140.648 112.289 143.087C111.953 148.413 112.924 153.689 115.014 158.358C115.03 158.392 115.047 158.422 115.063 158.454C113.756 159.294 112.434 160.099 111.082 160.819C109.353 161.74 107.592 162.579 105.799 163.291C104.178 163.935 102.18 164.189 100.816 165.53C97.9412 168.356 99.0213 174.22 99.5744 178.022L99.6607 178.622C99.9361 180.578 100.135 182.585 99.4671 184.462C98.7537 186.468 97.3108 187.955 96.0237 189.39L95.7638 189.681C94.6235 190.963 93.3206 192.521 92.4842 194.26C91.7208 192.311 90.68 190.719 89.5796 188.926C88.7945 187.647 89.3533 187.225 89.9173 185.976C90.4602 184.773 90.7253 183.491 90.5555 182.119C90.2423 179.585 88.6015 177.754 86.9684 176.379C85.0396 174.755 82.887 173.552 80.8932 172.042C76.7962 168.939 72.8062 165.391 69.2115 161.451C69.1123 161.342 68.9404 161.485 69.0198 161.633C71.8594 166.965 75.189 171.572 79.2811 175.482C80.9403 177.068 82.6834 178.383 84.4381 179.766L84.9425 180.165C85.6471 180.729 86.5259 181.482 86.8444 182.441C87.1649 183.405 86.4814 184.134 86.1135 184.933C84.9451 187.47 85.5088 189.838 86.894 191.99L86.9585 192.089C88.3349 194.183 89.378 196.13 89.8769 198.805C90.9489 204.551 89.4558 210.536 87.8928 215.93L87.831 216.143C86.9855 219.05 86.0869 221.937 85.3524 224.891L85.1503 225.708C84.4847 228.426 83.9397 231.107 84.6863 233.901C84.9402 234.851 85.9903 235.076 86.4265 234.182C87.9651 231.027 88.3487 227.231 89.3132 223.763C90.2532 220.383 91.3325 217.064 92.2405 213.67C93.4097 209.3 94.1921 204.597 93.7674 200.013C93.7799 199.986 93.7937 199.961 93.8041 199.933L94.1018 199.13C94.9133 196.954 95.6972 195.053 97.1731 193.319C98.7125 191.51 100.383 189.908 101.595 187.718C104.226 182.96 102.599 177.668 102.281 172.466L102.245 171.828C102.187 170.748 102.155 169.281 102.727 168.533C103.37 167.692 104.877 167.477 105.73 167.104C107.935 166.141 110.107 165.019 112.176 163.672C114.146 162.389 116.054 160.973 117.83 159.313L118.731 158.477C120.151 157.154 121.624 155.709 122.576 153.908C122.686 153.7 122.5 153.366 122.301 153.465C120.711 154.261 119.259 155.528 117.772 156.63C117.749 156.562 117.722 156.495 117.691 156.426C115.851 152.316 115.095 147.762 115.389 143.087ZM64.6168 171.249C63.9835 169.105 61.0973 169.271 61.2124 171.817C61.3007 173.774 61.9737 175.54 62.5891 177.317L62.6547 177.507C63.2901 179.358 64.0239 181.096 64.9019 182.793C66.5796 186.036 68.5448 189.046 70.6438 191.886C72.5467 194.461 75.0444 196.036 77.9225 195.774C79.1352 195.664 80.3593 195.283 81.4219 194.536C82.684 193.647 84.0547 190.98 85.665 191.626C85.8207 191.688 85.966 191.407 85.8314 191.273C83.9725 189.425 81.8625 192.29 80.0827 192.981C77.401 194.021 74.6489 192.871 72.9228 190.195C71.1206 187.401 69.4619 184.272 67.9472 181.23C67.178 179.685 66.4762 178.082 65.8701 176.43C65.2584 174.762 65.1193 172.949 64.6168 171.249ZM68.9396 158.057C69.0177 157.761 68.7199 157.479 68.5092 157.648C67.2877 158.63 66.2292 159.927 65.1025 161.064C63.8524 162.325 62.5931 163.56 61.3143 164.777C59.4502 166.551 61.6122 169.816 63.2532 167.879C65.4988 165.228 67.9582 161.762 68.9396 158.057ZM75.646 147.681C75.1498 145.319 72.2148 146.293 72.6425 148.628L72.6565 148.699C73.4666 152.555 72.3128 156.481 69.8498 158.98L69.7591 159.071C68.2009 160.61 70.4085 163.301 71.9513 161.777C75.3195 158.45 76.7207 152.797 75.646 147.681Z" fill="#594A4E"/>
</g>
<path fill-rule="evenodd" clip-rule="evenodd" d="M33.2862 122.451C34.4482 120.761 37.2464 108.5 39.0338 106.614C38.899 99.371 36.8624 74.2934 42.6795 63.0204C41.4559 61.8038 38.2042 51.3255 39.0338 47.3643C36.2934 39.0686 53.8985 25.8929 60.5987 22.3325C91.7383 5.91555 136.862 24.037 151.024 54.4491C159.534 72.7644 159.691 93.2705 160.653 112.978C160.767 117.196 161.161 121.447 161.156 125.661C160.541 129.363 157.555 133.133 159.819 136.212C162.319 137.912 167.373 142.054 165.123 144.403C163.804 145.483 161.698 144.857 160.267 145.894C159.538 146.295 159.084 147.173 158.232 147.307C150.45 147.016 144.958 146.991 137.152 146.681C133.734 146.571 128.531 147.992 124.608 145.163C110.907 152.656 116.638 141.786 113.867 134.046C105.43 136.851 88.6232 145.795 79.63 146.084C72.3218 146.972 65.488 142.787 58.3032 143.74C49.3774 147 38.9169 147.725 30.7409 142.209C28.7006 140.764 26.4305 142.438 23.8589 140.878C18.8609 138.527 30.7638 125.058 33.2862 122.451Z" fill="white"/>
<path fill-rule="evenodd" clip-rule="evenodd" d="M43.4865 62.0584C43.5973 61.4327 42.7205 60.9661 42.3813 61.6001C39.9173 66.2063 38.9302 71.5407 38.0575 76.6285C37.176 81.7698 36.5935 86.9325 36.5612 92.1517C36.5366 96.1664 36.9074 100.227 37.6037 104.245L37.519 104.531V104.531C37.3626 105.056 37.2048 105.581 37.0453 106.105L36.8048 106.892C36.3399 108.401 35.8995 109.918 35.422 111.424C34.425 114.567 33.3751 117.719 32.0894 120.761C30.8346 123.729 29.3087 126.591 27.495 129.266C25.7468 131.845 22.9727 134.026 21.7411 136.891C21.3119 137.889 21.9466 139.208 23.1322 139.049C23.2093 139.14 23.3268 139.206 23.4863 139.22C24.4068 139.299 25.2696 139.224 26.188 139.139C26.7008 139.092 26.6999 138.403 26.188 138.356C25.7979 138.32 25.4179 138.288 25.0383 138.266C27.665 136.736 29.5389 133.748 31.0372 131.302C32.9627 128.159 34.417 124.725 35.6026 121.253C36.8201 117.687 37.6822 114.048 38.375 110.352C38.4544 109.927 38.5301 109.501 38.6028 109.075C39.4781 112.733 40.6053 116.325 41.9413 119.776L42.1285 120.257C45.2082 128.106 49.3793 136.031 56.3169 141.219C56.6318 141.454 56.9534 141.678 57.2776 141.896L56.8829 142.119C56.4901 142.339 56.1031 142.551 55.7247 142.724C54.3229 143.367 52.8011 143.858 51.2957 144.205C48.1864 144.923 44.9212 144.717 41.7492 144.817C40.7088 144.85 40.1169 146.384 41.1805 146.882C44.6841 148.522 48.4682 148.174 52.0846 147.02C53.874 146.448 55.5532 145.648 57.1067 144.604C57.749 144.173 58.4948 143.64 59.1245 143.024C66.0627 146.841 74.6863 147.268 82.4087 145.903C86.4218 145.193 90.3105 143.898 93.732 141.682C97.023 139.551 99.3689 136.852 101.044 133.356C101.192 133.046 100.779 132.661 100.526 132.963C95.2649 139.245 86.2116 141.866 78.247 142.365C73.9974 142.631 69.6501 142.41 65.5644 141.16C61.6885 139.974 58.3629 137.799 55.5861 134.908C49.9577 129.046 46.5852 121.072 44.1631 113.483C41.5282 105.228 40.2735 96.5417 40.0146 87.9018C39.8836 83.5246 40.0486 79.1104 40.7478 74.7815C41.4414 70.4884 42.7287 66.3334 43.4865 62.0584ZM122.361 24.8686C121.989 24.6824 121.726 25.1669 122.042 25.4052C128.602 30.3515 134.477 36.6232 139.232 43.2614C148.002 55.5043 153.626 69.6717 156.215 84.3931C157.745 93.0868 158.144 101.912 157.991 110.722C157.931 114.221 157.727 117.71 157.501 121.2L157.246 125.069C157.127 126.871 157.028 128.658 157.105 130.469L157.126 130.887C157.247 132.995 157.036 135.119 157.574 137.175C157.85 138.23 159.362 138.396 159.91 137.475C160.017 137.295 160.117 137.109 160.215 136.922C161.498 138.98 163.16 140.819 165.005 142.463C164.123 142.278 163.233 142.161 162.319 142.268C160.871 142.439 159.571 142.989 158.652 143.953C157.74 143.548 156.801 143.27 155.722 143.264C154.927 143.26 154.331 144.184 154.785 144.87C155.689 146.24 156.952 147.008 158.386 147.767C159.403 148.305 160.616 147.844 160.991 146.781L161.013 146.716C161.435 145.371 163.682 145.588 164.742 145.796L165.054 145.859C167.027 146.263 168.954 146.779 170.965 146.246C172.261 145.903 172.6 143.984 171.35 143.347C167.401 141.335 164.086 138.632 160.679 135.919C161.432 134.106 161.859 132.08 162.351 130.236C163.045 127.641 163.247 124.849 163.497 122.183C163.973 117.114 164.155 111.991 164.104 106.903C163.931 89.7163 160.941 72.4767 153.305 56.914C149.959 50.0966 145.564 43.7882 140.369 38.2044C135.205 32.6535 129.173 28.2702 122.361 24.8686ZM128.475 109.034C128.678 108.758 128.282 108.393 128.005 108.572C122.001 112.449 117.834 118.337 115.146 124.805C112.484 131.209 110.85 139.052 113.475 145.73C113.893 146.793 115.893 147.188 116.098 145.73C117.013 139.217 117.155 132.695 119.167 126.363C121.162 120.087 124.575 114.339 128.475 109.034ZM133.131 130.177C133.098 130.062 132.907 130.082 132.915 130.206C133.065 132.503 133.167 134.827 133.461 137.111C133.604 138.221 133.793 139.324 133.953 140.431C134.118 141.567 134.093 142.714 134.765 143.683C135.655 144.969 138.019 144.607 137.94 142.838C137.885 141.617 137.315 140.834 136.78 139.763C136.437 139.076 136.139 138.366 135.851 137.653L135.423 136.583C134.572 134.461 133.758 132.375 133.131 130.177ZM143.882 124.094C143.846 123.913 143.55 123.957 143.558 124.137C143.719 127.387 144.092 130.601 144.676 133.804C144.942 135.264 145.252 136.716 145.581 138.164L145.722 138.784C146.074 140.309 146.3 142.101 147.087 143.463C147.873 144.825 149.74 143.836 149.498 142.464C149.216 140.862 148.216 139.25 147.634 137.712C147.098 136.292 146.629 134.846 146.191 133.394C145.268 130.336 144.511 127.222 143.882 124.094ZM123.861 133.118L123.791 133.048C123.517 132.756 123.11 132.95 122.979 133.258C122.445 134.521 122.713 136.01 122.751 137.351L122.758 137.643C122.786 139.001 122.767 140.273 123.393 141.526C124.153 143.048 126.157 142.103 126.312 140.749C126.482 139.271 125.771 137.825 125.312 136.441C125.02 135.561 124.807 134.646 124.364 133.848C124.743 133.912 125.122 134.041 125.469 134.134C125.624 134.175 125.683 133.951 125.534 133.899C124.961 133.699 124.314 133.55 123.861 133.118V133.118ZM43.928 137.599C44.1113 137.398 43.8829 137.129 43.6451 137.238C40.7898 138.549 38.1191 139.402 34.9685 139.682C33.6032 139.803 33.5947 141.911 34.9685 141.789C38.2566 141.498 41.7027 140.049 43.928 137.599ZM144.387 93.3009C141.873 87.7413 133.92 82.8095 128.587 87.9797C128.487 88.0763 128.589 88.287 128.734 88.2279C132.051 86.8764 136.112 88.5954 138.408 91.0539C140.229 93.004 141.323 95.5081 141.541 98.1474C141.758 100.789 141.115 103.546 139.331 105.589C138.395 106.661 137.131 107.676 135.643 107.805C134.142 107.935 132.89 106.895 131.47 106.612C130.4 106.4 129.592 107.06 129.487 108.097C129.255 110.387 131.574 111.923 133.583 112.296C135.745 112.698 137.951 112.259 139.814 111.107C145.83 107.388 147.128 99.3649 144.387 93.3009ZM87.9401 38.8084C86.8469 37.7812 84.9874 38.8024 85.3908 40.2677C86.2485 43.3863 88.0717 46.0221 90.0916 48.5239C92.0349 50.9309 94.1169 53.2439 96.3485 55.3967C98.5653 57.5353 100.974 59.5142 103.505 61.2819L104.268 61.8129C106.062 63.0563 107.962 64.3137 109.97 65.2093C110.455 69.3165 111.404 73.3689 112.839 77.2487C114.222 80.9847 115.98 84.5953 118.112 87.9741L118.418 88.4581C120.376 91.5439 122.731 94.9927 126.055 96.6843C126.154 96.7353 126.254 96.7664 126.353 96.7846C125.609 97.272 124.981 97.885 124.608 98.7659C124.198 99.7303 125.054 100.64 125.874 100.959C127.608 101.632 129.299 100.492 130.858 99.2757C130.924 99.4216 130.986 99.5689 131.039 99.7173C131.388 100.689 131.491 101.681 132.389 102.326C132.817 102.632 133.343 102.358 133.612 102.011C134.493 100.873 133.581 99.3216 132.806 98.3912C132.698 98.2626 132.588 98.1404 132.474 98.0231C132.801 97.7865 133.121 97.5766 133.43 97.4155C135.25 96.4678 137.949 96.2998 138.997 98.3978C139.077 98.5589 139.329 98.4756 139.329 98.309C139.327 95.732 136.642 94.3324 134.312 94.1422C132.609 94.0033 130.963 94.5902 129.43 95.2737L129.145 95.4029C128.574 95.6631 127.987 95.9087 127.425 96.1834C127.516 95.9462 127.515 95.6672 127.371 95.3905C125.608 92.007 122.582 89.2556 120.4 86.122C118.236 83.0132 116.378 79.6862 114.895 76.2123C113.456 72.8403 112.328 69.3626 111.539 65.8154C111.799 65.8682 112.092 65.6407 112.073 65.3741C112.029 64.7291 111.708 64.148 111.145 63.9004C110.524 60.564 110.207 57.171 110.225 53.7506C110.227 53.4854 109.836 53.4949 109.813 53.7506C109.539 56.7917 109.516 59.8624 109.747 62.9153C108.281 61.5889 106.734 60.3279 105.322 58.9663C103.198 56.9176 101.143 54.8142 99.1599 52.6326C97.1371 50.4069 95.2251 48.0994 93.4767 45.6578L92.5617 44.3774C91.1549 42.4145 89.7098 40.4721 87.9401 38.8084ZM90.6986 16.8959C78.6333 16.1554 65.7478 17.6133 54.9102 23.1815C48.9582 26.2392 44.3577 30.8609 41.0705 36.6125C39.1078 40.047 37.6188 43.8501 37.0548 47.7601C36.4755 51.7777 37.1556 55.3601 39.7647 58.5536C40.8011 59.8218 42.5465 58.4051 42.2912 57.1076C40.7292 49.1687 43.2627 41.3249 47.756 34.7525C54.2761 25.2152 65.6627 20.9786 76.7491 19.0887C82.1961 18.1606 87.7206 17.7726 93.2467 17.9614C97.4597 18.1055 101.781 18.4915 105.78 19.885C105.948 19.9438 106.015 19.6856 105.853 19.6248C101.084 17.834 95.76 17.2066 90.6986 16.8959ZM72.8047 34.8473C72.1835 34.4603 71.4236 34.8574 71.2102 35.4855C70.4574 37.6996 72.0351 40.6248 73.0905 42.5409C74.2849 44.7092 75.8207 46.7366 77.4067 48.6409C80.5796 52.4495 84.7498 55.6275 89.326 57.6249C89.6062 57.7474 89.9328 57.4148 89.6757 57.1796C86.1349 53.9379 82.9246 50.4625 80.1454 46.5637C78.7799 44.6479 77.6409 42.6268 76.5533 40.5507C75.58 38.6928 74.6648 36.0066 72.8047 34.8473ZM52.5129 37.4556C52.1159 36.0929 49.8551 36.3249 49.9486 37.7969C50.1905 41.5994 52.0151 45.4164 53.9977 48.6391C56.0393 51.9574 58.6247 54.9146 61.5882 57.4685C61.7342 57.5945 61.9341 57.4005 61.8019 57.2584C59.245 54.5064 57.1797 51.3717 55.6503 47.9603C54.1226 44.5538 53.546 40.9994 52.5129 37.4556ZM63.7495 36.84C63.3171 35.6551 61.2474 35.743 61.3743 37.1561C61.7232 41.0408 64.0421 45.112 66.1897 48.3205C68.4688 51.7248 71.3778 54.7237 74.6289 57.2425C74.7506 57.3368 74.9227 57.1806 74.8039 57.0705C71.8838 54.3655 69.5156 51.2408 67.6409 47.7556C66.684 45.9773 65.8813 44.1254 65.2475 42.2125C64.6612 40.4428 64.3859 38.5843 63.7495 36.84Z" fill="#594A4E"/>
<path fill-rule="evenodd" clip-rule="evenodd" d="M76.3548 125.069C78.6534 124.252 80.7043 122.888 82.2037 121.145C82.725 120.539 82.8602 119.9 82.7508 119.314C82.6279 118.657 82.1816 118.06 81.5729 117.66C80.9624 117.259 80.1987 117.061 79.4603 117.162C78.8187 117.25 78.1801 117.556 77.6746 118.191L77.569 118.319C76.6776 119.37 75.516 120.233 74.1924 120.789C72.9166 121.326 71.4899 121.576 70.0134 121.43C67.2013 121.153 65.2631 119.827 63.203 118.026C62.9477 117.799 62.6921 117.564 62.4354 117.326C62.2732 117.11 62.0482 116.971 61.7984 116.898C61.521 116.817 61.2072 116.822 60.9198 116.909C60.6425 116.994 60.3947 117.153 60.2286 117.366C60.0706 117.568 59.9811 117.818 60.0101 118.106C60.1987 119.972 61.3177 121.638 62.9071 122.946C64.6723 124.399 67.0123 125.404 69.2153 125.756C71.6423 126.144 74.1154 125.866 76.3548 125.069V125.069ZM68.0704 96.2752C65.4883 97.644 61.5539 100.836 64.3317 104.229C67.6014 107.221 72.309 103.79 74.6288 102.239C76.7799 101.037 79.1967 104.129 77.2009 105.533C60.4378 116.356 53.6349 96.6331 66.7644 94.6659C68.21 94.4491 68.7469 95.8518 68.0704 96.2752ZM98.1101 83.6849C97.8248 80.5967 92.4315 79.8954 91.895 82.9513C91.4146 85.6888 91.9802 88.2036 93.3941 90.6682C94.7451 93.0228 98.1407 91.9243 98.3975 89.7802C98.7417 86.9062 98.2876 85.606 98.1101 83.6849ZM57.0555 82.3177C56.3036 81.4589 55.218 80.8726 53.9172 81.2039C49.8533 82.2396 51.0511 87.2711 52.4783 89.7203C53.2539 91.0502 55.7606 91.3875 56.8935 90.2165C58.7399 88.3068 59.6242 84.4931 57.2768 82.612C57.2132 82.5148 57.1424 82.4167 57.0555 82.3177ZM93.4513 70.1717L92.8094 70.0737C90.8234 69.7742 88.3542 69.4863 86.9493 70.8787C86.2042 71.617 85.9478 72.9894 86.9493 73.6961C88.711 74.9396 90.6587 74.4577 92.7698 74.563C94.5096 74.6501 96.1817 74.9011 97.8575 75.3189C101.534 76.2353 104.53 77.9082 107.67 79.7451C108.082 79.9861 108.502 79.5266 108.306 79.1905C106.493 76.0942 102.98 73.5509 99.4619 72.0005C97.584 71.173 95.5289 70.4866 93.4513 70.1717ZM60.7602 68.7847L60.2689 68.8724C54.9219 69.8471 47.9749 71.7941 45.4428 76.3743C45.3463 77.022 45.4483 77.1608 45.5312 77.2515L45.5588 77.2817C45.6271 77.3591 45.6816 77.4659 46.0035 77.554C46.0928 77.5355 46.183 77.5158 46.2742 77.495C47.4349 77.2297 48.3531 76.8643 49.2422 76.4851L50.2061 76.071C51.3244 75.5928 52.4526 75.132 53.6483 74.7918C56.1998 74.066 58.8244 73.5547 61.4896 73.2817C62.0672 73.2225 62.6235 73.0525 63.0623 72.7611C63.4789 72.4845 63.7971 72.1016 63.9422 71.5926C64.1302 70.9338 64.0762 70.4351 63.6709 69.8408C63.3662 69.3945 62.9301 69.0852 62.4294 68.9075C61.919 68.7265 61.3378 68.6838 60.7602 68.7847Z" fill="#594A4E"/>
<path fill-rule="evenodd" clip-rule="evenodd" d="M46.6246 95.9478C49.9896 99.1666 55.6069 100.09 60.0838 98.364C71.579 93.9177 65.9525 80.0494 57.0872 76.3251C55.9797 76.0696 54.5005 75.4632 53.1516 75.3257C53.0297 75.2703 52.7641 75.4307 52.4424 75.279C42.6669 76.2894 40.4408 90.3379 46.6246 95.9478M83.7017 96.7717C87.4757 101.406 94.4921 102.836 100.225 100.681C111.55 96.5523 107.533 84.2545 99.7847 79.4334C83.4168 73.7395 76.6578 88.2272 83.7017 96.7717M108.252 86.5038C108.263 86.4991 108.273 86.4968 108.284 86.4922C108.224 86.4678 108.164 86.4435 108.105 86.4186C108.124 86.4655 108.145 86.512 108.164 86.5589C108.193 86.5402 108.219 86.5184 108.252 86.5038M38.8333 81.4945C39.7573 81.4963 41.0921 81.6369 41.857 82.2304C43.7433 76.341 50.706 70.8904 56.7613 74.8649C61.5297 76.2846 65.0681 79.4331 67.0791 83.619C70.7051 81.6223 76.4067 82.4749 79.5511 85.1154C81.6103 78.816 86.6783 76.6102 92.7106 76.2846C99.2947 75.2862 105.857 81.2058 107.905 85.9547C109.607 85.7753 112.151 85.2737 113.753 86.2464C124.148 83.7227 142.323 82.3312 144.436 83.7334C145.942 84.2684 146.768 87.5593 144.665 87.7369C142.832 87.496 144.879 85.3255 143.031 85.0887C133.186 84.5237 123.628 86.3593 113.887 87.1296C113.017 88.2126 110.207 88.5749 108.708 88.1397C111.069 96.1954 105.972 101.676 98.3352 103.318C86.5098 105.832 76.2216 96.0391 79.3138 85.8528C75.7316 84.203 71.6112 84.2738 67.7088 85.1428C74.2297 107.36 35.5787 106.364 41.6154 82.9916C37.598 84.8416 36.7255 81.8678 38.8333 81.4945" fill="#594A4E"/>
<defs>
<filter id="filter0_d_17_87" x="-2" y="133.857" width="221" height="248.745" filterUnits="userSpaceOnUse" color-interpolation-filters="sRGB">
<feFlood flood-opacity="0" result="BackgroundImageFix"/>
<feColorMatrix in="SourceAlpha" type="matrix" values="0 0 0 0 0 0 0 0 0 0 0 0 0 0 0 0 0 0 127 0" result="hardAlpha"/>
<feOffset dy="4"/>
<feGaussianBlur stdDeviation="2"/>
<feComposite in2="hardAlpha" operator="out"/>
<feColorMatrix type="matrix" values="0 0 0 0 0 0 0 0 0 0 0 0 0 0 0 0 0 0 0.25 0"/>
<feBlend mode="normal" in2="BackgroundImageFix" result="effect1_dropShadow_17_87"/>
<feBlend mode="normal" in="SourceGraphic" in2="effect1_dropShadow_17_87" result="shape"/>
</filter>
</defs>
</svg>
