<svg width="259" height="358" viewBox="0 0 259 358" fill="none" xmlns="http://www.w3.org/2000/svg">
<path fill-rule="evenodd" clip-rule="evenodd" d="M186.642 187.924C184.351 177.964 182.244 173.741 178.174 170.279C174.368 167.041 168.811 164.322 160.703 162.335C152.258 160.68 152.019 155.76 149.901 147.853C149.284 145.475 146.223 144.843 144.902 146.556C144.715 146.331 144.521 146.125 144.32 145.938C144.5 144.804 143.027 141.555 143.077 140.47C143.59 129.151 140.287 123.467 132.043 121.354C130.25 120.894 118.072 120.623 116.324 121.165C108.682 123.534 101.159 131.053 102.31 140.112C99.9114 143.626 97.5636 145.771 93.8626 146.903C85.6263 148.076 77.3907 149.118 69.1522 150.01C53.0256 152.845 37.9055 162.414 27.5713 176.368C26.6181 177.657 26.3428 179.405 27.184 180.779C26.525 183.943 22.8156 191.617 25.7343 193.786C20.9347 206.653 9.89143 231.525 9.87071 238.63C9.78367 268.48 12.6602 307.333 38.9377 323.852C39.9898 325.011 40.1404 326.294 40.5959 328.019C41.7512 333.454 45.9469 337.337 50.5391 337.02C73.1615 337.584 95.0728 334.49 117.696 334.34C127.672 334.274 139.67 335.943 148.337 337.055C157.004 338.168 165.752 337.184 174.069 334.34C174.771 335.578 176.189 336.299 177.627 335.943C186.249 334.023 193.221 328.067 199.294 321.558C201.15 317.774 208.397 306.992 205.516 303.239C208.128 290.865 207.992 277.569 203.351 265.785C204.009 263.625 202.81 261.252 203.351 259.021C203.743 257.407 204.746 256.739 205.251 255.141C205.961 252.892 205.189 249.875 204.389 247.579C204.061 246.435 204.992 245.204 205.251 244.037C206.478 238.532 203.668 239.017 201.642 235.336C201.672 235.325 202.199 232.697 202.197 232.711C202.507 230.835 201.73 228.431 201.052 226.866C200.594 225.807 199.613 225.145 198.637 225.266C199.619 221.529 200.861 218.42 202.197 214.82C204.559 208.474 207.548 202.397 210.94 196.653C212.329 194.3 210.463 191.575 208.216 191.415C200.941 190.897 193.746 189.723 186.642 187.924Z" fill="white"/>
<path fill-rule="evenodd" clip-rule="evenodd" d="M165.411 235.915C162.501 234.636 159.368 233.93 156.219 233.655C157.915 233.322 159.615 233.001 161.329 232.836C162.525 232.721 163.634 232.733 164.532 233.75C165.132 234.427 165.413 235.299 165.807 236.101C165.679 236.036 165.545 235.974 165.411 235.915ZM196.641 223.957C191.876 224.229 187.105 225.499 182.795 227.8C181.031 228.743 179.433 230.104 178.965 232.344C178.729 233.487 178.786 234.669 178.912 235.824C179.007 236.699 179.031 237.816 179.709 238.408C179.825 238.509 179.948 238.585 180.077 238.641C178.487 239.446 176.972 240.412 175.627 241.408C174.397 242.319 173.133 243.721 172.565 245.304C172.518 245.124 172.47 244.956 172.423 244.797C171.456 241.591 169.966 238.966 167.618 237.2C168.034 236.991 168.32 236.496 168.186 235.813C167.629 232.957 165.276 230.476 162.619 230.652C159.71 230.844 156.585 232.031 153.953 233.531C152.994 233.508 152.037 233.523 151.091 233.57C150.928 233.576 150.936 233.823 151.091 233.844C151.859 233.953 152.626 234.074 153.394 234.215C155.218 234.542 157.037 234.958 158.816 235.473C160.95 236.092 163.158 236.714 165.153 237.795C169.022 239.897 171.416 245.39 170.925 250.169C170.843 250.953 170.573 253.322 169.603 253.077C168.783 252.871 168.457 250.953 168.17 250.243C167.403 248.357 166.02 247.125 164.362 246.291C162.414 245.31 160.33 244.647 158.311 243.875C157.168 243.436 156.025 242.997 154.879 242.56C153.707 242.11 152.592 241.488 151.344 241.803C150.589 241.995 150.503 243.002 150.926 243.58C151.57 244.461 152.526 244.72 153.454 245.083C154.679 245.56 155.901 246.038 157.123 246.515C159.013 247.252 160.992 247.873 162.835 248.775L162.777 248.923C162.627 248.875 162.451 249.043 162.48 249.25C162.756 251.156 163.14 253.36 162.714 255.27C162.377 256.785 161.192 258.462 159.652 258.016C159.894 257.769 159.983 257.341 159.82 256.947C159.21 255.485 151.22 249.715 150.508 251.858C150.484 251.934 150.557 251.99 150.616 251.979C151.223 251.837 152.24 252.998 152.726 253.366C153.428 253.897 154.14 254.415 154.834 254.96C155.594 255.556 156.335 256.181 157.058 256.826C157.625 257.333 158.054 257.86 158.705 258.117C158.364 258.299 158.093 258.638 157.978 259.071C157.683 260.2 157.115 261.158 156.13 261.656C155.097 262.174 153.933 261.847 152.844 261.974C151.362 262.142 150.069 262.932 148.989 264.06C146.72 266.435 145.582 270.62 142.41 271.742C140.515 272.412 138.412 271.99 136.493 271.686C134.351 271.348 132.264 271.079 130.106 271.433C128.041 271.772 126.088 272.573 124.201 273.552C122.432 274.468 120.476 275.506 118.907 276.873C118.584 275.756 118.258 274.651 118.01 273.511C117.427 270.815 117.112 268.068 117.035 265.298C116.965 262.661 117.096 260.012 117.298 257.386C117.398 256.074 117.556 254.769 117.656 253.458C117.682 253.128 117.735 252.774 117.774 252.421C120.576 250.567 123.52 249.147 126.487 247.685C126.495 247.682 126.503 247.676 126.511 247.673C126.603 247.626 126.692 247.582 126.784 247.538C126.782 247.532 126.779 247.526 126.774 247.52C127.113 247.287 127.349 246.978 127.491 246.63C131.768 243.45 135.342 239.11 138.007 234.047C139.124 231.925 140.199 229.724 141.661 227.865C143.217 225.882 145.064 224.703 147.351 224.09C150.024 223.371 152.779 222.941 155.517 222.696C157.013 222.564 158.684 222.357 160.314 222.366C161.45 222.375 162.561 222.484 163.581 222.799C165.093 223.265 165.976 224.553 166.925 225.855C167.831 227.105 168.733 228.357 169.579 229.66C170.381 230.894 171.138 232.17 171.795 233.508C172.189 234.309 172.554 235.135 172.862 235.986C172.97 236.287 173.112 236.628 173.177 236.941C173.243 237.256 173.122 237.589 173.438 237.589C172.137 237.61 172.15 239.941 173.443 239.855C178.505 239.525 171.253 228.446 170.194 226.901C168.693 224.715 167.145 221.862 164.743 220.845C164.709 220.831 164.672 220.816 164.638 220.804C165.337 220.062 165.889 219.172 166.417 218.267C166.961 217.336 167.61 216.269 167.789 215.164C167.902 214.46 167.122 214.059 166.751 214.675C166.212 215.574 165.952 216.711 165.55 217.699C165.14 218.7 164.64 219.646 164.246 220.657C163.297 220.33 162.272 220.18 161.229 220.13C162.546 218.132 164.795 214.277 165.066 213.782C166.312 211.489 167.498 209.126 168.63 206.76C169.855 204.196 170.904 201.526 172.076 198.933C172.741 197.463 173.411 195.98 174.15 194.554C174.405 194.065 174.678 193.576 174.988 193.131C175.049 193.043 175.125 192.969 175.196 192.886C175.277 192.836 175.362 192.78 175.409 192.751C175.834 192.477 175.984 191.84 176.284 191.436C176.762 190.786 177.325 190.709 178.045 190.7C179.58 190.682 181.12 190.75 182.653 190.797C184.905 190.868 187.155 190.968 189.405 191.101C190.086 191.142 190.764 191.183 191.445 191.23C194.717 191.449 197.987 191.734 201.248 192.085C204.134 192.394 207.02 192.898 209.909 193.14C205.998 203.557 201.661 213.785 196.751 223.657C196.701 223.757 196.664 223.857 196.641 223.957ZM174.941 250.794C174.31 251.118 173.698 251.522 173.127 251.982C173.222 251.266 173.246 250.511 173.219 249.754C173.69 250.319 174.292 250.643 174.941 250.794ZM201.869 232.875C201.824 232.88 201.782 232.907 201.761 232.957C200.888 234.975 201.253 237.23 202.678 238.812C203.425 239.637 205.052 240.568 204.999 241.924C204.954 243.02 203.89 243.939 203.435 244.844C203.012 245.687 202.854 246.612 203.193 247.526C203.627 248.696 204.839 249.161 205.254 250.311C205.78 251.769 204.925 253.529 204.326 254.798C203.769 255.974 203.048 257.15 202.57 258.394C199.366 260.253 196.499 263.106 194.033 266.002C191.334 269.17 189.019 272.898 184.732 272.804C184.303 272.794 183.977 273.048 183.783 273.399C182.59 273.46 181.394 273.487 180.2 273.493C178.103 273.505 176.006 273.481 173.911 273.407C173.764 272.839 173.871 272.067 173.863 271.586C173.837 270.039 173.824 268.495 173.766 266.948C173.75 266.518 173.735 266.085 173.719 265.654C174.473 267.184 175.945 267.879 177.622 267.773C180.319 267.597 183.031 267.101 185.701 266.656C187.108 266.424 188.511 266.158 189.912 265.875C191.063 265.646 192.688 265.705 193.492 264.67C193.681 264.429 193.692 263.987 193.395 263.824C192.598 263.385 192.096 263.63 191.221 263.819C190.154 264.051 189.084 264.272 188.012 264.479C185.954 264.879 183.891 265.251 181.822 265.578C180.645 265.763 179.464 265.946 178.284 266.091C177.254 266.214 176.092 266.382 175.262 265.513C173.587 263.757 174.526 260.813 175.585 259.039C175.606 259.004 175.606 258.971 175.598 258.942C176.597 258.679 177.593 258.373 178.587 258.158C180.497 257.745 182.421 257.398 184.348 257.088C188.306 256.455 192.291 256.036 196.27 255.615C197.256 255.509 197.266 253.77 196.27 253.873C190.553 254.46 184.808 255.016 179.167 256.251C177.753 256.558 176.35 256.905 174.954 257.297C174.294 257.48 173.587 257.766 172.896 257.775C172.854 257.775 172.812 257.775 172.77 257.772C171.416 257.725 171.219 256.425 171.963 255.344C172.055 255.211 172.15 255.078 172.247 254.952C173.561 253.195 175.198 252.023 176.886 250.808C178.776 250.52 180.66 249.877 182.511 249.406C187.079 248.239 191.647 247.072 196.218 245.908C197.114 245.678 196.733 244.134 195.837 244.361C192.367 245.242 188.898 246.123 185.428 247.004L180.35 248.295C179.336 248.551 178.069 249.067 176.875 249.253C176.287 249.344 175.716 249.356 175.201 249.22C173.538 248.778 173.453 246.447 174.171 245.062C174.975 243.507 176.494 242.534 177.843 241.653C180.179 240.123 182.666 239.024 185.094 237.757C185.525 237.651 185.957 237.545 186.388 237.439C188.895 236.82 191.76 236.517 194.12 235.382C194.827 235.046 194.441 233.797 193.742 233.814C191.91 233.859 189.994 234.589 188.204 235.022C186.267 235.494 184.327 235.963 182.39 236.431C182.195 236.478 181.044 236.891 180.871 236.799C180.76 236.74 180.721 236.311 180.684 236.027C180.565 235.096 180.479 234.118 180.608 233.184C180.892 231.089 182.45 230.104 184.027 229.3C187.539 227.511 191.389 226.392 195.221 225.943C196.105 225.84 196.988 225.776 197.876 225.743C198.919 225.708 199.779 225.501 200.307 226.654C201.138 228.469 201.595 230.803 201.869 232.875ZM196.992 298.689C196.227 295.723 196.435 292.555 195.911 289.529C195.64 287.968 195.271 286.419 194.868 284.895C194.543 283.663 194 282.354 193.938 281.069C193.935 280.983 194.025 280.934 194.087 280.973C195.166 281.666 195.995 283.165 196.611 284.341C197.348 285.748 197.911 287.221 198.364 288.77C199.269 291.856 200.012 295.579 198.845 298.689C198.498 299.615 197.278 299.801 196.992 298.689ZM173.346 259.392C173.992 259.322 174.639 259.183 175.285 259.021C174.563 259.811 173.895 260.763 173.524 261.818C173.467 261.008 173.393 260.2 173.296 259.396C173.311 259.396 173.33 259.396 173.346 259.392ZM167.132 321.149C165.991 320.257 165.161 319.01 164.194 317.909C163.243 316.827 164.729 315.16 165.681 316.242C166.506 317.181 167.222 318.354 168.193 319.113C168.66 319.478 168.876 320.139 168.57 320.726C168.299 321.244 167.598 321.513 167.132 321.149ZM160.773 286.864C162.855 285.855 164.901 284.756 167.08 284.029C168.382 283.594 168.933 285.87 167.639 286.302C165.633 286.972 163.751 287.97 161.834 288.899C160.604 289.495 159.534 287.464 160.773 286.864ZM138.792 286.158C138.283 284.75 140.318 284.143 140.82 285.531C141.397 287.129 142.059 288.686 142.636 290.283C143.145 291.691 141.11 292.298 140.609 290.91C140.031 289.312 139.369 287.756 138.792 286.158ZM117.096 314.276C116.757 314.782 116.192 315.057 115.658 314.699C115.21 314.398 114.937 313.599 115.281 313.086C116.283 311.588 117.298 310.109 118.473 308.774C119.425 307.691 120.911 309.359 119.96 310.441C118.911 311.633 117.992 312.938 117.096 314.276ZM113.994 156.507C114.959 157.246 115.805 158.144 116.629 159.068C117.588 160.142 116.101 161.809 115.142 160.734C114.447 159.956 113.747 159.166 112.933 158.543C112.463 158.182 112.251 157.513 112.556 156.93C112.828 156.408 113.525 156.148 113.994 156.507ZM145.558 194.443C145.013 195.668 144.521 196.869 144.49 198.261C144.457 199.778 142.355 199.779 142.388 198.261C142.428 196.439 143.027 194.859 143.743 193.253C144.348 191.894 146.161 193.089 145.558 194.443ZM157.139 163.975C158.27 163.13 159.321 165.173 158.201 166.011C157.293 166.69 156.384 167.369 155.476 168.048C154.346 168.892 153.294 166.85 154.414 166.012C155.323 165.333 156.231 164.654 157.139 163.975ZM106.907 217.245C106.715 218.744 104.689 218.103 104.88 216.619C105.175 214.326 105.536 212.063 106.091 209.829C106.454 208.368 108.482 208.992 108.119 210.456C107.564 212.69 107.203 214.952 106.907 217.245ZM99.5352 244.25C98.1818 244.218 98.1816 241.86 99.5352 241.892C100.76 241.922 101.964 242.283 103.145 242.613C104.46 242.981 103.899 245.254 102.586 244.887C101.588 244.607 100.571 244.275 99.5352 244.25ZM96.8138 298.648C96.3488 298.901 95.8718 299.13 95.4018 299.371C94.4606 299.853 93.5199 300.336 92.5795 300.82C90.6203 301.829 88.6622 302.84 86.7059 303.855C82.7896 305.888 78.8431 307.849 74.9174 309.859C70.9142 311.909 66.9214 313.987 62.9337 316.075C61.0549 317.058 59.162 318.006 57.2727 318.963C55.6573 319.782 53.6605 321.213 51.8872 321.348C51.796 321.355 51.7655 321.226 51.8175 321.159C52.4875 320.305 53.5562 319.808 54.4367 319.253C55.3361 318.686 56.2524 318.152 57.1644 317.611C59.0658 316.481 60.9695 315.361 62.8892 314.271C66.7293 312.092 70.5767 309.929 74.4249 307.769C78.3495 305.566 82.2692 303.348 86.2283 301.223C88.0923 300.222 89.9582 299.225 91.8251 298.23C92.8365 297.691 93.8484 297.154 94.8604 296.617C95.2975 296.385 95.7301 296.135 96.1769 295.927C96.7707 295.652 97.222 295.708 97.8344 295.538C98.8331 295.262 99.2655 296.686 98.4988 297.306C97.8675 297.816 97.5353 298.253 96.8138 298.648ZM82.7765 322.82C82.5607 322.233 83.0125 321.518 83.5108 321.37C84.1077 321.194 84.5864 321.601 84.8043 322.194C85.3807 323.766 86.2018 325.208 87.2586 326.426C88.2033 327.515 86.7172 329.183 85.7718 328.093C84.4473 326.566 83.4959 324.782 82.7765 322.82ZM72.4494 284.98C71.4908 283.906 72.9779 282.239 73.9362 283.314L76.6613 286.369C77.6199 287.443 76.1325 289.11 75.1745 288.036L72.4494 284.98ZM44.4915 279.999C42.5323 280.644 40.2472 281.236 38.9115 283.11C38.8463 283.201 38.7367 283.084 38.7759 282.992C40.4859 279.018 45.3899 277.624 48.7852 276.231C51.1867 275.246 53.6508 274.429 56.1357 273.7C55.8873 270.522 56.5722 267.115 56.8104 263.953C57.0645 260.577 57.2714 257.191 57.3776 253.804C57.4861 250.349 57.5124 246.871 57.4109 243.415C57.31 239.971 56.9113 236.57 56.7368 233.138C56.7199 232.806 57.1321 232.791 57.2209 233.065C58.2528 236.25 58.6936 239.777 59.0295 243.135C59.3754 246.594 59.4902 250.043 59.4461 253.523C59.4003 257.1 59.2148 260.669 58.9601 264.235C58.8395 265.925 58.6994 267.613 58.5672 269.302C58.4662 270.591 58.4194 271.87 58.185 273.118C59.6837 272.706 61.1858 272.315 62.6832 271.936C67.4579 270.728 72.2525 269.607 77.0072 268.301C79.3412 267.66 81.6418 266.892 83.9653 266.21C86.1531 265.568 88.4624 264.79 90.7086 264.503C91.5103 264.401 91.6122 265.63 91.0816 266.047C89.2559 267.484 86.8313 268.485 84.7225 269.29C82.6062 270.097 80.4062 270.678 78.237 271.275C73.7134 272.523 69.1468 273.543 64.5872 274.605C60.0338 275.666 55.4717 276.719 50.9696 278.029C48.8015 278.659 46.6407 279.292 44.4915 279.999ZM33.7554 216.931C32.5847 217.702 31.5279 215.664 32.6944 214.896C34.2206 213.891 35.8473 213.137 37.4872 212.401C38.7456 211.836 39.2871 214.117 38.0462 214.674C36.5725 215.335 35.1269 216.029 33.7554 216.931ZM29.5164 304.514C28.3426 305.278 27.2849 303.24 28.4553 302.479C30.0991 301.411 31.8993 300.698 33.6027 299.763C34.8147 299.098 35.8791 301.132 34.6638 301.799C32.9606 302.734 31.1602 303.446 29.5164 304.514ZM27.6098 254.798C28.7447 256.007 30.2594 256.576 31.6877 257.211C32.933 257.764 32.3868 260.043 31.1286 259.484C29.3492 258.693 27.5367 257.971 26.1229 256.465C25.1394 255.418 26.6289 253.753 27.6098 254.798ZM40.1657 187.28C41.4134 187.828 40.867 190.107 39.6067 189.553C38.2089 188.938 36.7654 188.471 35.3677 187.856C34.1202 187.307 34.6664 185.028 35.9267 185.582C37.3245 186.197 38.768 186.665 40.1657 187.28ZM62.3157 160.462C63.6415 160.211 64.206 162.483 62.8748 162.735C61.2231 163.048 59.5967 163.413 58.0302 164.093C56.7652 164.642 56.2224 162.361 57.4711 161.82C59.0379 161.14 60.6643 160.774 62.3157 160.462ZM69.6344 225.757C68.4188 225.087 69.4854 223.055 70.6955 223.722C71.9708 224.425 73.292 224.968 74.6835 225.3C76.0084 225.617 75.4441 227.889 74.1244 227.574C72.5585 227.2 71.0684 226.548 69.6344 225.757ZM76.5467 188.977C77.8557 188.575 78.4092 190.85 77.1058 191.251C74.8125 191.955 72.4515 192.321 70.1414 192.948C68.8249 193.305 68.2679 191.031 69.5824 190.675C71.8924 190.048 74.2537 189.682 76.5467 188.977ZM105.87 177.435C107.201 177.711 106.634 179.983 105.312 179.709C103.904 179.416 102.477 179.412 101.049 179.411C99.6939 179.41 99.6963 177.053 101.049 177.053C102.671 177.054 104.272 177.104 105.87 177.435ZM201.506 189.751C198.071 189.383 194.63 189.088 191.184 188.867C191.024 188.858 190.866 188.847 190.706 188.837C190.688 188.796 190.664 188.758 190.64 188.717C189.515 186.866 188.687 185.016 187.97 182.923C187.284 180.931 186.619 178.878 185.562 177.08C184.357 175.032 182.73 173.429 180.947 172.041C179.866 172.856 178.862 173.811 177.943 174.823C176.977 175.887 175.49 174.221 176.457 173.156C177.273 172.256 178.144 171.426 179.064 170.675C178.001 169.951 176.917 169.27 175.858 168.593C171.892 166.056 167.831 163.71 163.686 161.565C161.76 160.566 159.81 159.679 157.846 158.78C156.789 158.297 155.746 157.675 154.69 157.115C154.766 156.278 154.542 155.341 153.969 154.79C153.546 154.386 153.218 154.236 152.713 153.951C152.6 153.906 152.532 153.88 152.5 153.865C152.524 153.871 152.592 153.894 152.705 153.936C152.973 154.074 152.994 154.033 152.768 153.815C152.755 153.338 151.916 152.33 151.725 151.838C151.057 150.149 150.849 148.363 149.864 146.825C148.505 144.706 146.224 143.905 144.097 144.624C143.876 142.075 143.819 139.414 142.962 137.139C142.938 137.077 142.862 137.05 142.828 137.118C141.934 138.825 141.858 140.725 141.79 142.694C141.724 144.541 141.787 146.43 142.002 148.266C141.866 148.384 141.726 148.496 141.582 148.605C140.904 149.106 140.173 149.492 139.406 149.778C137.944 150.32 136.412 150.556 134.88 150.638C130.924 150.85 126.847 150.402 122.957 149.642C119.023 148.873 112.991 147.718 109.49 145.511C107.179 144.055 105.048 142.278 102.887 140.557C103.67 137.728 103.87 134.687 103.082 132.297C102.987 132.011 102.587 131.958 102.511 132.297C102.017 134.578 101.873 136.871 101.215 139.125C101.205 139.157 101.194 139.193 101.184 139.225C100.979 139.069 100.774 138.916 100.569 138.763C100.096 138.412 99.4519 138.674 99.168 139.175C94.6285 147.193 87.4402 147.653 79.8916 149.085C71.6304 150.653 63.3276 152.344 55.3847 155.412C47.7888 158.347 40.5292 162.62 34.7784 169.003C33.4766 170.448 32.2591 171.988 31.11 173.595C32.2218 173.752 33.3244 173.997 34.4128 174.38C35.7015 174.834 35.1477 177.109 33.8537 176.653C32.4549 176.161 31.0406 175.917 29.6118 175.795C25.7042 181.789 22.6574 188.584 20.0228 195.273C14.9692 208.098 11.6798 221.756 10.1661 235.661C10.9972 235.102 11.8433 234.57 12.7104 234.076C13.9152 233.389 14.9779 235.423 13.7717 236.111C12.4323 236.875 11.1313 237.717 9.87071 238.63C9.32007 244.717 9.10664 250.842 9.23596 256.958C9.54348 271.539 11.2992 286.547 15.2707 300.459C17.2183 307.287 19.7993 314.059 23.6446 319.829C25.3846 322.442 27.3611 324.8 29.6899 326.765C30.8174 327.72 32.0107 328.572 33.2697 329.29C34.8914 330.222 37.0046 330.528 38.4029 331.845C38.8629 332.279 39.2177 332.85 39.4858 333.496C39.3307 334.721 39.3123 335.95 39.6119 337.176C39.7066 337.559 39.9641 337.872 40.2822 338.022C40.2874 338.128 40.2874 338.231 40.2874 338.331C40.2874 338.378 40.3505 338.39 40.3584 338.343C40.3715 338.252 40.3847 338.16 40.3978 338.066C40.5003 338.104 40.6081 338.122 40.7185 338.122C44.711 338.139 48.7084 338.03 52.7062 337.878C52.3971 336.816 52.0622 335.764 51.7408 334.702C51.3042 333.26 53.3357 332.647 53.7683 334.075C54.1444 335.317 54.5376 336.547 54.8875 337.793C59.1709 337.614 63.453 337.399 67.7275 337.241C76.819 336.902 85.9079 336.79 95.0018 336.575C109.124 336.24 123.349 335.552 137.494 336.225C137.983 335.061 138.53 333.923 139.049 332.775C139.662 331.42 141.475 332.615 140.865 333.965C140.504 334.763 140.13 335.551 139.775 336.347C142.64 336.514 145.502 336.734 148.358 337.035C153.231 337.547 158.056 338.458 162.924 339.024C167.873 339.601 172.715 339.498 177.625 338.582C178.508 338.417 179.028 337.818 179.244 337.076C179.251 337.073 179.257 337.067 179.262 337.058C179.514 336.728 179.751 336.454 179.995 336.215C180.287 336.004 180.603 335.823 180.973 335.664C181.664 335.37 182.385 335.19 183.115 335.069C183.92 334.934 184.734 334.922 185.539 334.81C186.216 334.713 186.879 334.568 187.541 334.392C188.732 334.073 189.862 333.658 190.987 333.107C191.968 332.626 192.853 331.937 193.689 331.185C195.419 329.768 196.917 327.959 198.226 326.078C198.988 324.979 199.705 323.839 200.357 322.652C201.493 320.594 202.46 318.458 203.438 316.304C203.793 315.666 204.116 315.012 204.412 314.345C202.502 313.713 200.572 313.199 198.547 313.162C197.192 313.138 197.193 310.78 198.547 310.805C200.87 310.846 203.067 311.455 205.251 312.18C205.357 311.863 205.459 311.544 205.554 311.221C205.814 310.546 206.029 309.853 206.208 309.152C206.313 308.834 206.418 308.516 206.523 308.197C206.76 307.095 206.997 305.99 207.236 304.885C207.711 303.117 208.087 301.322 208.363 299.504C208.595 298.308 208.773 297.103 208.894 295.883C209.262 292.927 209.562 289.977 209.583 286.989C209.551 285.147 209.446 283.309 209.267 281.479C209.191 280.235 209.062 278.997 208.889 277.769C208.663 275.942 208.44 274.133 208.064 272.329C207.782 271.109 207.501 269.889 207.22 268.669C206.518 266.126 205.69 263.633 204.736 261.196C204.684 261.043 204.418 260.707 204.258 260.704C204.137 260.701 203.968 260.825 204.024 260.99C204.029 261.004 204.034 261.022 204.04 261.037C203.984 260.898 203.932 260.757 203.877 260.618C203.829 260.489 203.645 260.23 203.503 260.233C203.496 260.233 203.487 260.233 203.477 260.235C203.514 260.206 203.548 260.167 203.582 260.124C204.526 258.871 205.138 257.224 205.814 255.774C206.374 254.577 206.902 253.316 207.054 251.964C207.188 250.776 207.007 249.606 206.342 248.646C205.585 247.552 204.161 247.04 204.952 245.46C205.851 243.662 207.173 242.104 205.856 240.062C205.186 239.021 204.124 238.45 203.335 237.545C202.428 236.499 201.997 235.099 202.021 233.67C202.076 233.705 202.15 233.688 202.176 233.599C202.938 231.018 202.386 228.183 201.606 225.669C201.18 224.305 200.278 223.931 199.23 223.863C203.771 213.918 208.021 203.813 211.809 193.476C211.935 193.137 212.059 192.798 212.182 192.459C212.366 191.952 211.977 191.278 211.528 191.165C208.253 190.361 204.841 190.105 201.506 189.751Z" fill="#594A4E"/>
<path fill-rule="evenodd" clip-rule="evenodd" d="M178.714 114.958C177.633 113.372 175.03 101.861 173.367 100.09C173.492 93.2904 175.387 69.7473 169.975 59.1641C171.113 58.022 174.139 48.1849 173.367 44.4661C175.916 36.678 159.538 24.3085 153.305 20.9659C124.335 5.55359 82.3568 22.5662 69.1821 51.1174C61.2651 68.3119 61.1192 87.5632 60.2241 106.065C60.1183 110.025 59.7515 114.016 59.7556 117.972C60.328 121.447 63.1057 124.987 61 127.877C58.6739 129.473 53.9727 133.362 56.0659 135.567C57.2926 136.581 59.2521 135.993 60.5833 136.967C61.261 137.343 61.6838 138.168 62.4763 138.293C69.7161 138.02 74.825 137.997 82.0872 137.706C85.2664 137.603 90.1073 138.937 93.7565 136.281C106.503 143.315 101.171 133.11 103.749 125.844C111.598 128.477 127.234 136.873 135.6 137.145C142.399 137.978 148.756 134.05 155.44 134.944C163.744 138.005 173.475 138.685 181.082 133.507C182.98 132.151 185.092 133.722 187.484 132.257C192.134 130.051 181.06 117.405 178.714 114.958Z" fill="white"/>
<path fill-rule="evenodd" clip-rule="evenodd" d="M169.224 58.261C169.121 57.6736 169.937 57.2355 170.253 57.8308C172.545 62.155 173.463 67.1631 174.275 71.9395C175.095 76.7663 175.637 81.613 175.667 86.5129C175.69 90.2819 175.345 94.0945 174.697 97.8662L174.776 98.1346V98.1346C174.921 98.6276 175.068 99.1203 175.217 99.6126L175.44 100.351C175.873 101.768 176.283 103.192 176.727 104.606C177.654 107.557 178.631 110.516 179.827 113.371C180.994 116.158 182.414 118.845 184.101 121.357C185.728 123.778 188.308 125.825 189.454 128.514C189.853 129.451 189.263 130.69 188.16 130.54C188.088 130.626 187.979 130.688 187.831 130.701C186.974 130.775 186.172 130.705 185.317 130.625C184.84 130.581 184.841 129.934 185.317 129.89C185.68 129.856 186.034 129.826 186.387 129.806C183.943 128.369 182.2 125.564 180.806 123.267C179.015 120.317 177.662 117.093 176.559 113.833C175.426 110.486 174.624 107.069 173.98 103.599C173.906 103.2 173.835 102.8 173.768 102.4C172.953 105.835 171.905 109.207 170.662 112.447L170.488 112.898C167.623 120.267 163.742 127.707 157.288 132.578C156.995 132.799 156.696 133.008 156.394 133.213L156.762 133.422C157.127 133.629 157.487 133.828 157.839 133.991C159.143 134.594 160.559 135.055 161.959 135.381C164.852 136.055 167.89 135.862 170.841 135.956C171.808 135.986 172.359 137.426 171.37 137.894C168.11 139.434 164.59 139.107 161.226 138.023C159.561 137.487 157.999 136.736 156.553 135.756C155.956 135.351 155.262 134.85 154.676 134.272C148.222 137.856 140.199 138.257 133.015 136.975C129.282 136.309 125.664 135.093 122.481 133.012C119.419 131.011 117.237 128.478 115.679 125.196C115.54 124.905 115.925 124.543 116.161 124.827C121.055 130.725 129.477 133.186 136.887 133.654C140.84 133.904 144.884 133.696 148.685 132.522C152.291 131.409 155.385 129.367 157.968 126.652C163.204 121.15 166.342 113.663 168.595 106.539C171.046 98.7886 172.213 90.6342 172.454 82.523C172.576 78.4136 172.423 74.2696 171.772 70.2056C171.127 66.1752 169.929 62.2744 169.224 58.261ZM95.8468 23.3468C96.1935 23.172 96.4376 23.6269 96.1436 23.8507C90.0407 28.4942 84.5753 34.3822 80.1516 40.6141C71.9936 52.1079 66.7616 65.4084 64.3523 79.229C62.9297 87.3907 62.5583 95.6761 62.7004 103.947C62.7567 107.232 62.9458 110.507 63.1562 113.784L63.3937 117.416C63.504 119.108 63.5961 120.785 63.5249 122.486L63.5055 122.878C63.3926 124.857 63.5886 126.851 63.0885 128.782C62.8318 129.771 61.4248 129.927 60.9154 129.063C60.8156 128.894 60.7223 128.72 60.6317 128.543C59.4377 130.475 57.8914 132.203 56.1756 133.745C56.9957 133.572 57.8237 133.462 58.6738 133.563C60.0214 133.723 61.2301 134.239 62.0854 135.144C62.9344 134.765 63.8074 134.503 64.8113 134.498C65.5506 134.494 66.1051 135.361 65.6832 136.005C64.8416 137.291 63.6672 138.012 62.3327 138.725C61.387 139.23 60.2583 138.798 59.9091 137.799L59.8891 137.739C59.4961 136.475 57.4059 136.679 56.4197 136.875L56.1295 136.934C54.2938 137.313 52.5012 137.798 50.6311 137.297C49.4248 136.975 49.1096 135.173 50.2725 134.575C53.9461 132.686 57.0301 130.149 60.1995 127.602C59.4996 125.9 59.1023 123.998 58.6441 122.267C57.9991 119.83 57.8106 117.209 57.5777 114.706C57.1351 109.948 56.9663 105.138 57.0137 100.361C57.1744 84.2265 59.9556 68.0418 67.0599 53.4314C70.1723 47.0311 74.261 41.1088 79.094 35.8667C83.8984 30.6554 89.5097 26.5403 95.8468 23.3468ZM90.1591 102.362C89.9706 102.103 90.3385 101.76 90.5965 101.928C96.1822 105.569 100.059 111.096 102.56 117.168C105.036 123.18 106.556 130.544 104.114 136.813C103.725 137.811 101.864 138.182 101.673 136.813C100.822 130.698 100.69 124.575 98.8182 118.631C96.9625 112.739 93.7874 107.343 90.1591 102.362ZM85.8281 122.212C85.8586 122.104 86.0364 122.123 86.0288 122.239C85.8889 124.395 85.794 126.577 85.5207 128.721C85.3879 129.763 85.2122 130.799 85.0628 131.838C84.9095 132.904 84.9327 133.981 84.3079 134.891C83.4799 136.098 81.2801 135.759 81.354 134.098C81.405 132.952 81.9357 132.216 82.4329 131.211C82.7518 130.566 83.0297 129.899 83.2976 129.229L83.6959 128.225C84.4873 126.233 85.2447 124.275 85.8281 122.212ZM75.8258 116.5C75.8596 116.331 76.1354 116.372 76.1272 116.541C75.978 119.592 75.6311 122.61 75.0878 125.617C74.8401 126.987 74.5513 128.35 74.2458 129.71L74.1139 130.292C73.7872 131.723 73.5764 133.406 72.8444 134.685C72.1129 135.963 70.3762 135.035 70.6012 133.746C70.8641 132.242 71.7944 130.73 72.3352 129.285C72.8343 127.952 73.2707 126.595 73.6784 125.231C74.5367 122.361 75.2406 119.437 75.8258 116.5ZM94.4521 124.973L94.5171 124.906C94.7713 124.632 95.1504 124.815 95.2717 125.104C95.7687 126.29 95.5199 127.687 95.4845 128.946L95.4779 129.22C95.4514 130.495 95.4699 131.689 94.8872 132.866C94.1797 134.295 92.3157 133.408 92.1714 132.136C92.0137 130.749 92.6751 129.391 93.1022 128.092C93.3736 127.266 93.5713 126.407 93.9839 125.658C93.631 125.718 93.2787 125.839 92.956 125.926C92.8115 125.965 92.7569 125.754 92.8949 125.706C93.4284 125.518 94.0305 125.378 94.4521 124.973V124.973ZM168.814 129.179C168.643 128.99 168.856 128.738 169.077 128.841C171.733 130.072 174.218 130.872 177.149 131.134C178.419 131.248 178.427 133.228 177.149 133.113C174.09 132.84 170.884 131.479 168.814 129.179ZM75.3567 87.5918C77.6953 82.3724 85.0939 77.7423 90.055 82.5962C90.148 82.6868 90.0534 82.8846 89.9184 82.8291C86.8325 81.5603 83.0547 83.1741 80.919 85.4822C79.2245 87.313 78.2064 89.6639 78.0043 92.1417C77.8022 94.6216 78.3998 97.2101 80.0599 99.1283C80.9307 100.135 82.1067 101.087 83.4905 101.208C84.8877 101.33 86.0522 100.354 87.373 100.089C88.3688 99.8889 89.1204 100.509 89.218 101.483C89.4332 103.632 87.2765 105.074 85.407 105.425C83.3959 105.802 81.3433 105.39 79.6104 104.309C74.0135 100.816 72.8061 93.2847 75.3567 87.5918ZM127.869 36.4337C128.886 35.4693 130.616 36.428 130.241 37.8037C129.443 40.7315 127.747 43.206 125.867 45.5547C124.06 47.8144 122.123 49.9859 120.047 52.0069C117.984 54.0146 115.744 55.8725 113.389 57.532L112.679 58.0305C111.01 59.1978 109.242 60.3783 107.374 61.2191C106.923 65.0749 106.041 68.8794 104.705 72.5218C103.419 76.0292 101.783 79.4188 99.8002 82.5909L99.5155 83.0452C97.6936 85.9423 95.5027 89.18 92.411 90.7681C92.3182 90.816 92.2252 90.8452 92.1336 90.8623C92.8252 91.3198 93.4097 91.8954 93.7571 92.7223C94.1379 93.6277 93.342 94.4819 92.5792 94.7809C90.966 95.4133 89.3924 94.3428 87.9423 93.201C87.881 93.3379 87.8231 93.4761 87.7735 93.6155C87.4492 94.5274 87.3538 95.4593 86.5176 96.0643C86.1202 96.352 85.6307 96.0946 85.3806 95.7688C84.5608 94.7 85.4095 93.244 86.1303 92.3705C86.2301 92.2498 86.3332 92.1351 86.4393 92.025C86.1347 91.8028 85.8374 91.6058 85.5494 91.4546C83.856 90.5649 81.3459 90.4071 80.3709 92.3767C80.2961 92.528 80.0613 92.4498 80.0613 92.2934C80.0638 89.8741 82.5617 88.5601 84.7293 88.3815C86.3131 88.2511 87.8449 88.8022 89.2704 89.4438L89.5364 89.5651C90.0669 89.8094 90.6134 90.0399 91.1365 90.2978C91.0514 90.0751 91.0528 89.8132 91.1867 89.5534C92.826 86.377 95.6411 83.794 97.6713 80.8521C99.6846 77.9336 101.413 74.8102 102.793 71.5488C104.132 68.3832 105.181 65.1182 105.915 61.7881C105.673 61.8376 105.401 61.6241 105.418 61.3738C105.459 60.7683 105.757 60.2228 106.282 59.9903C106.859 56.858 107.154 53.6726 107.137 50.4616C107.136 50.2126 107.499 50.2215 107.521 50.4616C107.776 53.3165 107.797 56.1994 107.582 59.0654C108.946 57.8202 110.385 56.6364 111.698 55.3581C113.675 53.4348 115.587 51.46 117.431 49.4119C119.313 47.3225 121.092 45.1561 122.718 42.864L123.57 41.6619C124.878 39.8191 126.223 37.9956 127.869 36.4337ZM125.303 15.862C136.527 15.1668 148.515 16.5355 158.597 21.763C164.134 24.6336 168.414 28.9725 171.472 34.3721C173.298 37.5964 174.683 41.1668 175.208 44.8376C175.747 48.6094 175.114 51.9725 172.687 54.9706C171.723 56.1612 170.099 54.8313 170.336 53.6131C171.789 46.16 169.433 38.7962 165.252 32.626C159.187 23.6722 148.594 19.6949 138.28 17.9206C133.213 17.0493 128.073 16.6851 122.932 16.8623C119.013 16.9976 114.992 17.36 111.273 18.6683C111.116 18.7235 111.054 18.481 111.205 18.4239C115.641 16.7427 120.594 16.1537 125.303 15.862ZM141.95 32.715C142.527 32.3516 143.234 32.7245 143.433 33.3141C144.133 35.3927 142.665 38.1389 141.684 39.9378C140.573 41.9734 139.144 43.8768 137.668 45.6645C134.717 49.2401 130.837 52.2236 126.58 54.0988C126.319 54.2138 126.015 53.9015 126.254 53.6807C129.548 50.6374 132.535 47.3747 135.12 43.7144C136.391 41.9158 137.45 40.0184 138.462 38.0694C139.368 36.3252 140.219 33.8033 141.95 32.715ZM160.827 35.1637C161.196 33.8843 163.3 34.1022 163.213 35.4841C162.988 39.0539 161.29 42.6373 159.446 45.6628C157.546 48.7781 155.141 51.5543 152.384 53.952C152.248 54.0702 152.062 53.8881 152.185 53.7547C154.564 51.1711 156.486 48.2282 157.908 45.0255C159.33 41.8275 159.866 38.4906 160.827 35.1637ZM150.374 34.5857C150.776 33.4733 152.701 33.5558 152.583 34.8825C152.259 38.5295 150.101 42.3516 148.103 45.3638C145.983 48.5597 143.277 51.3751 140.252 53.7398C140.139 53.8283 139.979 53.6816 140.09 53.5783C142.806 51.0388 145.009 48.1054 146.753 44.8334C147.644 43.1639 148.39 41.4253 148.98 39.6294C149.525 37.968 149.782 36.2233 150.374 34.5857Z" fill="#594A4E"/>
<path fill-rule="evenodd" clip-rule="evenodd" d="M140.457 121.338C138.159 120.52 136.108 119.156 134.608 117.414C134.087 116.808 133.952 116.168 134.061 115.583C134.184 114.925 134.63 114.329 135.239 113.929C135.85 113.528 136.613 113.33 137.352 113.431C137.993 113.519 138.632 113.825 139.137 114.46L139.243 114.587C140.134 115.639 141.296 116.502 142.62 117.058C143.895 117.594 145.322 117.845 146.799 117.699C149.611 117.422 151.549 116.096 153.609 114.295C153.864 114.067 154.12 113.833 154.377 113.594C154.539 113.378 154.764 113.24 155.014 113.167C155.291 113.086 155.605 113.09 155.892 113.178C156.17 113.262 156.417 113.422 156.584 113.635C156.741 113.837 156.831 114.087 156.802 114.374C156.613 116.241 155.494 117.907 153.905 119.215C152.14 120.667 149.8 121.672 147.597 122.025C145.17 122.413 142.697 122.135 140.457 121.338V121.338ZM148.742 92.544C151.324 93.9127 155.258 97.1044 152.48 100.498C149.211 103.49 144.503 100.059 142.183 98.5077C140.032 97.3053 137.615 100.398 139.611 101.802C156.374 112.625 163.177 92.9019 150.048 90.9346C148.602 90.7179 148.065 92.1205 148.742 92.544ZM118.702 79.9537C118.987 76.8654 124.381 76.1641 124.917 79.2201C125.397 81.9576 124.832 84.4723 123.418 86.9369C122.067 89.2915 118.671 88.193 118.415 86.0489C118.07 83.1749 118.525 81.8747 118.702 79.9537ZM159.757 78.5864C160.508 77.7276 161.594 77.1414 162.895 77.4727C166.959 78.5083 165.761 83.5399 164.334 85.989C163.558 87.319 161.051 87.6563 159.919 86.4852C158.072 84.5755 157.188 80.7618 159.535 78.8808C159.599 78.7836 159.67 78.6855 159.757 78.5864ZM123.361 66.4404L124.003 66.3424C125.989 66.0429 128.458 65.7551 129.863 67.1474C130.608 67.8858 130.864 69.2581 129.863 69.9648C128.101 71.2084 126.153 70.7265 124.042 70.8317C122.302 70.9188 120.63 71.1699 118.955 71.5877C115.278 72.504 112.282 74.1769 109.142 76.0139C108.73 76.2548 108.31 75.7953 108.506 75.4592C110.319 72.363 113.832 69.8196 117.35 68.2693C119.228 67.4418 121.283 66.7553 123.361 66.4404ZM156.052 65.0534L156.543 65.1411C161.89 66.1158 168.837 68.0629 171.369 72.6431C171.466 73.2907 171.364 73.4295 171.281 73.5202L171.253 73.5504C171.185 73.6279 171.13 73.7346 170.809 73.8228C170.719 73.8042 170.629 73.7845 170.538 73.7637C169.377 73.4984 168.459 73.133 167.57 72.7538L166.606 72.3397C165.488 71.8615 164.359 71.4007 163.164 71.0605C160.612 70.3347 157.988 69.8234 155.322 69.5504C154.745 69.4913 154.189 69.3213 153.75 69.0299C153.333 68.7533 153.015 68.3703 152.87 67.8613C152.682 67.2026 152.736 66.7038 153.141 66.1096C153.446 65.6633 153.882 65.3539 154.383 65.1763C154.893 64.9952 155.474 64.9525 156.052 65.0534Z" fill="#594A4E"/>
<path fill-rule="evenodd" clip-rule="evenodd" d="M170.187 92.2165C166.823 95.4353 161.205 96.359 156.728 94.6327C145.233 90.1864 150.86 76.3181 159.725 72.5938C160.832 72.3383 162.312 71.732 163.66 71.5944C163.782 71.539 164.048 71.6994 164.37 71.5477C174.145 72.5582 176.371 86.6066 170.187 92.2165M133.11 93.0404C129.336 97.6745 122.32 99.1042 116.587 96.9499C105.262 92.821 109.279 80.5233 117.027 75.7021C133.395 70.0082 140.154 84.4959 133.11 93.0404M108.56 82.7725C108.55 82.7678 108.539 82.7655 108.528 82.7609C108.588 82.7365 108.648 82.7122 108.708 82.6873C108.688 82.7342 108.667 82.7807 108.648 82.8276C108.619 82.8089 108.593 82.7871 108.56 82.7725M177.979 77.7632C177.055 77.765 175.72 77.9056 174.955 78.4991C173.069 72.6097 166.106 67.1591 160.051 71.1336C155.282 72.5533 151.744 75.7018 149.733 79.8877C146.107 77.891 140.405 78.7436 137.261 81.3841C135.202 75.0847 130.134 72.8789 124.101 72.5533C117.517 71.5549 110.955 77.4745 108.907 82.2234C107.205 82.044 104.661 81.5424 103.059 82.5151C92.6639 79.9914 74.4895 78.5999 72.3762 80.0021C70.8702 80.5371 70.0437 83.828 72.1473 84.0056C73.9804 83.7647 71.9334 81.5942 73.7811 81.3574C83.6265 80.7924 93.1841 82.628 102.925 83.3983C103.795 84.4813 106.605 84.8436 108.104 84.4084C105.743 92.4641 110.84 97.9447 118.477 99.5863C130.302 102.101 140.59 92.3078 137.498 82.1215C141.08 80.4717 145.201 80.5425 149.103 81.4115C142.582 103.629 181.233 102.632 175.197 79.2604C179.214 81.1103 180.087 78.1365 177.979 77.7632" fill="#594A4E"/>
<path d="M196.434 343.024C196.391 343.103 196.315 343.246 196.208 343.454C196.108 343.662 195.968 343.898 195.789 344.163C195.617 344.421 195.41 344.689 195.166 344.969C194.923 345.248 194.643 345.506 194.328 345.742C194.013 345.971 193.659 346.161 193.265 346.312C192.878 346.462 192.455 346.537 191.997 346.537C191.589 346.537 191.227 346.462 190.912 346.312C190.597 346.168 190.328 345.964 190.106 345.699C189.884 345.427 189.716 345.108 189.602 344.743C189.487 344.378 189.43 343.973 189.43 343.529C189.43 343.1 189.491 342.699 189.612 342.326C189.734 341.947 189.899 341.617 190.106 341.338C190.321 341.059 190.568 340.84 190.848 340.683C191.127 340.518 191.424 340.436 191.739 340.436C191.976 340.436 192.19 340.479 192.384 340.564C192.577 340.643 192.738 340.751 192.867 340.887C193.003 341.023 193.107 341.173 193.179 341.338C193.257 341.503 193.297 341.667 193.297 341.832C193.297 341.99 193.275 342.136 193.232 342.272C193.197 342.409 193.146 342.53 193.082 342.638C193.025 342.738 192.957 342.82 192.878 342.885C192.799 342.942 192.72 342.971 192.642 342.971C192.52 342.971 192.42 342.931 192.341 342.853C192.269 342.774 192.233 342.677 192.233 342.562C192.233 342.505 192.244 342.455 192.266 342.412C192.294 342.369 192.323 342.326 192.352 342.283C192.387 342.233 192.416 342.176 192.438 342.111C192.466 342.04 192.48 341.95 192.48 341.843C192.48 341.692 192.409 341.556 192.266 341.435C192.13 341.313 191.954 341.252 191.739 341.252C191.539 341.252 191.345 341.313 191.159 341.435C190.98 341.556 190.823 341.721 190.687 341.929C190.55 342.129 190.439 342.369 190.354 342.648C190.275 342.921 190.235 343.211 190.235 343.519C190.235 343.812 190.271 344.091 190.343 344.356C190.414 344.621 190.522 344.858 190.665 345.065C190.808 345.266 190.987 345.427 191.202 345.549C191.424 345.671 191.686 345.731 191.986 345.731C192.373 345.731 192.731 345.663 193.061 345.527C193.39 345.384 193.691 345.205 193.963 344.99C194.235 344.775 194.475 344.543 194.683 344.292C194.89 344.034 195.066 343.794 195.209 343.572C195.359 343.343 195.474 343.146 195.553 342.981C195.639 342.81 195.689 342.702 195.703 342.659C195.732 342.588 195.778 342.534 195.843 342.498C195.914 342.455 195.99 342.434 196.068 342.434C196.19 342.434 196.287 342.477 196.358 342.562C196.437 342.648 196.477 342.745 196.477 342.853C196.477 342.896 196.462 342.953 196.434 343.024ZM201.815 343.024C201.737 343.189 201.636 343.386 201.515 343.615C201.4 343.837 201.268 344.07 201.117 344.313C200.967 344.557 200.799 344.8 200.612 345.044C200.426 345.28 200.222 345.495 200 345.688C199.785 345.875 199.552 346.025 199.302 346.14C199.058 346.261 198.797 346.322 198.518 346.322C198.088 346.322 197.719 346.19 197.411 345.925C197.103 345.66 196.842 345.312 196.627 344.883C196.412 344.453 196.237 343.966 196.101 343.422C195.972 342.87 195.871 342.312 195.8 341.746C195.728 341.173 195.678 340.618 195.649 340.081C195.628 339.544 195.617 339.068 195.617 338.652C195.617 338.051 195.635 337.428 195.671 336.783C195.714 336.139 195.778 335.508 195.864 334.893C195.95 334.277 196.058 333.693 196.187 333.142C196.323 332.59 196.48 332.107 196.659 331.691C196.845 331.276 197.057 330.947 197.293 330.703C197.529 330.46 197.798 330.338 198.099 330.338C198.335 330.338 198.546 330.395 198.732 330.51C198.926 330.617 199.087 330.796 199.216 331.047C199.345 331.298 199.445 331.623 199.517 332.024C199.588 332.425 199.624 332.916 199.624 333.496C199.624 334.212 199.549 334.953 199.398 335.72C199.248 336.479 199.044 337.245 198.786 338.019C198.528 338.792 198.224 339.565 197.873 340.339C197.522 341.105 197.146 341.854 196.745 342.584C196.924 343.493 197.164 344.21 197.465 344.732C197.766 345.248 198.127 345.506 198.55 345.506C198.836 345.506 199.112 345.395 199.377 345.173C199.642 344.944 199.885 344.675 200.107 344.367C200.329 344.059 200.523 343.748 200.688 343.433C200.859 343.11 200.992 342.853 201.085 342.659C201.121 342.588 201.171 342.534 201.235 342.498C201.3 342.455 201.371 342.434 201.45 342.434C201.572 342.434 201.669 342.477 201.74 342.562C201.819 342.648 201.858 342.745 201.858 342.853C201.858 342.896 201.844 342.953 201.815 343.024ZM196.434 338.706C196.434 339.164 196.444 339.605 196.466 340.027C196.487 340.45 196.516 340.854 196.552 341.241C196.853 340.661 197.139 340.045 197.411 339.394C197.683 338.735 197.923 338.072 198.131 337.406C198.339 336.733 198.503 336.067 198.625 335.408C198.754 334.742 198.818 334.108 198.818 333.507C198.818 332.662 198.75 332.057 198.614 331.691C198.478 331.326 198.296 331.144 198.066 331.144C197.916 331.144 197.769 331.247 197.626 331.455C197.49 331.663 197.361 331.946 197.239 332.304C197.118 332.662 197.007 333.084 196.906 333.571C196.806 334.058 196.72 334.581 196.648 335.14C196.584 335.698 196.53 336.282 196.487 336.891C196.451 337.499 196.434 338.104 196.434 338.706ZM209.399 343.003C209.371 343.06 209.31 343.182 209.217 343.368C209.131 343.547 209.016 343.755 208.873 343.991C208.737 344.228 208.576 344.475 208.39 344.732C208.203 344.99 207.996 345.227 207.767 345.441C207.537 345.656 207.29 345.835 207.025 345.979C206.76 346.115 206.481 346.183 206.188 346.183C205.772 346.183 205.421 346.05 205.135 345.785C204.855 345.52 204.651 345.187 204.522 344.786C204.279 345.194 203.989 345.52 203.652 345.764C203.316 346 202.979 346.118 202.643 346.118C202.378 346.118 202.138 346.072 201.923 345.979C201.708 345.878 201.525 345.742 201.375 345.57C201.225 345.391 201.106 345.184 201.021 344.947C200.942 344.711 200.902 344.453 200.902 344.174C200.902 343.615 200.995 343.125 201.182 342.702C201.375 342.272 201.618 341.914 201.912 341.628C202.206 341.341 202.528 341.127 202.879 340.983C203.237 340.84 203.581 340.769 203.91 340.769C204.132 340.769 204.336 340.801 204.522 340.865C204.709 340.923 204.866 340.987 204.995 341.059C205.131 341.13 205.235 341.198 205.307 341.263C205.378 341.32 205.418 341.352 205.425 341.359C205.504 341.452 205.543 341.549 205.543 341.649C205.543 341.757 205.504 341.854 205.425 341.939C205.346 342.018 205.253 342.058 205.146 342.058C205.031 342.058 204.934 342.018 204.855 341.939C204.841 341.925 204.809 341.9 204.759 341.864C204.709 341.821 204.641 341.778 204.555 341.735C204.469 341.692 204.365 341.657 204.243 341.628C204.129 341.592 203.996 341.574 203.846 341.574C203.624 341.574 203.387 341.624 203.137 341.725C202.886 341.825 202.657 341.982 202.449 342.197C202.242 342.405 202.066 342.67 201.923 342.992C201.787 343.307 201.719 343.683 201.719 344.12C201.719 344.256 201.733 344.396 201.762 344.539C201.79 344.675 201.84 344.8 201.912 344.915C201.984 345.03 202.08 345.123 202.202 345.194C202.324 345.266 202.474 345.302 202.653 345.302C202.782 345.302 202.929 345.259 203.094 345.173C203.266 345.087 203.427 344.954 203.577 344.775C203.735 344.596 203.874 344.371 203.996 344.099C204.125 343.826 204.215 343.504 204.265 343.132C204.279 343.032 204.326 342.949 204.404 342.885C204.483 342.813 204.576 342.777 204.684 342.777C204.784 342.777 204.87 342.817 204.941 342.896C205.02 342.974 205.063 343.064 205.07 343.164C205.077 343.3 205.092 343.493 205.113 343.744C205.135 343.988 205.181 344.231 205.253 344.475C205.332 344.718 205.446 344.929 205.597 345.108C205.747 345.287 205.955 345.377 206.22 345.377C206.392 345.377 206.56 345.33 206.725 345.237C206.896 345.144 207.061 345.022 207.219 344.872C207.383 344.715 207.537 344.539 207.681 344.346C207.831 344.145 207.967 343.945 208.089 343.744C208.211 343.544 208.318 343.35 208.411 343.164C208.504 342.978 208.583 342.817 208.647 342.681C208.683 342.602 208.733 342.541 208.798 342.498C208.869 342.455 208.945 342.434 209.023 342.434C209.145 342.434 209.242 342.48 209.313 342.573C209.392 342.659 209.432 342.752 209.432 342.853C209.432 342.903 209.421 342.953 209.399 343.003ZM209.786 341.585C209.757 341.778 209.722 341.961 209.679 342.133C209.636 342.298 209.593 342.444 209.55 342.573C209.514 342.695 209.482 342.795 209.453 342.874C209.424 342.953 209.407 342.996 209.399 343.003C209.328 343.168 209.202 343.25 209.023 343.25C208.923 343.25 208.83 343.214 208.744 343.143C208.658 343.064 208.615 342.967 208.615 342.853C208.615 342.81 208.622 342.777 208.637 342.756C208.651 342.734 208.673 342.691 208.701 342.627C208.73 342.562 208.766 342.455 208.809 342.305C208.852 342.154 208.905 341.922 208.97 341.606C208.848 341.606 208.723 341.603 208.594 341.596C208.465 341.589 208.347 341.563 208.239 341.521C208.125 341.478 208.032 341.41 207.96 341.316C207.888 341.223 207.853 341.094 207.853 340.93C207.853 340.808 207.888 340.643 207.96 340.436C208.024 340.228 208.114 340.024 208.229 339.823C208.343 339.623 208.472 339.451 208.615 339.308C208.758 339.157 208.902 339.082 209.045 339.082C209.21 339.082 209.342 339.143 209.442 339.265C209.55 339.386 209.632 339.537 209.689 339.716C209.747 339.888 209.786 340.07 209.808 340.264C209.836 340.457 209.851 340.625 209.851 340.769C209.972 340.769 210.09 340.769 210.205 340.769C210.327 340.761 210.441 340.758 210.549 340.758C210.957 340.758 211.269 340.847 211.483 341.026C211.698 341.205 211.806 341.499 211.806 341.907C211.806 342.072 211.795 342.244 211.773 342.423C211.752 342.602 211.727 342.788 211.698 342.981C211.67 343.168 211.645 343.354 211.623 343.54C211.602 343.726 211.591 343.909 211.591 344.088C211.591 344.346 211.627 344.561 211.698 344.732C211.77 344.897 211.859 345.03 211.967 345.13C212.074 345.23 212.189 345.302 212.311 345.345C212.432 345.381 212.543 345.398 212.644 345.398C212.951 345.398 213.242 345.298 213.514 345.098C213.786 344.897 214.036 344.657 214.266 344.378C214.495 344.091 214.699 343.791 214.878 343.476C215.064 343.16 215.218 342.885 215.34 342.648C215.376 342.584 215.426 342.534 215.49 342.498C215.555 342.462 215.623 342.444 215.694 342.444C215.823 342.444 215.924 342.487 215.995 342.573C216.067 342.652 216.103 342.742 216.103 342.842C216.103 342.913 216.088 342.978 216.06 343.035C215.895 343.329 215.701 343.662 215.479 344.034C215.265 344.399 215.018 344.743 214.738 345.065C214.459 345.388 214.144 345.66 213.793 345.882C213.449 346.104 213.07 346.215 212.654 346.215C212.396 346.215 212.153 346.165 211.924 346.064C211.695 345.971 211.494 345.835 211.322 345.656C211.158 345.47 211.025 345.244 210.925 344.979C210.825 344.707 210.774 344.403 210.774 344.066C210.774 343.708 210.81 343.354 210.882 343.003C210.953 342.645 210.989 342.305 210.989 341.982C210.989 341.846 210.957 341.746 210.893 341.682C210.835 341.61 210.703 341.574 210.495 341.574C210.395 341.574 210.284 341.574 210.162 341.574C210.048 341.574 209.922 341.578 209.786 341.585ZM209.066 340.79C209.066 340.74 209.063 340.675 209.056 340.597C209.056 340.511 209.049 340.428 209.034 340.35C209.027 340.271 209.013 340.203 208.991 340.146C208.977 340.088 208.959 340.06 208.938 340.06C208.916 340.06 208.887 340.088 208.852 340.146C208.823 340.196 208.791 340.26 208.755 340.339C208.719 340.41 208.687 340.489 208.658 340.575C208.63 340.661 208.608 340.733 208.594 340.79H209.066ZM217.091 337.567C217.091 337.84 216.994 338.072 216.801 338.266C216.615 338.452 216.385 338.545 216.113 338.545C215.841 338.545 215.608 338.452 215.415 338.266C215.229 338.072 215.136 337.84 215.136 337.567C215.136 337.431 215.161 337.306 215.211 337.191C215.261 337.07 215.329 336.966 215.415 336.88C215.508 336.787 215.612 336.715 215.727 336.665C215.848 336.615 215.977 336.59 216.113 336.59C216.249 336.59 216.375 336.615 216.489 336.665C216.611 336.715 216.715 336.787 216.801 336.88C216.894 336.966 216.965 337.07 217.016 337.191C217.066 337.306 217.091 337.431 217.091 337.567ZM215.351 343.862C215.351 342.831 215.415 341.803 215.544 340.779C215.558 340.679 215.601 340.593 215.673 340.521C215.752 340.443 215.852 340.403 215.974 340.403C216.081 340.403 216.171 340.446 216.242 340.532C216.314 340.611 216.35 340.704 216.35 340.812C216.35 340.854 216.339 340.983 216.317 341.198C216.303 341.413 216.282 341.671 216.253 341.972C216.231 342.265 216.21 342.58 216.188 342.917C216.174 343.246 216.167 343.551 216.167 343.83C216.167 344.21 216.203 344.518 216.274 344.754C216.353 344.983 216.45 345.162 216.564 345.291C216.686 345.42 216.812 345.506 216.94 345.549C217.076 345.592 217.205 345.613 217.327 345.613C217.528 345.613 217.735 345.542 217.95 345.398C218.165 345.255 218.383 345.055 218.605 344.797C218.835 344.539 219.064 344.231 219.293 343.873C219.522 343.508 219.748 343.103 219.97 342.659C220.006 342.588 220.056 342.534 220.12 342.498C220.185 342.455 220.256 342.434 220.335 342.434C220.45 342.434 220.543 342.477 220.614 342.562C220.693 342.648 220.732 342.742 220.732 342.842C220.732 342.913 220.718 342.974 220.689 343.024C220.604 343.189 220.496 343.39 220.367 343.626C220.238 343.862 220.091 344.106 219.927 344.356C219.762 344.607 219.579 344.858 219.379 345.108C219.186 345.352 218.978 345.574 218.756 345.774C218.534 345.968 218.301 346.125 218.058 346.247C217.814 346.369 217.567 346.43 217.316 346.43C216.994 346.43 216.711 346.362 216.468 346.226C216.224 346.09 216.017 345.907 215.845 345.678C215.68 345.449 215.555 345.18 215.469 344.872C215.39 344.557 215.351 344.22 215.351 343.862ZM216.489 337.567C216.489 337.467 216.45 337.381 216.371 337.31C216.299 337.231 216.214 337.191 216.113 337.191C216.013 337.191 215.927 337.231 215.855 337.31C215.784 337.381 215.748 337.467 215.748 337.567C215.748 337.668 215.784 337.754 215.855 337.825C215.927 337.897 216.013 337.933 216.113 337.933C216.214 337.933 216.299 337.897 216.371 337.825C216.45 337.754 216.489 337.668 216.489 337.567ZM221.151 342.025C221.108 342.14 221.055 342.269 220.99 342.412C220.933 342.555 220.865 342.706 220.786 342.863C220.722 342.985 220.654 343.082 220.582 343.153C220.518 343.218 220.432 343.25 220.324 343.25C220.202 343.25 220.106 343.214 220.034 343.143C219.963 343.064 219.927 342.974 219.927 342.874C219.927 342.838 219.93 342.81 219.938 342.788C219.945 342.759 219.963 342.716 219.991 342.659C220.177 342.301 220.313 341.99 220.399 341.725C220.493 341.452 220.568 341.17 220.625 340.876C220.575 340.711 220.539 340.572 220.518 340.457C220.496 340.342 220.485 340.224 220.485 340.103C220.485 339.866 220.535 339.676 220.636 339.533C220.736 339.383 220.876 339.308 221.055 339.308C221.219 339.308 221.348 339.379 221.441 339.522C221.542 339.666 221.592 339.841 221.592 340.049C221.592 340.163 221.581 340.278 221.56 340.393C221.538 340.507 221.509 340.65 221.474 340.822C221.638 341.23 221.803 341.592 221.968 341.907C222.132 342.222 222.279 342.512 222.408 342.777C222.537 343.035 222.641 343.279 222.72 343.508C222.806 343.737 222.849 343.966 222.849 344.195C222.849 344.496 222.788 344.783 222.666 345.055C222.544 345.327 222.344 345.556 222.064 345.742C222.1 345.749 222.136 345.753 222.172 345.753C222.208 345.753 222.243 345.753 222.279 345.753C222.688 345.753 223.063 345.66 223.407 345.474C223.751 345.287 224.059 345.048 224.331 344.754C224.61 344.453 224.857 344.124 225.072 343.766C225.287 343.4 225.473 343.039 225.631 342.681C225.702 342.516 225.803 342.434 225.932 342.434C226.053 342.434 226.146 342.477 226.211 342.562C226.283 342.648 226.318 342.742 226.318 342.842C226.318 342.899 226.308 342.953 226.286 343.003C226.207 343.196 226.104 343.418 225.975 343.669C225.853 343.912 225.702 344.167 225.523 344.432C225.352 344.689 225.151 344.944 224.922 345.194C224.693 345.445 224.435 345.671 224.148 345.871C223.869 346.064 223.561 346.218 223.225 346.333C222.888 346.455 222.519 346.516 222.118 346.516C221.638 346.516 221.191 346.43 220.775 346.258C220.367 346.093 220.034 345.817 219.776 345.431C219.733 345.366 219.712 345.298 219.712 345.227C219.712 345.119 219.751 345.026 219.83 344.947C219.916 344.861 220.013 344.818 220.12 344.818C220.235 344.818 220.331 344.858 220.41 344.937C220.417 344.951 220.442 344.976 220.485 345.012C220.528 345.04 220.578 345.076 220.636 345.119C220.7 345.155 220.772 345.187 220.851 345.216C220.937 345.244 221.022 345.259 221.108 345.259C221.28 345.259 221.424 345.223 221.538 345.151C221.66 345.08 221.757 344.994 221.828 344.894C221.9 344.786 221.95 344.675 221.979 344.561C222.014 344.439 222.032 344.335 222.032 344.249C222.032 344.07 222.004 343.891 221.946 343.712C221.889 343.533 221.814 343.354 221.721 343.175C221.635 342.996 221.538 342.813 221.431 342.627C221.33 342.434 221.237 342.233 221.151 342.025ZM226.737 342.025C226.694 342.14 226.641 342.269 226.576 342.412C226.519 342.555 226.451 342.706 226.372 342.863C226.308 342.985 226.24 343.082 226.168 343.153C226.104 343.218 226.018 343.25 225.91 343.25C225.788 343.25 225.692 343.214 225.62 343.143C225.549 343.064 225.513 342.974 225.513 342.874C225.513 342.838 225.516 342.81 225.523 342.788C225.531 342.759 225.549 342.716 225.577 342.659C225.763 342.301 225.899 341.99 225.985 341.725C226.078 341.452 226.154 341.17 226.211 340.876C226.161 340.711 226.125 340.572 226.104 340.457C226.082 340.342 226.071 340.224 226.071 340.103C226.071 339.866 226.121 339.676 226.222 339.533C226.322 339.383 226.462 339.308 226.641 339.308C226.805 339.308 226.934 339.379 227.027 339.522C227.128 339.666 227.178 339.841 227.178 340.049C227.178 340.163 227.167 340.278 227.146 340.393C227.124 340.507 227.095 340.65 227.06 340.822C227.224 341.23 227.389 341.592 227.554 341.907C227.718 342.222 227.865 342.512 227.994 342.777C228.123 343.035 228.227 343.279 228.306 343.508C228.392 343.737 228.435 343.966 228.435 344.195C228.435 344.496 228.374 344.783 228.252 345.055C228.13 345.327 227.93 345.556 227.65 345.742C227.686 345.749 227.722 345.753 227.758 345.753C227.794 345.753 227.829 345.753 227.865 345.753C228.273 345.753 228.649 345.66 228.993 345.474C229.337 345.287 229.645 345.048 229.917 344.754C230.196 344.453 230.443 344.124 230.658 343.766C230.873 343.4 231.059 343.039 231.217 342.681C231.288 342.516 231.389 342.434 231.518 342.434C231.639 342.434 231.732 342.477 231.797 342.562C231.868 342.648 231.904 342.742 231.904 342.842C231.904 342.899 231.894 342.953 231.872 343.003C231.793 343.196 231.689 343.418 231.561 343.669C231.439 343.912 231.288 344.167 231.109 344.432C230.938 344.689 230.737 344.944 230.508 345.194C230.279 345.445 230.021 345.671 229.734 345.871C229.455 346.064 229.147 346.218 228.811 346.333C228.474 346.455 228.105 346.516 227.704 346.516C227.224 346.516 226.777 346.43 226.361 346.258C225.953 346.093 225.62 345.817 225.362 345.431C225.319 345.366 225.298 345.298 225.298 345.227C225.298 345.119 225.337 345.026 225.416 344.947C225.502 344.861 225.599 344.818 225.706 344.818C225.821 344.818 225.917 344.858 225.996 344.937C226.003 344.951 226.028 344.976 226.071 345.012C226.114 345.04 226.164 345.076 226.222 345.119C226.286 345.155 226.358 345.187 226.437 345.216C226.522 345.244 226.608 345.259 226.694 345.259C226.866 345.259 227.009 345.223 227.124 345.151C227.246 345.08 227.342 344.994 227.414 344.894C227.486 344.786 227.536 344.675 227.564 344.561C227.6 344.439 227.618 344.335 227.618 344.249C227.618 344.07 227.59 343.891 227.532 343.712C227.475 343.533 227.4 343.354 227.307 343.175C227.221 342.996 227.124 342.813 227.017 342.627C226.916 342.434 226.823 342.233 226.737 342.025ZM232.42 344.818C232.57 345.026 232.764 345.194 233 345.323C233.236 345.445 233.526 345.506 233.87 345.506C234.221 345.506 234.54 345.424 234.826 345.259C235.113 345.087 235.374 344.865 235.61 344.593C235.847 344.321 236.058 344.016 236.244 343.68C236.43 343.343 236.599 343.007 236.749 342.67C236.785 342.591 236.835 342.534 236.899 342.498C236.964 342.455 237.035 342.434 237.114 342.434C237.236 342.434 237.333 342.477 237.404 342.562C237.483 342.648 237.522 342.742 237.522 342.842C237.522 342.878 237.519 342.91 237.512 342.938C237.505 342.96 237.494 342.985 237.479 343.014C236.985 344.102 236.445 344.922 235.857 345.474C235.277 346.025 234.618 346.308 233.881 346.322C233.408 346.322 233 346.229 232.656 346.043C232.312 345.864 232.03 345.631 231.808 345.345C231.586 345.051 231.421 344.722 231.313 344.356C231.206 343.991 231.152 343.626 231.152 343.261C231.152 342.896 231.195 342.559 231.281 342.251C231.374 341.943 231.503 341.674 231.668 341.445C231.84 341.216 232.04 341.037 232.27 340.908C232.506 340.779 232.764 340.715 233.043 340.715C233.208 340.715 233.369 340.751 233.526 340.822C233.691 340.887 233.838 340.983 233.967 341.112C234.096 341.234 234.2 341.384 234.278 341.563C234.357 341.743 234.396 341.947 234.396 342.176C234.396 342.469 234.346 342.745 234.246 343.003C234.146 343.261 234.006 343.501 233.827 343.723C233.655 343.945 233.448 344.149 233.204 344.335C232.961 344.521 232.699 344.682 232.42 344.818ZM232.098 344.12C232.32 344.027 232.52 343.909 232.699 343.766C232.885 343.622 233.043 343.465 233.172 343.293C233.301 343.121 233.401 342.942 233.473 342.756C233.544 342.562 233.58 342.369 233.58 342.176C233.58 341.961 233.526 341.8 233.419 341.692C233.312 341.578 233.186 341.521 233.043 341.521C232.85 341.521 232.685 341.574 232.549 341.682C232.413 341.789 232.302 341.929 232.216 342.101C232.13 342.272 232.065 342.466 232.022 342.681C231.987 342.888 231.969 343.096 231.969 343.304C231.969 343.433 231.979 343.569 232.001 343.712C232.03 343.855 232.062 343.991 232.098 344.12ZM242.442 345.087C242.557 344.843 242.689 344.582 242.84 344.303C242.99 344.016 243.151 343.726 243.323 343.433C243.495 343.132 243.678 342.835 243.871 342.541C244.064 342.247 244.265 341.972 244.473 341.714C244.68 341.463 244.888 341.284 245.096 341.177C245.311 341.062 245.511 341.005 245.697 341.005C245.883 341.005 246.045 341.044 246.181 341.123C246.324 341.195 246.438 341.295 246.524 341.424C246.618 341.553 246.686 341.703 246.729 341.875C246.779 342.047 246.804 342.233 246.804 342.434C246.804 342.598 246.786 342.82 246.75 343.1C246.721 343.372 246.707 343.658 246.707 343.959C246.707 344.131 246.714 344.303 246.729 344.475C246.75 344.639 246.782 344.79 246.825 344.926C246.875 345.055 246.947 345.162 247.04 345.248C247.133 345.327 247.255 345.366 247.405 345.366C247.577 345.366 247.749 345.32 247.921 345.227C248.093 345.126 248.261 344.997 248.426 344.84C248.59 344.675 248.748 344.496 248.898 344.303C249.049 344.102 249.185 343.905 249.307 343.712C249.428 343.511 249.536 343.322 249.629 343.143C249.722 342.956 249.797 342.802 249.854 342.681C249.926 342.516 250.051 342.434 250.23 342.434C250.352 342.434 250.449 342.477 250.521 342.562C250.592 342.648 250.628 342.742 250.628 342.842C250.628 342.899 250.617 342.953 250.596 343.003C250.567 343.06 250.51 343.178 250.424 343.357C250.345 343.536 250.234 343.744 250.091 343.98C249.955 344.217 249.794 344.464 249.607 344.722C249.421 344.979 249.214 345.219 248.984 345.441C248.762 345.656 248.519 345.835 248.254 345.979C247.996 346.115 247.724 346.183 247.438 346.183C247.108 346.183 246.843 346.115 246.643 345.979C246.442 345.835 246.285 345.656 246.17 345.441C246.062 345.227 245.987 344.987 245.944 344.722C245.909 344.457 245.891 344.199 245.891 343.948C245.891 343.819 245.894 343.683 245.901 343.54C245.916 343.39 245.93 343.243 245.944 343.1C245.959 342.956 245.969 342.824 245.977 342.702C245.991 342.573 245.998 342.466 245.998 342.38C245.998 342.158 245.966 342.007 245.901 341.929C245.844 341.85 245.776 341.811 245.697 341.811C245.583 341.811 245.45 341.879 245.3 342.015C245.157 342.144 245.003 342.315 244.838 342.53C244.68 342.745 244.519 342.989 244.354 343.261C244.197 343.526 244.043 343.791 243.893 344.056C243.742 344.321 243.606 344.575 243.484 344.818C243.363 345.055 243.262 345.252 243.184 345.409C243.033 345.71 242.879 345.91 242.722 346.011C242.571 346.118 242.435 346.172 242.313 346.172C242.091 346.172 241.92 346.086 241.798 345.914C241.683 345.735 241.626 345.52 241.626 345.27V344.593C241.626 343.239 241.626 341.95 241.626 340.726C241.633 339.494 241.651 338.352 241.68 337.299C241.715 336.239 241.769 335.283 241.841 334.431C241.92 333.571 242.034 332.841 242.185 332.239C242.335 331.631 242.525 331.161 242.754 330.832C242.99 330.503 243.284 330.338 243.635 330.338C243.936 330.338 244.19 330.42 244.397 330.585C244.605 330.75 244.773 330.975 244.902 331.262C245.031 331.541 245.124 331.87 245.182 332.25C245.239 332.622 245.268 333.016 245.268 333.432C245.268 334.277 245.189 335.107 245.031 335.924C244.881 336.733 244.677 337.524 244.419 338.298C244.161 339.071 243.86 339.827 243.517 340.564C243.173 341.295 242.811 342.007 242.432 342.702C242.432 342.831 242.432 342.985 242.432 343.164C242.432 343.343 242.432 343.522 242.432 343.701C242.432 343.88 242.432 344.049 242.432 344.206C242.432 344.364 242.432 344.489 242.432 344.582L242.442 345.087ZM242.442 341.123C242.743 340.464 243.015 339.823 243.259 339.2C243.509 338.57 243.721 337.943 243.893 337.32C244.072 336.697 244.211 336.067 244.312 335.43C244.412 334.785 244.462 334.116 244.462 333.421C244.462 333.306 244.455 333.124 244.44 332.873C244.433 332.622 244.401 332.368 244.344 332.11C244.294 331.853 244.211 331.627 244.097 331.434C243.989 331.24 243.835 331.144 243.635 331.144C243.477 331.144 243.341 331.251 243.227 331.466C243.112 331.674 243.012 331.96 242.926 332.325C242.84 332.683 242.768 333.102 242.711 333.582C242.654 334.062 242.607 334.57 242.571 335.107C242.535 335.645 242.507 336.196 242.485 336.762C242.471 337.327 242.46 337.879 242.453 338.416C242.446 338.946 242.442 339.444 242.442 339.909C242.442 340.375 242.442 340.779 242.442 341.123ZM254.033 342.874C254.384 344.528 254.893 345.355 255.559 345.355C255.816 345.355 256.063 345.262 256.3 345.076C256.536 344.883 256.755 344.65 256.955 344.378C257.163 344.099 257.345 343.805 257.503 343.497C257.66 343.189 257.789 342.921 257.89 342.691C257.961 342.52 258.087 342.434 258.266 342.434C258.38 342.434 258.477 342.477 258.556 342.562C258.634 342.648 258.674 342.742 258.674 342.842C258.674 342.899 258.663 342.949 258.642 342.992C258.591 343.114 258.516 343.279 258.416 343.486C258.323 343.687 258.205 343.905 258.062 344.142C257.925 344.371 257.771 344.607 257.6 344.851C257.428 345.094 257.238 345.312 257.03 345.506C256.823 345.699 256.601 345.86 256.364 345.989C256.135 346.111 255.892 346.172 255.634 346.172C255.154 346.172 254.742 346.007 254.398 345.678C254.055 345.341 253.757 344.79 253.507 344.023C253.163 344.754 252.816 345.284 252.465 345.613C252.114 345.943 251.734 346.107 251.326 346.107C251.111 346.107 250.904 346.072 250.703 346C250.503 345.936 250.327 345.825 250.177 345.667C250.026 345.509 249.905 345.309 249.812 345.065C249.718 344.815 249.672 344.51 249.672 344.152C249.672 343.658 249.758 343.203 249.93 342.788C250.102 342.373 250.324 342.018 250.596 341.725C250.868 341.424 251.169 341.191 251.498 341.026C251.835 340.862 252.168 340.779 252.497 340.779C252.604 340.779 252.698 340.819 252.776 340.897C252.855 340.969 252.895 341.062 252.895 341.177C252.895 341.277 252.862 341.367 252.798 341.445C252.733 341.524 252.647 341.571 252.54 341.585C252.325 341.614 252.096 341.682 251.853 341.789C251.609 341.896 251.383 342.054 251.176 342.262C250.975 342.462 250.807 342.72 250.671 343.035C250.542 343.35 250.478 343.726 250.478 344.163C250.478 344.521 250.549 344.8 250.692 345.001C250.843 345.201 251.058 345.302 251.337 345.302C251.451 345.302 251.573 345.273 251.702 345.216C251.831 345.151 251.967 345.03 252.11 344.851C252.261 344.672 252.422 344.417 252.594 344.088C252.773 343.758 252.97 343.325 253.185 342.788C253.063 342.158 252.952 341.431 252.852 340.607C252.751 339.784 252.701 338.864 252.701 337.847C252.701 337.403 252.715 336.941 252.744 336.461C252.773 335.974 252.819 335.501 252.884 335.043C252.948 334.577 253.034 334.137 253.142 333.722C253.249 333.306 253.378 332.941 253.528 332.626C253.686 332.311 253.868 332.064 254.076 331.885C254.284 331.699 254.52 331.605 254.785 331.605C255.021 331.605 255.222 331.67 255.387 331.799C255.551 331.928 255.684 332.107 255.784 332.336C255.892 332.565 255.97 332.841 256.021 333.163C256.071 333.485 256.096 333.84 256.096 334.227C256.096 335.057 256.024 335.888 255.881 336.719C255.738 337.549 255.559 338.344 255.344 339.104C255.136 339.863 254.914 340.564 254.678 341.209C254.441 341.854 254.227 342.409 254.033 342.874ZM255.29 334.216C255.29 334.037 255.283 333.843 255.269 333.636C255.261 333.428 255.236 333.235 255.193 333.056C255.158 332.869 255.107 332.715 255.043 332.594C254.979 332.472 254.893 332.411 254.785 332.411C254.606 332.411 254.438 332.569 254.28 332.884C254.13 333.199 253.997 333.614 253.883 334.13C253.768 334.638 253.675 335.218 253.604 335.87C253.539 336.515 253.507 337.166 253.507 337.825C253.507 338.455 253.532 339.086 253.582 339.716C253.632 340.346 253.689 340.908 253.754 341.402C253.962 340.851 254.159 340.285 254.345 339.705C254.531 339.118 254.692 338.52 254.828 337.911C254.971 337.302 255.082 336.69 255.161 336.074C255.247 335.451 255.29 334.832 255.29 334.216Z" fill="black"/>
</svg>
