<svg width="189" height="63" viewBox="0 0 189 63" fill="none" xmlns="http://www.w3.org/2000/svg">
<path fill-rule="evenodd" clip-rule="evenodd" d="M17.0524 45.0826C20.087 49.1597 25.7126 50.4583 30.9016 50.0098C42.093 48.9325 45.6153 36.2209 45.9822 26.3409C38.4775 28.4522 46.6168 13.499 20.9631 11.8547C11.9198 11.101 14.413 16.5632 10.4176 20.5541C10.4996 28.93 11.8936 38.0311 17.0524 45.0826M70.3576 35.4582C76.9649 66.4036 113.147 59.0428 116.947 31.1477C113.438 28.6704 114.362 22.5532 110.002 20.3369C103.092 15.9213 94.4536 16.1102 86.6064 16.2139C76.576 16.9031 73.7176 21.0585 68.5651 25.5922C68.813 28.6203 69.5278 32.2092 70.3576 35.4582M2.71951 6.72964C3.09044 6.66788 3.46182 6.60974 3.8332 6.5552C4.12301 6.39067 4.46329 6.26401 4.85901 6.18783C5.76267 5.9584 6.66001 5.8038 7.55601 5.72041C20.4155 2.82614 50.1651 6.93563 51.3929 17.9105C55.488 19.2776 59.0314 18.0534 63.7778 18.1751C67.3906 3.0727 129.851 5.2043 132.854 14.3095C132.866 14.3063 132.877 14.3036 132.889 14.3C135.775 13.4066 140.03 13.6221 143.334 13.4805C150.388 13.3327 157.45 13.9615 164.351 15.4494C177.275 17.5035 194.914 19.9082 185.925 36.0487C185.924 36.0514 185.922 36.0545 185.92 36.0572L185.919 36.0559C184.37 37.6439 181.741 36.3651 181.643 34.2155C184.665 26.569 177.839 25.6508 172.588 23.4534C159.52 18.7584 146.217 18.1075 132.702 19.5598C131.685 20.757 130.142 21.8009 128.511 22.3472C119.475 23.8473 124.237 30.5509 118.526 31.5259C119.575 54.8936 91.2072 67.649 74.7704 52.2879C68.2077 45.871 66.6433 36.3651 65.1218 27.7968C64.3173 27.616 63.8057 27.1761 63.5069 26.5937C61.572 24.6618 60.3565 22.8778 56.5304 22.3472C52.7044 21.8171 49.7591 22.8814 49.3606 23.2073C49.2601 23.4096 49.1524 23.6125 49.0271 23.8153C48.8522 24.1178 48.6143 24.3589 48.3438 24.5487C52.1221 47.8182 34.0592 62.5343 15.8242 50.4655C7.9008 43.0114 6.22644 31.5993 5.89562 21.4133C4.82159 20.7651 4.14149 19.5089 4.51332 17.9294C5.02577 15.7523 3.82419 13.8673 1.9105 12.9207C-0.576032 11.6915 -0.136152 7.20247 2.71951 6.72964" fill="#594A4E"/>
</svg>
