<svg width="162" height="60" viewBox="0 0 162 60" fill="none" xmlns="http://www.w3.org/2000/svg">
<path d="M40.1367 39.9424C40.0781 40.0498 39.9756 40.2451 39.8291 40.5283C39.6924 40.8115 39.502 41.1338 39.2578 41.4951C39.0234 41.8467 38.7402 42.2129 38.4082 42.5938C38.0762 42.9746 37.6953 43.3262 37.2656 43.6484C36.8359 43.9609 36.3525 44.2197 35.8154 44.4248C35.2881 44.6299 34.7119 44.7324 34.0869 44.7324C33.5303 44.7324 33.0371 44.6299 32.6074 44.4248C32.1777 44.2295 31.8115 43.9512 31.5088 43.5898C31.2061 43.2188 30.9766 42.7842 30.8203 42.2861C30.6641 41.7881 30.5859 41.2363 30.5859 40.6309C30.5859 40.0449 30.6689 39.498 30.835 38.9902C31.001 38.4727 31.2256 38.0234 31.5088 37.6426C31.8018 37.2617 32.1387 36.9639 32.5195 36.749C32.9004 36.5244 33.3057 36.4121 33.7354 36.4121C34.0576 36.4121 34.3506 36.4707 34.6143 36.5879C34.8779 36.6953 35.0977 36.8418 35.2734 37.0273C35.459 37.2129 35.6006 37.418 35.6982 37.6426C35.8057 37.8672 35.8594 38.0918 35.8594 38.3164C35.8594 38.5312 35.8301 38.7314 35.7715 38.917C35.7227 39.1025 35.6543 39.2686 35.5664 39.415C35.4883 39.5518 35.3955 39.6641 35.2881 39.752C35.1807 39.8301 35.0732 39.8691 34.9658 39.8691C34.7998 39.8691 34.6631 39.8154 34.5557 39.708C34.458 39.6006 34.4092 39.4688 34.4092 39.3125C34.4092 39.2344 34.4238 39.166 34.4531 39.1074C34.4922 39.0488 34.5312 38.9902 34.5703 38.9316C34.6191 38.8633 34.6582 38.7852 34.6875 38.6973C34.7266 38.5996 34.7461 38.4775 34.7461 38.3311C34.7461 38.126 34.6484 37.9404 34.4531 37.7744C34.2676 37.6084 34.0283 37.5254 33.7354 37.5254C33.4619 37.5254 33.1982 37.6084 32.9443 37.7744C32.7002 37.9404 32.4854 38.165 32.2998 38.4482C32.1143 38.7217 31.9629 39.0488 31.8457 39.4297C31.7383 39.8008 31.6846 40.1963 31.6846 40.6162C31.6846 41.0166 31.7334 41.3975 31.8311 41.7588C31.9287 42.1201 32.0752 42.4424 32.2705 42.7256C32.4658 42.999 32.71 43.2188 33.0029 43.3848C33.3057 43.5508 33.6621 43.6338 34.0723 43.6338C34.5996 43.6338 35.0879 43.541 35.5371 43.3555C35.9863 43.1602 36.3965 42.916 36.7676 42.623C37.1387 42.3301 37.4658 42.0127 37.749 41.6709C38.0322 41.3193 38.2715 40.9922 38.4668 40.6895C38.6719 40.377 38.8281 40.1084 38.9355 39.8838C39.0527 39.6494 39.1211 39.5029 39.1406 39.4443C39.1797 39.3467 39.2432 39.2734 39.3311 39.2246C39.4287 39.166 39.5312 39.1367 39.6387 39.1367C39.8047 39.1367 39.9365 39.1953 40.0342 39.3125C40.1416 39.4297 40.1953 39.5615 40.1953 39.708C40.1953 39.7666 40.1758 39.8447 40.1367 39.9424ZM47.4756 39.9424C47.3682 40.167 47.2314 40.4355 47.0654 40.748C46.9092 41.0508 46.7285 41.3682 46.5234 41.7002C46.3184 42.0322 46.0889 42.3643 45.835 42.6963C45.5811 43.0186 45.3027 43.3115 45 43.5752C44.707 43.8291 44.3896 44.0342 44.0479 44.1904C43.7158 44.3564 43.3594 44.4395 42.9785 44.4395C42.3926 44.4395 41.8896 44.2588 41.4697 43.8975C41.0498 43.5361 40.6934 43.0625 40.4004 42.4766C40.1074 41.8906 39.8682 41.2266 39.6826 40.4844C39.5068 39.7324 39.3701 38.9707 39.2725 38.1992C39.1748 37.418 39.1064 36.6611 39.0674 35.9287C39.0381 35.1963 39.0234 34.5469 39.0234 33.9805C39.0234 33.1602 39.0479 32.3105 39.0967 31.4316C39.1553 30.5527 39.2432 29.6934 39.3604 28.8535C39.4775 28.0137 39.624 27.2178 39.7998 26.4658C39.9854 25.7139 40.2002 25.0547 40.4443 24.4883C40.6982 23.9219 40.9863 23.4727 41.3086 23.1406C41.6309 22.8086 41.9971 22.6426 42.4072 22.6426C42.7295 22.6426 43.0176 22.7207 43.2715 22.877C43.5352 23.0234 43.7549 23.2676 43.9307 23.6094C44.1064 23.9512 44.2432 24.3955 44.3408 24.9424C44.4385 25.4893 44.4873 26.1582 44.4873 26.9492C44.4873 27.9258 44.3848 28.9365 44.1797 29.9814C43.9746 31.0166 43.6963 32.0615 43.3447 33.1162C42.9932 34.1709 42.5781 35.2256 42.0996 36.2803C41.6211 37.3252 41.1084 38.3457 40.5615 39.3418C40.8057 40.582 41.1328 41.5586 41.543 42.2715C41.9531 42.9746 42.4463 43.3262 43.0225 43.3262C43.4131 43.3262 43.7891 43.1748 44.1504 42.8721C44.5117 42.5596 44.8438 42.1934 45.1465 41.7734C45.4492 41.3535 45.7129 40.9287 45.9375 40.499C46.1719 40.0596 46.3525 39.708 46.4795 39.4443C46.5283 39.3467 46.5967 39.2734 46.6846 39.2246C46.7725 39.166 46.8701 39.1367 46.9775 39.1367C47.1436 39.1367 47.2754 39.1953 47.373 39.3125C47.4805 39.4297 47.5342 39.5615 47.5342 39.708C47.5342 39.7666 47.5146 39.8447 47.4756 39.9424ZM40.1367 34.0537C40.1367 34.6787 40.1514 35.2793 40.1807 35.8555C40.21 36.4316 40.249 36.9834 40.2979 37.5107C40.708 36.7197 41.0986 35.8799 41.4697 34.9912C41.8408 34.0928 42.168 33.1895 42.4512 32.2812C42.7344 31.3633 42.959 30.4551 43.125 29.5566C43.3008 28.6484 43.3887 27.7842 43.3887 26.9639C43.3887 25.8115 43.2959 24.9863 43.1104 24.4883C42.9248 23.9902 42.6758 23.7412 42.3633 23.7412C42.1582 23.7412 41.958 23.8828 41.7627 24.166C41.5771 24.4492 41.4014 24.835 41.2354 25.3232C41.0693 25.8115 40.918 26.3877 40.7812 27.0518C40.6445 27.7158 40.5273 28.4287 40.4297 29.1904C40.3418 29.9521 40.2686 30.748 40.21 31.5781C40.1611 32.4082 40.1367 33.2334 40.1367 34.0537ZM57.8174 39.9131C57.7783 39.9912 57.6953 40.1572 57.5684 40.4111C57.4512 40.6553 57.2949 40.9385 57.0996 41.2607C56.9141 41.583 56.6943 41.9199 56.4404 42.2715C56.1865 42.623 55.9033 42.9453 55.5908 43.2383C55.2783 43.5312 54.9414 43.7754 54.5801 43.9707C54.2188 44.1562 53.8379 44.249 53.4375 44.249C52.8711 44.249 52.3926 44.0684 52.002 43.707C51.6211 43.3457 51.3428 42.8916 51.167 42.3447C50.835 42.9014 50.4395 43.3457 49.9805 43.6777C49.5215 44 49.0625 44.1611 48.6035 44.1611C48.2422 44.1611 47.915 44.0977 47.6221 43.9707C47.3291 43.834 47.0801 43.6484 46.875 43.4141C46.6699 43.1699 46.5088 42.8867 46.3916 42.5645C46.2842 42.2422 46.2305 41.8906 46.2305 41.5098C46.2305 40.748 46.3574 40.0791 46.6113 39.5029C46.875 38.917 47.207 38.4287 47.6074 38.0381C48.0078 37.6475 48.4473 37.3545 48.9258 37.1592C49.4141 36.9639 49.8828 36.8662 50.332 36.8662C50.6348 36.8662 50.9131 36.9102 51.167 36.998C51.4209 37.0762 51.6357 37.1641 51.8115 37.2617C51.9971 37.3594 52.1387 37.4521 52.2363 37.54C52.334 37.6182 52.3877 37.6621 52.3975 37.6719C52.5049 37.7988 52.5586 37.9307 52.5586 38.0674C52.5586 38.2139 52.5049 38.3457 52.3975 38.4629C52.29 38.5703 52.1631 38.624 52.0166 38.624C51.8604 38.624 51.7285 38.5703 51.6211 38.4629C51.6016 38.4434 51.5576 38.4092 51.4893 38.3604C51.4209 38.3018 51.3281 38.2432 51.2109 38.1846C51.0938 38.126 50.9521 38.0771 50.7861 38.0381C50.6299 37.9893 50.4492 37.9648 50.2441 37.9648C49.9414 37.9648 49.6191 38.0332 49.2773 38.1699C48.9355 38.3066 48.623 38.5215 48.3398 38.8145C48.0566 39.0977 47.8174 39.459 47.6221 39.8984C47.4365 40.3281 47.3438 40.8408 47.3438 41.4365C47.3438 41.6221 47.3633 41.8125 47.4023 42.0078C47.4414 42.1934 47.5098 42.3643 47.6074 42.5205C47.7051 42.6768 47.8369 42.8037 48.0029 42.9014C48.1689 42.999 48.374 43.0479 48.6182 43.0479C48.7939 43.0479 48.9941 42.9893 49.2188 42.8721C49.4531 42.7549 49.6729 42.5742 49.8779 42.3301C50.0928 42.0859 50.2832 41.7783 50.4492 41.4072C50.625 41.0361 50.7471 40.5967 50.8154 40.0889C50.835 39.9521 50.8984 39.8398 51.0059 39.752C51.1133 39.6543 51.2402 39.6055 51.3867 39.6055C51.5234 39.6055 51.6406 39.6592 51.7383 39.7666C51.8457 39.874 51.9043 39.9961 51.9141 40.1328C51.9238 40.3184 51.9434 40.582 51.9727 40.9238C52.002 41.2559 52.0654 41.5879 52.1631 41.9199C52.2705 42.252 52.4268 42.54 52.6318 42.7842C52.8369 43.0283 53.1201 43.1504 53.4814 43.1504C53.7158 43.1504 53.9453 43.0869 54.1699 42.96C54.4043 42.833 54.6289 42.667 54.8438 42.4619C55.0684 42.2471 55.2783 42.0078 55.4736 41.7441C55.6787 41.4707 55.8643 41.1973 56.0303 40.9238C56.1963 40.6504 56.3428 40.3867 56.4697 40.1328C56.5967 39.8789 56.7041 39.6592 56.792 39.4736C56.8408 39.3662 56.9092 39.2832 56.9971 39.2246C57.0947 39.166 57.1973 39.1367 57.3047 39.1367C57.4707 39.1367 57.6025 39.2002 57.7002 39.3271C57.8076 39.4443 57.8613 39.5713 57.8613 39.708C57.8613 39.7764 57.8467 39.8447 57.8174 39.9131ZM58.3447 37.9795C58.3057 38.2432 58.2568 38.4922 58.1982 38.7266C58.1396 38.9512 58.0811 39.1514 58.0225 39.3271C57.9736 39.4932 57.9297 39.6299 57.8906 39.7373C57.8516 39.8447 57.8271 39.9033 57.8174 39.9131C57.7197 40.1377 57.5488 40.25 57.3047 40.25C57.168 40.25 57.041 40.2012 56.9238 40.1035C56.8066 39.9961 56.748 39.8643 56.748 39.708C56.748 39.6494 56.7578 39.6055 56.7773 39.5762C56.7969 39.5469 56.8262 39.4883 56.8652 39.4004C56.9043 39.3125 56.9531 39.166 57.0117 38.9609C57.0703 38.7559 57.1436 38.4385 57.2314 38.0088C57.0654 38.0088 56.8945 38.0039 56.7188 37.9941C56.543 37.9844 56.3818 37.9502 56.2354 37.8916C56.0791 37.833 55.9521 37.7402 55.8545 37.6133C55.7568 37.4863 55.708 37.3105 55.708 37.0859C55.708 36.9199 55.7568 36.6953 55.8545 36.4121C55.9424 36.1289 56.0645 35.8506 56.2207 35.5771C56.377 35.3037 56.5527 35.0693 56.748 34.874C56.9434 34.6689 57.1387 34.5664 57.334 34.5664C57.5586 34.5664 57.7393 34.6494 57.876 34.8154C58.0225 34.9814 58.1348 35.1865 58.2129 35.4307C58.291 35.665 58.3447 35.9141 58.374 36.1777C58.4131 36.4414 58.4326 36.6709 58.4326 36.8662C58.5986 36.8662 58.7598 36.8662 58.916 36.8662C59.082 36.8564 59.2383 36.8516 59.3848 36.8516C59.9414 36.8516 60.3662 36.9736 60.6592 37.2178C60.9521 37.4619 61.0986 37.8623 61.0986 38.4189C61.0986 38.6436 61.084 38.8779 61.0547 39.1221C61.0254 39.3662 60.9912 39.6201 60.9521 39.8838C60.9131 40.1377 60.8789 40.3916 60.8496 40.6455C60.8203 40.8994 60.8057 41.1484 60.8057 41.3926C60.8057 41.7441 60.8545 42.0371 60.9521 42.2715C61.0498 42.4961 61.1719 42.6768 61.3184 42.8135C61.4648 42.9502 61.6211 43.0479 61.7871 43.1064C61.9531 43.1553 62.1045 43.1797 62.2412 43.1797C62.6611 43.1797 63.0566 43.043 63.4277 42.7695C63.7988 42.4961 64.1406 42.1689 64.4531 41.7881C64.7656 41.3975 65.0439 40.9873 65.2881 40.5576C65.542 40.1279 65.752 39.752 65.918 39.4297C65.9668 39.3418 66.0352 39.2734 66.123 39.2246C66.2109 39.1758 66.3037 39.1514 66.4014 39.1514C66.5771 39.1514 66.7139 39.21 66.8115 39.3271C66.9092 39.4346 66.958 39.5566 66.958 39.6934C66.958 39.791 66.9385 39.8789 66.8994 39.957C66.6748 40.3574 66.4111 40.8115 66.1084 41.3193C65.8154 41.8174 65.4785 42.2861 65.0977 42.7256C64.7168 43.165 64.2871 43.5361 63.8086 43.8389C63.3398 44.1416 62.8223 44.293 62.2559 44.293C61.9043 44.293 61.5723 44.2246 61.2598 44.0879C60.9473 43.9609 60.6738 43.7754 60.4395 43.5312C60.2148 43.2773 60.0342 42.9697 59.8975 42.6084C59.7607 42.2373 59.6924 41.8223 59.6924 41.3633C59.6924 40.875 59.7412 40.3916 59.8389 39.9131C59.9365 39.4248 59.9854 38.9609 59.9854 38.5215C59.9854 38.3359 59.9414 38.1992 59.8535 38.1113C59.7754 38.0137 59.5947 37.9648 59.3115 37.9648C59.1748 37.9648 59.0234 37.9648 58.8574 37.9648C58.7012 37.9648 58.5303 37.9697 58.3447 37.9795ZM57.3633 36.8955C57.3633 36.8271 57.3584 36.7393 57.3486 36.6318C57.3486 36.5146 57.3389 36.4023 57.3193 36.2949C57.3096 36.1875 57.29 36.0947 57.2607 36.0166C57.2412 35.9385 57.2168 35.8994 57.1875 35.8994C57.1582 35.8994 57.1191 35.9385 57.0703 36.0166C57.0312 36.085 56.9873 36.1729 56.9385 36.2803C56.8896 36.3779 56.8457 36.4854 56.8066 36.6025C56.7676 36.7197 56.7383 36.8174 56.7188 36.8955H57.3633ZM68.3057 32.501C68.3057 32.8721 68.1738 33.1895 67.9102 33.4531C67.6562 33.707 67.3438 33.834 66.9727 33.834C66.6016 33.834 66.2842 33.707 66.0205 33.4531C65.7666 33.1895 65.6396 32.8721 65.6396 32.501C65.6396 32.3154 65.6738 32.1445 65.7422 31.9883C65.8105 31.8223 65.9033 31.6807 66.0205 31.5635C66.1475 31.4365 66.2891 31.3389 66.4453 31.2705C66.6113 31.2021 66.7871 31.168 66.9727 31.168C67.1582 31.168 67.3291 31.2021 67.4854 31.2705C67.6514 31.3389 67.793 31.4365 67.9102 31.5635C68.0371 31.6807 68.1348 31.8223 68.2031 31.9883C68.2715 32.1445 68.3057 32.3154 68.3057 32.501ZM65.9326 41.085C65.9326 39.6787 66.0205 38.2773 66.1963 36.8809C66.2158 36.7441 66.2744 36.627 66.3721 36.5293C66.4795 36.4219 66.6162 36.3682 66.7822 36.3682C66.9287 36.3682 67.0508 36.4268 67.1484 36.5439C67.2461 36.6514 67.2949 36.7783 67.2949 36.9248C67.2949 36.9834 67.2803 37.1592 67.251 37.4521C67.2314 37.7451 67.2021 38.0967 67.1631 38.5068C67.1338 38.9072 67.1045 39.3369 67.0752 39.7959C67.0557 40.2451 67.0459 40.6602 67.0459 41.041C67.0459 41.5586 67.0947 41.9785 67.1924 42.3008C67.2998 42.6133 67.4316 42.8574 67.5879 43.0332C67.7539 43.209 67.9248 43.3262 68.1006 43.3848C68.2861 43.4434 68.4619 43.4727 68.6279 43.4727C68.9014 43.4727 69.1846 43.375 69.4775 43.1797C69.7705 42.9844 70.0684 42.7109 70.3711 42.3594C70.6836 42.0078 70.9961 41.5879 71.3086 41.0996C71.6211 40.6016 71.9287 40.0498 72.2314 39.4443C72.2803 39.3467 72.3486 39.2734 72.4365 39.2246C72.5244 39.166 72.6221 39.1367 72.7295 39.1367C72.8857 39.1367 73.0127 39.1953 73.1104 39.3125C73.2178 39.4297 73.2715 39.5566 73.2715 39.6934C73.2715 39.791 73.252 39.874 73.2129 39.9424C73.0957 40.167 72.9492 40.4404 72.7734 40.7627C72.5977 41.085 72.3975 41.417 72.1729 41.7588C71.9482 42.1006 71.6992 42.4424 71.4258 42.7842C71.1621 43.1162 70.8789 43.4189 70.5762 43.6924C70.2734 43.9561 69.9561 44.1709 69.624 44.3369C69.292 44.5029 68.9551 44.5859 68.6133 44.5859C68.1738 44.5859 67.7881 44.4932 67.4561 44.3076C67.124 44.1221 66.8408 43.873 66.6064 43.5605C66.3818 43.248 66.2109 42.8818 66.0938 42.4619C65.9863 42.0322 65.9326 41.5732 65.9326 41.085ZM67.4854 32.501C67.4854 32.3643 67.4316 32.2471 67.3242 32.1494C67.2266 32.042 67.1094 31.9883 66.9727 31.9883C66.8359 31.9883 66.7188 32.042 66.6211 32.1494C66.5234 32.2471 66.4746 32.3643 66.4746 32.501C66.4746 32.6377 66.5234 32.7549 66.6211 32.8525C66.7188 32.9502 66.8359 32.999 66.9727 32.999C67.1094 32.999 67.2266 32.9502 67.3242 32.8525C67.4316 32.7549 67.4854 32.6377 67.4854 32.501ZM73.8428 38.5801C73.7842 38.7363 73.7109 38.9121 73.623 39.1074C73.5449 39.3027 73.4521 39.5078 73.3447 39.7227C73.2568 39.8887 73.1641 40.0205 73.0664 40.1182C72.9785 40.2061 72.8613 40.25 72.7148 40.25C72.5488 40.25 72.417 40.2012 72.3193 40.1035C72.2217 39.9961 72.1729 39.874 72.1729 39.7373C72.1729 39.6885 72.1777 39.6494 72.1875 39.6201C72.1973 39.5811 72.2217 39.5225 72.2607 39.4443C72.5146 38.9561 72.7002 38.5312 72.8174 38.1699C72.9443 37.7988 73.0469 37.4131 73.125 37.0127C73.0566 36.7881 73.0078 36.5977 72.9785 36.4414C72.9492 36.2852 72.9346 36.124 72.9346 35.958C72.9346 35.6357 73.0029 35.377 73.1396 35.1816C73.2764 34.9766 73.4668 34.874 73.7109 34.874C73.9355 34.874 74.1113 34.9717 74.2383 35.167C74.375 35.3623 74.4434 35.6016 74.4434 35.8848C74.4434 36.041 74.4287 36.1973 74.3994 36.3535C74.3701 36.5098 74.3311 36.7051 74.2822 36.9395C74.5068 37.4961 74.7314 37.9893 74.9561 38.4189C75.1807 38.8486 75.3809 39.2441 75.5566 39.6055C75.7324 39.957 75.874 40.2891 75.9814 40.6016C76.0986 40.9141 76.1572 41.2266 76.1572 41.5391C76.1572 41.9492 76.0742 42.3398 75.9082 42.7109C75.7422 43.082 75.4688 43.3945 75.0879 43.6484C75.1367 43.6582 75.1855 43.6631 75.2344 43.6631C75.2832 43.6631 75.332 43.6631 75.3809 43.6631C75.9375 43.6631 76.4502 43.5361 76.9189 43.2822C77.3877 43.0283 77.8076 42.7012 78.1787 42.3008C78.5596 41.8906 78.8965 41.4414 79.1895 40.9531C79.4824 40.4551 79.7363 39.9619 79.9512 39.4736C80.0488 39.249 80.1855 39.1367 80.3613 39.1367C80.5273 39.1367 80.6543 39.1953 80.7422 39.3125C80.8398 39.4297 80.8887 39.5566 80.8887 39.6934C80.8887 39.7715 80.874 39.8447 80.8447 39.9131C80.7373 40.1768 80.5957 40.4795 80.4199 40.8213C80.2539 41.1533 80.0488 41.5 79.8047 41.8613C79.5703 42.2129 79.2969 42.5596 78.9844 42.9014C78.6719 43.2432 78.3203 43.5508 77.9297 43.8242C77.5488 44.0879 77.1289 44.2979 76.6699 44.4541C76.2109 44.6201 75.708 44.7031 75.1611 44.7031C74.5068 44.7031 73.8965 44.5859 73.3301 44.3516C72.7734 44.127 72.3193 43.751 71.9678 43.2236C71.9092 43.1357 71.8799 43.043 71.8799 42.9453C71.8799 42.7988 71.9336 42.6719 72.041 42.5645C72.1582 42.4473 72.29 42.3887 72.4365 42.3887C72.5928 42.3887 72.7246 42.4424 72.832 42.5498C72.8418 42.5693 72.876 42.6035 72.9346 42.6523C72.9932 42.6914 73.0615 42.7402 73.1396 42.7988C73.2275 42.8477 73.3252 42.8916 73.4326 42.9307C73.5498 42.9697 73.667 42.9893 73.7842 42.9893C74.0186 42.9893 74.2139 42.9404 74.3701 42.8428C74.5361 42.7451 74.668 42.6279 74.7656 42.4912C74.8633 42.3447 74.9316 42.1934 74.9707 42.0371C75.0195 41.8711 75.0439 41.7295 75.0439 41.6123C75.0439 41.3682 75.0049 41.124 74.9268 40.8799C74.8486 40.6357 74.7461 40.3916 74.6191 40.1475C74.502 39.9033 74.3701 39.6543 74.2236 39.4004C74.0869 39.1367 73.96 38.8633 73.8428 38.5801ZM81.46 38.5801C81.4014 38.7363 81.3281 38.9121 81.2402 39.1074C81.1621 39.3027 81.0693 39.5078 80.9619 39.7227C80.874 39.8887 80.7812 40.0205 80.6836 40.1182C80.5957 40.2061 80.4785 40.25 80.332 40.25C80.166 40.25 80.0342 40.2012 79.9365 40.1035C79.8389 39.9961 79.79 39.874 79.79 39.7373C79.79 39.6885 79.7949 39.6494 79.8047 39.6201C79.8145 39.5811 79.8389 39.5225 79.8779 39.4443C80.1318 38.9561 80.3174 38.5312 80.4346 38.1699C80.5615 37.7988 80.6641 37.4131 80.7422 37.0127C80.6738 36.7881 80.625 36.5977 80.5957 36.4414C80.5664 36.2852 80.5518 36.124 80.5518 35.958C80.5518 35.6357 80.6201 35.377 80.7568 35.1816C80.8936 34.9766 81.084 34.874 81.3281 34.874C81.5527 34.874 81.7285 34.9717 81.8555 35.167C81.9922 35.3623 82.0605 35.6016 82.0605 35.8848C82.0605 36.041 82.0459 36.1973 82.0166 36.3535C81.9873 36.5098 81.9482 36.7051 81.8994 36.9395C82.124 37.4961 82.3486 37.9893 82.5732 38.4189C82.7979 38.8486 82.998 39.2441 83.1738 39.6055C83.3496 39.957 83.4912 40.2891 83.5986 40.6016C83.7158 40.9141 83.7744 41.2266 83.7744 41.5391C83.7744 41.9492 83.6914 42.3398 83.5254 42.7109C83.3594 43.082 83.0859 43.3945 82.7051 43.6484C82.7539 43.6582 82.8027 43.6631 82.8516 43.6631C82.9004 43.6631 82.9492 43.6631 82.998 43.6631C83.5547 43.6631 84.0674 43.5361 84.5361 43.2822C85.0049 43.0283 85.4248 42.7012 85.7959 42.3008C86.1768 41.8906 86.5137 41.4414 86.8066 40.9531C87.0996 40.4551 87.3535 39.9619 87.5684 39.4736C87.666 39.249 87.8027 39.1367 87.9785 39.1367C88.1445 39.1367 88.2715 39.1953 88.3594 39.3125C88.457 39.4297 88.5059 39.5566 88.5059 39.6934C88.5059 39.7715 88.4912 39.8447 88.4619 39.9131C88.3545 40.1768 88.2129 40.4795 88.0371 40.8213C87.8711 41.1533 87.666 41.5 87.4219 41.8613C87.1875 42.2129 86.9141 42.5596 86.6016 42.9014C86.2891 43.2432 85.9375 43.5508 85.5469 43.8242C85.166 44.0879 84.7461 44.2979 84.2871 44.4541C83.8281 44.6201 83.3252 44.7031 82.7783 44.7031C82.124 44.7031 81.5137 44.5859 80.9473 44.3516C80.3906 44.127 79.9365 43.751 79.585 43.2236C79.5264 43.1357 79.4971 43.043 79.4971 42.9453C79.4971 42.7988 79.5508 42.6719 79.6582 42.5645C79.7754 42.4473 79.9072 42.3887 80.0537 42.3887C80.21 42.3887 80.3418 42.4424 80.4492 42.5498C80.459 42.5693 80.4932 42.6035 80.5518 42.6523C80.6104 42.6914 80.6787 42.7402 80.7568 42.7988C80.8447 42.8477 80.9424 42.8916 81.0498 42.9307C81.167 42.9697 81.2842 42.9893 81.4014 42.9893C81.6357 42.9893 81.8311 42.9404 81.9873 42.8428C82.1533 42.7451 82.2852 42.6279 82.3828 42.4912C82.4805 42.3447 82.5488 42.1934 82.5879 42.0371C82.6367 41.8711 82.6611 41.7295 82.6611 41.6123C82.6611 41.3682 82.6221 41.124 82.5439 40.8799C82.4658 40.6357 82.3633 40.3916 82.2363 40.1475C82.1191 39.9033 81.9873 39.6543 81.8408 39.4004C81.7041 39.1367 81.5771 38.8633 81.46 38.5801ZM89.209 42.3887C89.4141 42.6719 89.6777 42.9014 90 43.0771C90.3223 43.2432 90.7178 43.3262 91.1865 43.3262C91.665 43.3262 92.0996 43.2139 92.4902 42.9893C92.8809 42.7549 93.2373 42.4521 93.5596 42.0811C93.8818 41.71 94.1699 41.2949 94.4238 40.8359C94.6777 40.377 94.9072 39.918 95.1123 39.459C95.1611 39.3516 95.2295 39.2734 95.3174 39.2246C95.4053 39.166 95.5029 39.1367 95.6104 39.1367C95.7764 39.1367 95.9082 39.1953 96.0059 39.3125C96.1133 39.4297 96.167 39.5566 96.167 39.6934C96.167 39.7422 96.1621 39.7861 96.1523 39.8252C96.1426 39.8545 96.1279 39.8887 96.1084 39.9277C95.4346 41.4121 94.6973 42.5303 93.8965 43.2822C93.1055 44.0342 92.207 44.4199 91.2012 44.4395C90.5566 44.4395 90 44.3125 89.5312 44.0586C89.0625 43.8145 88.6768 43.4971 88.374 43.1064C88.0713 42.7061 87.8467 42.2568 87.7002 41.7588C87.5537 41.2607 87.4805 40.7627 87.4805 40.2646C87.4805 39.7666 87.5391 39.3076 87.6562 38.8877C87.7832 38.4678 87.959 38.1016 88.1836 37.7891C88.418 37.4766 88.6914 37.2324 89.0039 37.0566C89.3262 36.8809 89.6777 36.793 90.0586 36.793C90.2832 36.793 90.5029 36.8418 90.7178 36.9395C90.9424 37.0273 91.1426 37.1592 91.3184 37.335C91.4941 37.501 91.6357 37.7061 91.7432 37.9502C91.8506 38.1943 91.9043 38.4727 91.9043 38.7852C91.9043 39.1855 91.8359 39.5615 91.6992 39.9131C91.5625 40.2646 91.3721 40.5918 91.1279 40.8945C90.8936 41.1973 90.6104 41.4756 90.2783 41.7295C89.9463 41.9834 89.5898 42.2031 89.209 42.3887ZM88.7695 41.4365C89.0723 41.3096 89.3457 41.1484 89.5898 40.9531C89.8438 40.7578 90.0586 40.543 90.2344 40.3086C90.4102 40.0742 90.5469 39.8301 90.6445 39.5762C90.7422 39.3125 90.791 39.0488 90.791 38.7852C90.791 38.4922 90.7178 38.2725 90.5713 38.126C90.4248 37.9697 90.2539 37.8916 90.0586 37.8916C89.7949 37.8916 89.5703 37.9648 89.3848 38.1113C89.1992 38.2578 89.0479 38.4482 88.9307 38.6826C88.8135 38.917 88.7256 39.1807 88.667 39.4736C88.6182 39.7568 88.5938 40.04 88.5938 40.3232C88.5938 40.499 88.6084 40.6846 88.6377 40.8799C88.6768 41.0752 88.7207 41.2607 88.7695 41.4365ZM102.876 42.7549C103.032 42.4229 103.213 42.0664 103.418 41.6855C103.623 41.2949 103.843 40.8994 104.077 40.499C104.312 40.0889 104.561 39.6836 104.824 39.2832C105.088 38.8828 105.361 38.5068 105.645 38.1553C105.928 37.8135 106.211 37.5693 106.494 37.4229C106.787 37.2666 107.061 37.1885 107.314 37.1885C107.568 37.1885 107.788 37.2422 107.974 37.3496C108.169 37.4473 108.325 37.584 108.442 37.7598C108.569 37.9355 108.662 38.1406 108.721 38.375C108.789 38.6094 108.823 38.8633 108.823 39.1367C108.823 39.3613 108.799 39.6641 108.75 40.0449C108.711 40.416 108.691 40.8066 108.691 41.2168C108.691 41.4512 108.701 41.6855 108.721 41.9199C108.75 42.1445 108.794 42.3496 108.853 42.5352C108.921 42.7109 109.019 42.8574 109.146 42.9746C109.272 43.082 109.438 43.1357 109.644 43.1357C109.878 43.1357 110.112 43.0723 110.347 42.9453C110.581 42.8086 110.811 42.6328 111.035 42.418C111.26 42.1934 111.475 41.9492 111.68 41.6855C111.885 41.4121 112.07 41.1436 112.236 40.8799C112.402 40.6064 112.549 40.3477 112.676 40.1035C112.803 39.8496 112.905 39.6396 112.983 39.4736C113.081 39.249 113.252 39.1367 113.496 39.1367C113.662 39.1367 113.794 39.1953 113.892 39.3125C113.989 39.4297 114.038 39.5566 114.038 39.6934C114.038 39.7715 114.023 39.8447 113.994 39.9131C113.955 39.9912 113.877 40.1523 113.76 40.3965C113.652 40.6406 113.501 40.9238 113.306 41.2461C113.12 41.5684 112.9 41.9053 112.646 42.2568C112.393 42.6084 112.109 42.9355 111.797 43.2383C111.494 43.5312 111.162 43.7754 110.801 43.9707C110.449 44.1562 110.078 44.249 109.688 44.249C109.238 44.249 108.877 44.1562 108.604 43.9707C108.33 43.7754 108.115 43.5312 107.959 43.2383C107.812 42.9453 107.71 42.6182 107.651 42.2568C107.603 41.8955 107.578 41.5439 107.578 41.2021C107.578 41.0264 107.583 40.8408 107.593 40.6455C107.612 40.4404 107.632 40.2402 107.651 40.0449C107.671 39.8496 107.686 39.6689 107.695 39.5029C107.715 39.3271 107.725 39.1807 107.725 39.0635C107.725 38.7607 107.681 38.5557 107.593 38.4482C107.515 38.3408 107.422 38.2871 107.314 38.2871C107.158 38.2871 106.978 38.3799 106.772 38.5654C106.577 38.7412 106.367 38.9756 106.143 39.2686C105.928 39.5615 105.708 39.8936 105.483 40.2646C105.269 40.626 105.059 40.9873 104.854 41.3486C104.648 41.71 104.463 42.0566 104.297 42.3887C104.131 42.7109 103.994 42.9795 103.887 43.1943C103.682 43.6045 103.472 43.8779 103.257 44.0146C103.052 44.1611 102.866 44.2344 102.7 44.2344C102.397 44.2344 102.163 44.1172 101.997 43.8828C101.841 43.6387 101.763 43.3457 101.763 43.0039V42.0811C101.763 40.2354 101.763 38.4775 101.763 36.8076C101.772 35.1279 101.797 33.5703 101.836 32.1348C101.885 30.6895 101.958 29.3857 102.056 28.2236C102.163 27.0518 102.319 26.0557 102.524 25.2354C102.729 24.4053 102.988 23.7656 103.301 23.3164C103.623 22.8672 104.023 22.6426 104.502 22.6426C104.912 22.6426 105.259 22.7549 105.542 22.9795C105.825 23.2041 106.055 23.5117 106.23 23.9023C106.406 24.2832 106.533 24.7324 106.611 25.25C106.689 25.7578 106.729 26.2949 106.729 26.8613C106.729 28.0137 106.621 29.1465 106.406 30.2598C106.201 31.3633 105.923 32.4424 105.571 33.4971C105.22 34.5518 104.81 35.582 104.341 36.5879C103.872 37.584 103.379 38.5557 102.861 39.5029C102.861 39.6787 102.861 39.8887 102.861 40.1328C102.861 40.377 102.861 40.6211 102.861 40.8652C102.861 41.1094 102.861 41.3389 102.861 41.5537C102.861 41.7686 102.861 41.9395 102.861 42.0664L102.876 42.7549ZM102.876 37.3496C103.286 36.4512 103.657 35.5771 103.989 34.7275C104.331 33.8682 104.619 33.0137 104.854 32.1641C105.098 31.3145 105.288 30.4551 105.425 29.5859C105.562 28.707 105.63 27.7939 105.63 26.8467C105.63 26.6904 105.62 26.4414 105.601 26.0996C105.591 25.7578 105.547 25.4111 105.469 25.0596C105.4 24.708 105.288 24.4004 105.132 24.1367C104.985 23.873 104.775 23.7412 104.502 23.7412C104.287 23.7412 104.102 23.8877 103.945 24.1807C103.789 24.4639 103.652 24.8545 103.535 25.3525C103.418 25.8408 103.32 26.4121 103.242 27.0664C103.164 27.7207 103.101 28.4141 103.052 29.1465C103.003 29.8789 102.964 30.6309 102.935 31.4023C102.915 32.1738 102.9 32.9258 102.891 33.6582C102.881 34.3809 102.876 35.0596 102.876 35.6943C102.876 36.3291 102.876 36.8809 102.876 37.3496ZM118.682 39.7373C119.16 41.9932 119.854 43.1211 120.762 43.1211C121.113 43.1211 121.45 42.9941 121.772 42.7402C122.095 42.4766 122.393 42.1592 122.666 41.7881C122.949 41.4072 123.198 41.0068 123.413 40.5869C123.628 40.167 123.804 39.8008 123.94 39.4883C124.038 39.2539 124.209 39.1367 124.453 39.1367C124.609 39.1367 124.741 39.1953 124.849 39.3125C124.956 39.4297 125.01 39.5566 125.01 39.6934C125.01 39.7715 124.995 39.8398 124.966 39.8984C124.897 40.0645 124.795 40.2891 124.658 40.5723C124.531 40.8457 124.37 41.1436 124.175 41.4658C123.989 41.7783 123.779 42.1006 123.545 42.4326C123.311 42.7646 123.052 43.0625 122.769 43.3262C122.485 43.5898 122.183 43.8096 121.86 43.9854C121.548 44.1514 121.216 44.2344 120.864 44.2344C120.21 44.2344 119.648 44.0098 119.18 43.5605C118.711 43.1016 118.306 42.3496 117.964 41.3047C117.495 42.3008 117.021 43.0234 116.543 43.4727C116.064 43.9219 115.547 44.1465 114.99 44.1465C114.697 44.1465 114.414 44.0977 114.141 44C113.867 43.9121 113.628 43.7607 113.423 43.5459C113.218 43.3311 113.052 43.0576 112.925 42.7256C112.798 42.3838 112.734 41.9688 112.734 41.4805C112.734 40.8066 112.852 40.1865 113.086 39.6201C113.32 39.0537 113.623 38.5703 113.994 38.1699C114.365 37.7598 114.775 37.4424 115.225 37.2178C115.684 36.9932 116.138 36.8809 116.587 36.8809C116.733 36.8809 116.86 36.9346 116.968 37.042C117.075 37.1396 117.129 37.2666 117.129 37.4229C117.129 37.5596 117.085 37.6816 116.997 37.7891C116.909 37.8965 116.792 37.96 116.646 37.9795C116.353 38.0186 116.04 38.1113 115.708 38.2578C115.376 38.4043 115.068 38.6191 114.785 38.9023C114.512 39.1758 114.282 39.5273 114.097 39.957C113.921 40.3867 113.833 40.8994 113.833 41.4951C113.833 41.9834 113.931 42.3643 114.126 42.6377C114.331 42.9111 114.624 43.0479 115.005 43.0479C115.161 43.0479 115.327 43.0088 115.503 42.9307C115.679 42.8428 115.864 42.6768 116.06 42.4326C116.265 42.1885 116.484 41.8418 116.719 41.3926C116.963 40.9434 117.231 40.3525 117.524 39.6201C117.358 38.7607 117.207 37.7695 117.07 36.6465C116.934 35.5234 116.865 34.2686 116.865 32.8818C116.865 32.2764 116.885 31.6465 116.924 30.9922C116.963 30.3281 117.026 29.6836 117.114 29.0586C117.202 28.4238 117.319 27.8232 117.466 27.2568C117.612 26.6904 117.788 26.1924 117.993 25.7627C118.208 25.333 118.457 24.9961 118.74 24.752C119.023 24.498 119.346 24.3711 119.707 24.3711C120.029 24.3711 120.303 24.459 120.527 24.6348C120.752 24.8105 120.933 25.0547 121.069 25.3672C121.216 25.6797 121.323 26.0557 121.392 26.4951C121.46 26.9346 121.494 27.418 121.494 27.9453C121.494 29.0781 121.396 30.2109 121.201 31.3438C121.006 32.4766 120.762 33.5605 120.469 34.5957C120.186 35.6309 119.883 36.5879 119.561 37.4668C119.238 38.3457 118.945 39.1025 118.682 39.7373ZM120.396 27.9307C120.396 27.6865 120.386 27.4229 120.366 27.1396C120.356 26.8564 120.322 26.5928 120.264 26.3486C120.215 26.0947 120.146 25.8848 120.059 25.7188C119.971 25.5527 119.854 25.4697 119.707 25.4697C119.463 25.4697 119.233 25.6846 119.019 26.1143C118.813 26.5439 118.633 27.1104 118.477 27.8135C118.32 28.5068 118.193 29.2979 118.096 30.1865C118.008 31.0654 117.964 31.9541 117.964 32.8525C117.964 33.7119 117.998 34.5713 118.066 35.4307C118.135 36.29 118.213 37.0566 118.301 37.7305C118.584 36.9785 118.853 36.207 119.106 35.416C119.36 34.6152 119.58 33.7998 119.766 32.9697C119.961 32.1396 120.112 31.3047 120.22 30.4648C120.337 29.6152 120.396 28.7705 120.396 27.9307Z" fill="#594A4E"/>
<path fill-rule="evenodd" clip-rule="evenodd" d="M96.7648 26.3864C95.8889 27.8939 94.2649 28.3741 92.7671 28.2082C89.5365 27.8099 88.5197 23.1097 88.4138 19.4566C90.5802 20.2372 88.2307 14.7082 95.6359 14.1002C98.2464 13.8216 97.5267 15.8412 98.6801 17.3169C98.6564 20.4139 98.254 23.7791 96.7648 26.3864M81.3775 22.8277C79.4702 34.2699 69.0259 31.5482 67.9288 21.2339C68.9419 20.3179 68.675 18.0561 69.9336 17.2366C71.9284 15.6039 74.4219 15.6737 76.6871 15.7121C79.5825 15.9669 80.4076 17.5034 81.895 19.1797C81.8234 20.2994 81.6171 21.6264 81.3775 22.8277M100.902 12.2052C100.795 12.1824 100.688 12.1609 100.581 12.1407C100.497 12.0799 100.399 12.0331 100.285 12.0049C100.024 11.9201 99.7647 11.8629 99.5061 11.8321C95.794 10.7619 87.2064 12.2814 86.852 16.3394C85.6699 16.8449 84.647 16.3922 83.2769 16.4372C82.234 10.8531 64.2041 11.6412 63.3369 15.0079C63.3337 15.0067 63.3304 15.0057 63.3271 15.0044C62.4939 14.6741 61.2656 14.7537 60.3119 14.7014C58.2757 14.6467 56.2371 14.8792 54.2449 15.4294C50.5142 16.1889 45.4227 17.0781 48.0173 23.0461C48.0178 23.0471 48.0182 23.0482 48.0189 23.0492L48.0192 23.0487C48.4664 23.6359 49.2253 23.1631 49.2535 22.3682C48.3812 19.5409 50.3515 19.2014 51.8674 18.3889C55.6395 16.6529 59.4798 16.4122 63.381 16.9492C63.6746 17.3919 64.1199 17.7779 64.5906 17.9799C67.199 18.5346 65.8244 21.0132 67.4731 21.3737C67.1703 30.0141 75.359 34.7304 80.1037 29.0506C81.9981 26.6779 82.4497 23.1631 82.8889 19.9949C83.1212 19.9281 83.2688 19.7654 83.3551 19.5501C83.9136 18.8357 84.2645 18.1761 85.3689 17.9799C86.4734 17.7839 87.3236 18.1774 87.4386 18.2979C87.4676 18.3727 87.4987 18.4477 87.5349 18.5227C87.5854 18.6346 87.6541 18.7237 87.7321 18.7939C86.6415 27.3979 91.8556 32.8392 97.1194 28.3767C99.4066 25.6206 99.8899 21.4009 99.9854 17.6346C100.295 17.3949 100.492 16.9304 100.384 16.3464C100.236 15.5414 100.583 14.8444 101.136 14.4944C101.854 14.0399 101.727 12.3801 100.902 12.2052" fill="#594A4E"/>
</svg>
