<svg width="328" height="586" viewBox="0 0 328 586" fill="none" xmlns="http://www.w3.org/2000/svg">
<path fill-rule="evenodd" clip-rule="evenodd" d="M193.294 85.3936C192.463 84.2153 190.459 75.6648 189.18 74.3496C189.276 69.2985 190.734 51.8101 186.57 43.9486C187.446 43.1002 189.774 35.7929 189.18 33.0305C191.142 27.2453 178.539 18.0569 173.743 15.574C151.451 4.12533 119.149 16.7627 109.012 37.9713C102.92 50.7438 102.808 65.0442 102.119 78.7875C102.037 81.7293 101.755 84.694 101.758 87.6322C102.199 90.2141 104.336 92.8434 102.716 94.9903C100.926 96.1761 97.3084 99.0647 98.9191 100.703C99.863 101.456 101.371 101.019 102.395 101.743C102.917 102.022 103.242 102.634 103.852 102.728C109.423 102.525 113.354 102.508 118.942 102.291C121.388 102.215 125.113 103.206 127.921 101.233C137.73 106.458 133.627 98.8772 135.61 93.48C141.65 95.4359 153.681 101.673 160.119 101.875C165.351 102.494 170.243 99.5757 175.386 100.24C181.775 102.514 189.264 103.019 195.116 99.1724C196.577 98.1648 198.202 99.332 200.043 98.244C203.621 96.6051 195.1 87.2116 193.294 85.3936Z" fill="white"/>
<path fill-rule="evenodd" clip-rule="evenodd" d="M185.992 43.2778C185.913 42.8414 186.541 42.516 186.784 42.9582C188.548 46.1704 189.254 49.8905 189.879 53.4385C190.51 57.024 190.927 60.6243 190.95 64.264C190.968 67.0637 190.702 69.8958 190.204 72.6975L190.264 72.8969V72.8969C190.376 73.2631 190.489 73.6291 190.603 73.9948L190.776 74.5431C191.108 75.5959 191.424 76.6536 191.765 77.7038C192.479 79.8957 193.231 82.0939 194.151 84.215C195.049 86.2849 196.142 88.281 197.44 90.1467C198.691 91.9453 200.677 93.466 201.559 95.4636C201.866 96.1596 201.412 97.0798 200.563 96.9686C200.508 97.0324 200.424 97.0786 200.31 97.0882C199.651 97.1433 199.033 97.0908 198.376 97.0318C198.009 96.9988 198.009 96.5182 198.376 96.4852C198.655 96.4601 198.927 96.438 199.199 96.4229C197.318 95.3558 195.977 93.2721 194.904 91.5662C193.526 89.3745 192.485 86.9798 191.636 84.5581C190.765 82.0717 190.147 79.5335 189.652 76.9563C189.595 76.6596 189.541 76.3627 189.489 76.0655C188.862 78.6168 188.055 81.1214 187.099 83.5286L186.965 83.8636C184.76 89.3375 181.774 94.864 176.808 98.4822C176.582 98.6462 176.352 98.802 176.12 98.9543L176.403 99.1094C176.684 99.2632 176.961 99.4107 177.232 99.5318C178.235 99.9802 179.325 100.322 180.402 100.564C182.628 101.065 184.965 100.922 187.236 100.991C187.981 101.014 188.405 102.084 187.643 102.431C185.135 103.575 182.426 103.332 179.838 102.527C178.557 102.129 177.355 101.571 176.242 100.843C175.783 100.542 175.249 100.17 174.798 99.741C169.831 102.403 163.658 102.701 158.13 101.749C155.257 101.254 152.473 100.35 150.024 98.8048C147.668 97.3186 145.989 95.4368 144.79 92.9989C144.684 92.7828 144.979 92.5137 145.161 92.7249C148.927 97.1057 155.408 98.9336 161.109 99.2813C164.151 99.4671 167.263 99.3127 170.188 98.441C172.963 97.6137 175.343 96.0973 177.331 94.0807C181.36 89.9929 183.774 84.4321 185.508 79.14C187.394 73.3827 188.293 67.3254 188.478 61.3002C188.572 58.2476 188.454 55.1693 187.953 52.1505C187.456 49.1566 186.535 46.259 185.992 43.2778ZM129.53 17.3426C129.797 17.2128 129.984 17.5507 129.758 17.7169C125.062 21.1663 120.857 25.54 117.453 30.1692C111.175 38.7071 107.149 48.587 105.295 58.8533C104.201 64.9161 103.915 71.0707 104.024 77.2142C104.068 79.6547 104.213 82.0877 104.375 84.5215L104.558 87.2193C104.643 88.4762 104.713 89.7224 104.659 90.9854L104.644 91.2772C104.557 92.7469 104.708 94.2285 104.323 95.6622C104.125 96.3975 103.043 96.5132 102.651 95.8715C102.574 95.7458 102.502 95.6162 102.432 95.4853C101.514 96.9205 100.324 98.2035 99.0036 99.3496C99.6346 99.2209 100.272 99.1389 100.926 99.2139C101.963 99.3329 102.893 99.7164 103.551 100.389C104.204 100.107 104.876 99.9124 105.649 99.9083C106.217 99.9055 106.644 100.55 106.319 101.028C105.672 101.983 104.768 102.519 103.741 103.048C103.014 103.423 102.145 103.102 101.876 102.361L101.861 102.316C101.559 101.377 99.9502 101.529 99.1914 101.674L98.9681 101.718C97.5555 101.999 96.1762 102.36 94.7371 101.988C93.8089 101.748 93.5663 100.41 94.4612 99.9658C97.288 98.5628 99.6611 96.6783 102.1 94.7861C101.561 93.5216 101.256 92.1087 100.903 90.8229C100.407 89.0131 100.262 87.0659 100.082 85.2068C99.7419 81.6722 99.612 78.0992 99.6485 74.5508C99.7721 62.5656 101.912 50.5432 107.379 39.6902C109.774 34.9359 112.92 30.5367 116.639 26.6427C120.336 22.7716 124.654 19.7148 129.53 17.3426ZM125.153 76.0374C125.008 75.8448 125.291 75.5901 125.49 75.7149C129.788 78.419 132.771 82.525 134.695 87.0357C136.6 91.5013 137.77 96.9711 135.891 101.628C135.592 102.37 134.16 102.645 134.013 101.628C133.358 97.0861 133.256 92.5378 131.816 88.1223C130.388 83.7451 127.945 79.7368 125.153 76.0374ZM121.821 90.7821C121.844 90.7019 121.981 90.7157 121.975 90.8022C121.867 92.4037 121.794 94.0248 121.584 95.6175C121.482 96.3916 121.347 97.1606 121.232 97.9328C121.114 98.7248 121.132 99.5244 120.651 100.201C120.014 101.097 118.321 100.845 118.378 99.6112C118.417 98.76 118.825 98.2136 119.208 97.4665C119.453 96.9875 119.667 96.4923 119.873 95.995L120.18 95.2489C120.789 93.7693 121.372 92.3147 121.821 90.7821ZM114.124 86.5395C114.15 86.4135 114.362 86.4438 114.356 86.5694C114.241 88.8363 113.974 91.0777 113.556 93.3114C113.366 94.3295 113.143 95.342 112.908 96.3515L112.807 96.784C112.555 97.8473 112.393 99.0974 111.83 100.047C111.267 100.997 109.931 100.307 110.104 99.3502C110.306 98.2331 111.022 97.1093 111.438 96.0363C111.822 95.0458 112.158 94.0378 112.472 93.0249C113.132 90.8929 113.674 88.7209 114.124 86.5395ZM128.457 92.8328L128.507 92.7836C128.702 92.58 128.994 92.7157 129.087 92.9306C129.47 93.8111 129.278 94.8495 129.251 95.7844L129.246 95.9882C129.226 96.9352 129.24 97.8222 128.791 98.6964C128.247 99.7579 126.813 99.0986 126.702 98.1543C126.58 97.1238 127.089 96.115 127.418 95.1498C127.627 94.5363 127.779 93.8984 128.096 93.3416C127.825 93.3864 127.554 93.4763 127.305 93.5412C127.194 93.5699 127.152 93.4136 127.258 93.3774C127.669 93.2382 128.132 93.1336 128.457 92.8328V92.8328ZM185.676 95.9577C185.545 95.8172 185.709 95.6301 185.879 95.7061C187.923 96.6204 189.835 97.2152 192.09 97.41C193.067 97.4944 193.074 98.9649 192.09 98.8797C189.736 98.6767 187.269 97.6658 185.676 95.9577ZM113.763 65.0654C115.563 61.1883 121.256 57.749 125.073 61.3545C125.145 61.4219 125.072 61.5688 124.968 61.5276C122.593 60.5851 119.687 61.7839 118.043 63.4984C116.739 64.8584 115.956 66.6047 115.8 68.4452C115.645 70.2874 116.105 72.2101 117.382 73.635C118.052 74.3825 118.957 75.0901 120.022 75.1799C121.097 75.2706 121.993 74.5454 123.009 74.3484C123.776 74.2 124.354 74.6605 124.429 75.3839C124.595 76.9805 122.935 78.052 121.497 78.3123C119.949 78.5921 118.37 78.2864 117.036 77.4832C112.729 74.8891 111.8 69.2942 113.763 65.0654ZM154.17 27.0639C154.953 26.3475 156.284 27.0597 155.995 28.0816C155.381 30.2564 154.076 32.0945 152.63 33.8392C151.239 35.5178 149.749 37.1308 148.151 38.632C146.564 40.1235 144.84 41.5035 143.028 42.7363L142.482 43.1065C141.198 43.9736 139.837 44.8506 138.4 45.4751C138.053 48.3393 137.374 51.1654 136.346 53.871C135.357 56.4764 134.098 58.9943 132.572 61.3507L132.353 61.6881C130.951 63.8401 129.265 66.2452 126.886 67.4249C126.815 67.4604 126.743 67.4822 126.673 67.4948C127.205 67.8347 127.654 68.2622 127.922 68.8765C128.215 69.549 127.602 70.1836 127.015 70.4057C125.774 70.8754 124.563 70.0803 123.447 69.2321C123.4 69.3338 123.356 69.4365 123.318 69.54C123.068 70.2174 122.995 70.9096 122.351 71.359C122.045 71.5727 121.669 71.3815 121.476 71.1395C120.845 70.3456 121.498 69.264 122.053 68.6152C122.13 68.5255 122.209 68.4403 122.291 68.3585C122.057 68.1935 121.828 68.0472 121.606 67.9348C120.303 67.2739 118.372 67.1567 117.621 68.6198C117.564 68.7322 117.383 68.6741 117.383 68.5579C117.385 66.7608 119.307 65.7847 120.975 65.652C122.194 65.5552 123.372 65.9645 124.469 66.4412L124.674 66.5312C125.082 66.7127 125.503 66.884 125.905 67.0755C125.84 66.9101 125.841 66.7155 125.944 66.5226C127.205 64.163 129.372 62.2443 130.934 60.059C132.483 57.891 133.813 55.5709 134.875 53.1483C135.905 50.7968 136.712 48.3715 137.277 45.8978C137.091 45.9346 136.881 45.776 136.895 45.5901C136.926 45.1402 137.156 44.735 137.559 44.5623C138.004 42.2356 138.231 39.8694 138.218 37.4841C138.216 37.2992 138.496 37.3059 138.513 37.4841C138.709 39.6049 138.725 41.7463 138.56 43.8753C139.61 42.9503 140.717 42.071 141.727 41.1214C143.248 39.6927 144.719 38.2258 146.139 36.7045C147.587 35.1523 148.955 33.5431 150.207 31.8405L150.862 30.9475C151.869 29.5787 152.903 28.2241 154.17 27.0639ZM152.196 11.7827C160.833 11.2663 170.057 12.283 177.815 16.1661C182.076 18.2985 185.369 21.5215 187.722 25.5325C189.127 27.9276 190.193 30.5798 190.597 33.3066C191.011 36.1083 190.524 38.6065 188.657 40.8336C187.915 41.718 186.665 40.7301 186.848 39.8252C187.966 34.2888 186.153 28.8188 182.936 24.2354C178.269 17.5844 170.118 14.6299 162.181 13.3119C158.282 12.6647 154.327 12.3941 150.372 12.5258C147.356 12.6263 144.262 12.8954 141.4 13.8673C141.279 13.9083 141.231 13.7282 141.347 13.6858C144.761 12.4369 148.572 11.9994 152.196 11.7827ZM165.005 24.3015C165.45 24.0316 165.994 24.3086 166.146 24.7466C166.685 26.2906 165.556 28.3306 164.8 29.6668C163.945 31.179 162.846 32.5928 161.711 33.9208C159.439 36.5768 156.454 38.793 153.178 40.186C152.978 40.2714 152.744 40.0394 152.928 39.8754C155.463 37.6148 157.761 35.1911 159.75 32.4722C160.728 31.1361 161.543 29.7267 162.322 28.2789C163.018 26.9833 163.673 25.11 165.005 24.3015ZM179.531 26.1205C179.815 25.1702 181.434 25.332 181.367 26.3585C181.193 29.0103 179.887 31.6721 178.468 33.9195C177.007 36.2336 175.156 38.2959 173.034 40.0769C172.93 40.1648 172.787 40.0295 172.881 39.9304C174.712 38.0112 176.19 35.8252 177.285 33.4461C178.379 31.0705 178.791 28.5918 179.531 26.1205ZM171.487 25.6911C171.797 24.8648 173.278 24.9261 173.187 25.9116C172.938 28.6207 171.278 31.4598 169.74 33.6974C168.109 36.0714 166.026 38.1628 163.699 39.9193C163.612 39.985 163.489 39.8761 163.574 39.7993C165.664 37.9129 167.36 35.7339 168.702 33.3034C169.387 32.0632 169.961 30.7718 170.415 29.4378C170.835 28.2036 171.032 26.9076 171.487 25.6911Z" fill="#594A4E"/>
<path fill-rule="evenodd" clip-rule="evenodd" d="M153.08 72.2344C156.306 71.8614 159.432 72.8024 162.585 73.2767C164.25 73.527 165.917 73.7139 167.602 73.7834C167.941 73.7975 168.28 73.8058 168.619 73.8124C168.651 73.5279 168.818 73.2667 169.18 73.1102C169.922 72.7897 170.516 72.6452 171.33 72.6761C172.076 72.7041 172.824 72.7772 173.559 72.9053C174.892 73.1383 176.232 73.6669 177.207 74.5854C179.464 76.7108 179.121 80.1248 177.377 82.4397C173.773 87.2233 167.196 87.4453 161.562 87.3829L161.043 87.3764C155.913 87.3065 148.575 88.0353 146.245 82.4742C145.388 80.4292 145.507 78.0589 146.556 76.0975C147.808 73.7581 150.442 72.5396 153.08 72.2344ZM169.102 80.1991L169.056 80.2009C166.691 80.2877 164.327 80.3488 161.961 80.3887C162.031 80.9677 162.104 81.5469 162.186 82.1247C162.251 82.5794 162.32 83.0336 162.393 83.4872C162.423 83.6793 162.536 83.9775 162.504 84.1678L162.492 84.243V84.243C162.614 84.2953 162.724 84.3797 162.806 84.502C162.835 84.5444 162.855 84.5871 162.876 84.6296C164.713 84.6434 166.69 84.6094 168.563 84.2912L168.566 84.2524V84.2524C168.6 84.0245 168.7 83.871 168.832 83.7658C168.964 83.0388 168.952 82.2641 169.003 81.5428C169.034 81.0947 169.069 80.647 169.102 80.1991ZM160.153 80.4194C158.449 80.447 156.744 80.4683 155.039 80.4485L154.266 80.4371V80.4371C154.429 81.2723 154.607 82.1047 154.755 82.9455C154.909 83.8219 154.099 84.3789 153.399 84.3564C153.478 84.3688 153.556 84.3814 153.635 84.392C155.823 84.687 158.096 84.6087 160.317 84.6064C160.198 83.9417 160.246 83.1918 160.228 82.637L160.225 82.551C160.191 81.8401 160.167 81.1298 160.153 80.4194ZM148.575 80.2661C148.635 80.7004 148.75 81.1255 148.922 81.5212C149.649 83.1931 151.317 83.9734 153.082 84.3019C152.776 84.2012 152.533 83.9591 152.472 83.5444C152.319 82.5133 152.264 81.4651 152.259 80.4181C151.029 80.4072 149.791 80.3822 148.575 80.2661ZM175.516 79.9091C174.641 80.106 173.623 80.0158 172.764 80.0529C171.959 80.0878 171.154 80.1182 170.349 80.1492C170.387 80.6729 170.424 81.1964 170.464 81.7197C170.516 82.3961 170.52 83.111 170.656 83.7845C172.276 83.2576 173.728 82.4127 174.817 81.0617C175.088 80.7251 175.331 80.3301 175.516 79.9091ZM152.71 74.9776C151.252 75.3065 149.873 76.0014 149.131 77.2726C148.691 78.0269 148.498 78.9209 148.535 79.8019C149.767 79.6652 151.02 79.6134 152.267 79.5705C152.271 79.3565 152.277 79.1427 152.284 78.9294L152.303 78.3825C152.337 77.3396 152.354 76.0299 152.71 74.9776ZM160.255 75.1048L159.614 75.0361C157.831 74.8426 156.05 74.6394 154.267 74.7559C154.009 74.7729 153.747 74.7997 153.485 74.8363C153.8 75.9197 153.773 77.1922 153.905 78.2647C153.956 78.6794 154.02 79.0907 154.091 79.5003L154.4 79.4866V79.4866C156.313 79.3878 158.228 79.327 160.142 79.2547C160.142 78.9122 160.144 78.5695 160.149 78.2266L160.157 77.8838C160.178 77.0081 160.119 76.0217 160.255 75.1048ZM169.206 74.9658C167.339 75.2529 165.41 75.314 163.576 75.3162C162.844 75.3171 162.111 75.2742 161.38 75.2124C161.427 75.5836 161.452 75.9592 161.488 76.3253C161.56 77.0651 161.643 77.8038 161.733 78.5418L161.813 79.1875V79.1875C164.166 79.0858 166.518 78.976 168.87 78.8621L169.202 78.8452V78.8452L169.295 77.6042C169.359 76.7767 169.428 75.9493 169.527 75.1256L169.453 75.1002V75.1002C169.366 75.0662 169.284 75.0194 169.206 74.9658ZM170.017 75.2738C170.12 76.4439 170.177 77.6188 170.252 78.7909L171.803 78.7119C172.061 78.6985 172.32 78.6848 172.578 78.6706C173.583 78.6154 174.874 78.3254 175.868 78.5959C175.944 77.7353 175.685 76.8968 174.87 76.3187C173.439 75.3031 171.617 75.6648 170.017 75.2738ZM164.719 64.814C167.028 63.5538 172.822 62.2659 173.189 66.2259C173.357 68.0483 171.936 69.5582 170.275 70.232L170.213 70.2568C168.656 70.8668 165.896 71.5558 164.549 70.233C163.427 69.132 164.915 67.158 166.308 68.0599C167.025 68.5233 168.532 68.1819 169.331 67.9614L169.381 67.9475C170.243 67.706 171.393 66.9329 171.037 65.9211C170.721 65.026 169.378 64.8625 168.537 64.8334C167.282 64.7905 166.061 65.0683 164.817 65.1587C164.62 65.173 164.559 64.9012 164.719 64.814ZM174.284 58.4462C177.418 58.3064 179.368 61.5673 178.647 64.2392C178.522 64.7002 177.981 65.1528 177.459 65.101L177.327 65.0894C177.26 65.0833 177.193 65.0753 177.131 65.059C176.635 64.9281 176.191 64.4365 176.227 63.9269L176.237 63.7784C176.31 62.5162 176.166 61.062 174.592 60.7563C173.257 60.497 172.512 61.7215 172.496 62.8487C172.493 63.0488 172.257 63.1885 172.071 63.0809C171.106 62.5212 170.939 61.4079 171.308 60.4491C171.775 59.2343 172.944 58.506 174.284 58.4462ZM151.027 59.1456C153.307 58.4205 155.768 59.579 156.872 61.5005C157.26 61.6074 157.646 61.8919 157.593 62.3277C157.515 62.9545 157.398 63.3497 156.942 63.8251C156.228 64.5687 154.892 64.1885 154.596 63.2731L154.583 63.2317C154.246 62.0485 152.88 61.2678 151.635 61.682C150.18 62.1657 150.222 63.6296 149.202 64.4824C149.082 64.5827 148.938 64.5986 148.795 64.5325C147.711 64.0334 147.906 62.5315 148.292 61.6719C148.799 60.5439 149.784 59.5406 151.027 59.1456ZM147.92 52.5457C149.769 50.7486 154.588 49.0097 155.852 52.3282C156.093 52.9603 155.58 53.8125 154.89 53.9436C153.759 54.1581 152.755 53.6902 151.632 53.7741C150.723 53.8425 149.774 54.1321 149.047 54.6689C147.033 56.1557 146.591 58.6706 145.187 60.563C145.119 60.6552 144.986 60.6165 144.974 60.5078C144.654 57.7527 145.896 54.5138 147.92 52.5457ZM172.023 50.7766C173.25 50.3639 174.638 50.3992 175.871 50.7653C177.113 51.1344 178.253 51.8351 179.132 52.7507C179.53 53.1663 179.899 53.625 180.195 54.1132C180.352 54.372 180.517 54.9065 180.696 55.2248C181.662 55.7563 182.075 56.9676 181.21 57.8293L181.171 57.8671L181.055 57.9765C180.59 58.4151 179.889 58.6051 179.254 58.43C177.834 58.0383 177.661 56.9723 177.17 55.8409C176.845 55.0935 176.289 54.4322 175.614 53.9465C174.02 52.7989 171.406 52.4333 169.486 52.9741C169.384 53.003 169.264 52.8789 169.337 52.7889C169.701 52.3399 169.91 51.9714 170.397 51.6092C170.891 51.2416 171.431 50.976 172.023 50.7766Z" fill="#594A4E"/>
<path fill-rule="evenodd" clip-rule="evenodd" d="M184.267 65.8287C181.861 68.1065 177.844 68.7602 174.643 67.5386C166.423 64.3922 170.447 54.5783 176.786 51.9429C177.577 51.762 178.635 51.333 179.6 51.2356C179.687 51.1964 179.877 51.3099 180.107 51.2026C187.097 51.9176 188.688 61.8589 184.267 65.8287M157.755 66.4117C155.057 69.6911 150.04 70.7028 145.941 69.1783C137.843 66.2565 140.715 57.5541 146.255 54.1424C157.959 50.1132 162.792 60.3653 157.755 66.4117M140.201 59.1457C140.194 59.1424 140.186 59.1408 140.178 59.1375C140.221 59.1203 140.264 59.103 140.306 59.0854C140.293 59.1187 140.278 59.1515 140.264 59.1847C140.243 59.1715 140.225 59.1561 140.201 59.1457M189.838 55.6009C189.177 55.6022 188.223 55.7017 187.676 56.1217C186.327 51.9541 181.348 48.097 177.019 50.9096C173.609 51.9142 171.079 54.1422 169.641 57.1043C167.048 55.6914 162.971 56.2947 160.723 58.1632C159.251 53.7055 155.627 52.1446 151.314 51.9142C146.606 51.2077 141.913 55.3967 140.449 58.7572C139.232 58.6302 137.413 58.2753 136.268 58.9636C128.835 57.1777 115.84 56.193 114.328 57.1853C113.252 57.5639 112.661 59.8927 114.165 60.0183C115.475 59.8478 114.012 58.3119 115.333 58.1444C122.373 57.7445 129.207 59.0435 136.172 59.5886C136.794 60.355 138.803 60.6113 139.875 60.3034C138.187 66.0039 141.831 69.8823 147.292 71.0439C155.747 72.8235 163.104 65.8934 160.893 58.6851C163.454 57.5176 166.4 57.5677 169.191 58.1827C164.528 73.9047 192.165 73.1994 187.848 56.6604C190.721 57.9695 191.345 55.8651 189.838 55.6009" fill="#594A4E"/>
<path fill-rule="evenodd" clip-rule="evenodd" d="M226.693 294.664C231.944 294.779 229.692 246.775 226.186 237.93C225.695 236.137 225.289 233.687 225.371 231.488C229.708 231.912 229.241 229.004 229.017 225.497C229.091 222.712 229.288 216.967 224.938 219.204C211.897 193.624 225.998 127.499 191.66 121.27C187.522 120.286 183.246 119.267 179.762 116.456C176.076 109.781 174.199 108.928 168.09 108.496C166.959 102.483 164.845 96.0587 158.545 93.7188C152.777 91.5043 146.064 91.3276 140.049 92.5094C135.071 94.1003 134.615 103.166 133.509 107.636C126.804 105.894 118.541 102.23 114.931 110.536C113.183 110.024 111.563 110.356 109.786 110.926C94.8961 113.277 80.4491 119.876 74.9262 133.647C71.5147 141.91 73.9358 150.906 75.2152 159.464C76.4085 168.783 73.262 177.417 71.8035 186.381C69.6318 198.724 69.239 208.625 70.6562 217.799C66.9103 218.634 66.6341 221.973 68.1496 225.466C68.5946 226.648 69.0429 227.894 70.027 228.562C72.0288 229.797 74.6162 228.374 76.7917 228.156C77.2442 233.085 78.1205 237.922 79.5703 243.418C79.1504 245.064 78.6689 246.901 78.2364 248.554L78.0905 248.398C73.1236 268.781 58.3515 288.581 62.9427 310.244C63.2126 310.966 63.7249 310.815 64.1183 310.803C66.3974 311.652 68.4908 311.113 70.7892 311.199C76.2407 311.203 81.5075 311.887 86.3934 312.483C87.2865 318.199 90.1902 327.557 95.3685 329.737C95.4557 329.766 96.9906 329.452 97.1189 329.443C83.3337 384.206 58.5304 434.845 48.678 490.712C48.6196 491.394 49.7519 491.033 50.1234 491.116C50.0725 492.666 51.0949 493.039 52.5265 493.59C50.6817 497.368 49.0199 501.142 47.1834 504.93C46.3318 506.805 44.944 508.658 44.6911 510.662C42.6581 511.935 41.2887 514.424 41.325 516.746C35.8425 519.016 37.3326 530.23 36.0818 535.784C34.817 544.058 28.8011 549.836 24.6762 556.62C23.8356 557.982 22.9405 559.766 22.9008 561.477C20.3436 562.651 19.3901 565.217 19.5593 569.535C19.5502 574.588 21.0049 576.512 24.9273 576.634C35.5815 577.677 48.0139 577.252 58.7298 576.066C66.7462 575.067 73.8497 575.896 72.0574 566.459C71.6886 564.174 72.3971 561.098 71.017 559.249C70.166 553.745 70.6611 548.197 72.496 542.76C73.6114 538.182 75.496 528.724 74.7151 522.58C74.3539 519.738 68.4328 518.174 67.3905 518.036C67.722 515.897 67.5761 512.159 66.4013 510.672C68.5586 510.377 69.1008 509.819 69.5501 507.471C70.6238 503.669 70.7667 499.542 73.4255 496.339C78.2077 496.399 82.9738 495.21 87.7532 495.065L87.9912 494.527C90.818 494.492 93.6291 494.003 96.3123 493.043C96.9073 493.319 97.6685 493.555 98.0029 492.673L99.599 487.783C118.179 429.853 138.775 371.782 158.856 314.277C160.028 311.481 161.438 308.509 163.271 306.018C163.892 341.203 171.415 376.351 172.061 411.52C172.934 435.713 172.71 459.653 175.032 483.933C175.63 489.071 176.266 488.9 177.049 488.585C177.362 488.633 178.101 488.788 178.421 488.853C177.897 493.96 177.295 502.248 175.06 507.471C170.119 508.218 171.004 511.932 172.1 515.01C170.921 515.997 171.089 518.296 171.439 519.568C166.79 519.573 165.777 523.277 166.097 525.615C166.539 529.524 166.291 535.608 168.954 538.946C170.522 543.204 173.074 547.222 174.071 551.809C174.698 555.184 174.456 560.1 175.06 563.447C173.54 564.135 174.184 565.214 173.927 567.301C172.612 576.853 177.243 575.229 185.433 575.887C190.342 576.949 227.713 579.062 226.098 572.707C226.373 570.119 225.145 568.983 224.619 566.434C224.382 565.758 219.726 557.932 216.949 554.968C207.635 546.394 208.042 534.884 208.337 521.625C207.789 518.031 204.968 514.59 201.367 514.977C202.401 511.139 200.485 507.801 196.481 506.692C196.881 502.346 197.302 496.442 198.766 492.683L197.387 491.307L199.233 491.523L199.846 490.011L200.514 491.668C203.684 491.668 207.259 490.979 210.295 490.656C210.78 490.682 210.564 490.037 210.643 489.788C213.51 489.206 213.824 487.714 213.317 484.158C213.985 426.418 213.695 369.22 212.783 311.373C217.263 311.569 221.632 309.968 226.035 308.901C227.599 309.863 228.042 306.437 227.859 305.698C227.611 301.871 227.128 298.138 226.693 294.664Z" fill="white"/>
<path fill-rule="evenodd" clip-rule="evenodd" d="M134.683 99.5845C135.349 100.1 135.279 101.527 135.344 102.327L135.349 102.379C135.559 104.794 135.275 107.219 134.674 109.563L134.623 109.758C134.321 110.909 134.053 112.346 133.111 113.152C132.09 114.025 130.47 113.46 130.433 112.053C130.414 111.399 130.637 110.769 130.919 110.155C128.942 110.903 126.965 111.642 124.98 112.363C123.712 122.635 138.361 135.212 146.842 139.616C159.192 146.313 169.584 136.054 171.165 123.995C171.431 122.393 171.608 120.746 171.643 119.122C171.672 117.766 171.39 115.872 172.318 114.712C171.661 114.697 171.077 114.787 170.433 114.886L170.464 114.938C170.829 115.577 171.344 117.167 170.19 117.288C167.697 117.031 166.537 112.749 165.929 110.696C165.534 109.298 164.989 103.496 166.195 102.812C166.559 104.191 166.416 105.687 166.858 107.069C167.864 107.466 169.779 107.573 170.222 107.646C175.403 107.705 178.34 111.348 180.44 115.613C186.595 120.562 195.443 119.712 202.089 123.788C222.429 138.231 215.786 194.46 225.917 218.381C227.945 217.559 230.013 219.205 230.283 221.214C230.563 222.759 230.48 224.413 230.502 225.979L230.512 226.174C230.677 229.376 231.242 232.974 226.829 233.044C226.835 234.832 227.179 236.562 227.62 238.287C230.064 248.731 231.131 259.488 231.371 270.194L231.383 270.981C231.463 276.608 231.533 294.017 228.231 296.076L228.385 297.303C228.767 300.369 229.127 303.444 229.328 306.526C229.645 308.126 228.567 311.959 226.367 310.944C222.331 311.922 218.351 313.365 214.158 313.372C215.174 346.485 214.669 379.632 214.819 412.758C214.495 437.177 215.843 461.797 214.665 486.122L214.708 486.465C215.041 489.197 215.141 491.572 211.918 492.507C211.871 493.176 211.346 493.533 210.724 493.611C208.957 493.844 207.191 494.065 205.423 494.277C203.776 494.397 202.013 494.799 200.371 494.607C200.53 494.765 200.099 494.789 200.053 494.674C198.556 498.354 198.121 502.365 197.751 506.29C201.384 507.646 203.367 510.698 202.773 514.524C206.439 514.669 209.116 518.659 209.63 522.023C209.959 524.343 209.695 526.648 209.589 528.973C209.082 536.917 210.274 545.476 215.509 551.813L215.728 552.067C219.095 555.945 223.364 559.499 224.815 564.569C225.218 564.753 225.549 565.11 225.694 565.667L226.635 569.283V569.283L227.102 571.092C227.445 572.41 227.75 573.759 227.566 575.124L227.546 575.256C226.63 583.901 190.452 579.734 183.392 579.113C180.553 578.677 177.439 578.915 174.883 577.442C171.749 575.416 171.357 571.304 171.895 567.937L171.939 567.621C172.157 566.115 172.476 564.537 173.935 563.694C173.444 560.574 173.634 557.382 173.05 554.274C172.168 549.876 169.499 546.06 168.137 541.838C166.15 539.673 166.083 536.299 165.668 533.531C165.353 530.846 165.095 528.142 164.989 525.441C164.701 521.87 166.283 518.925 170.116 518.458C169.938 517.782 170.425 517.197 170.909 516.763C169.767 512.787 169.451 507.329 174.409 505.972C176.287 501.41 176.833 496.467 177.332 491.602C177.273 491.59 177.214 491.58 177.155 491.57C174.685 492.577 174.171 487.804 174.006 485.936C171.669 461.724 171.884 437.369 171.006 413.082L170.92 411.327C170.15 395.324 169.692 379.182 166.867 363.393C164.024 345.796 163.281 327.912 162.309 310.13C161.165 311.872 160.549 313.873 159.623 315.73C147.603 350.324 135.271 384.814 123.388 419.455C114.775 444.536 106.547 469.75 98.2944 494.947C97.8733 496.237 96.5465 496.505 95.5755 496.092C93.1037 496.932 90.5096 497.409 87.8992 497.491C87.7418 497.845 87.4188 498.105 86.9466 498.054C85.5503 497.904 83.9435 498.331 82.5473 498.491C79.3525 498.801 76.2511 499.281 73.0271 499.326C71.0298 501.799 70.9041 505.154 69.9833 508.098C69.4533 509.599 69.5365 512.965 67.7058 513.388C68.362 514.378 68.4479 515.567 68.3416 516.792C68.9109 516.919 69.4884 517.158 70.024 517.403C70.5457 517.662 71.2347 517.64 71.5942 518.161C81.8191 519.976 74.3469 538.997 72.5696 545.288C70.8252 550.432 70.2789 555.804 71.075 561.173C72.2917 562.819 71.8841 565.268 72.0704 567.22C72.1685 568.961 72.3484 570.729 72.3322 572.473C72.1337 579.716 63.006 578.538 57.8565 579.478C54.6408 579.844 51.4109 580.099 48.1809 580.298C39.989 580.797 31.7512 580.835 23.5761 580.059C18.2978 579.895 17.1628 576.522 17.1712 571.908L17.1631 571.717C17.0442 568.585 17.5596 564.804 20.5954 563.176C20.7466 561.521 21.6034 559.851 22.4781 558.405C26.5459 551.705 32.6531 545.834 33.8544 537.794C35.0327 532.53 33.6976 520.944 39.1595 518.199C39.286 515.83 40.7722 513.413 42.6123 512.132C42.9674 510.158 44.3053 508.343 45.1329 506.529C46.821 503.065 48.3827 499.546 50.0618 496.079C49.1826 495.715 48.2483 495.045 48.1257 494.093C47.2814 494.103 46.4473 493.568 46.5496 492.562C46.8479 489.64 47.5003 486.767 48.1165 483.895L48.1934 483.536C59.1577 431.613 81.7991 383.06 95.046 331.802C93.2636 332.118 91.5973 330.122 90.612 328.822C87.429 324.623 85.5491 319.543 84.7224 314.389L83.2263 314.207C78.2367 313.607 73.2227 313.082 68.1915 313.223L66.9789 313.262C65.6318 313.303 64.2825 313.292 63.0019 312.817C62.1086 312.898 61.1784 312.429 60.9578 311.446C57.2313 293.253 66.3909 275.986 72.9514 259.546C74.4969 255.504 75.5967 251.403 76.6457 247.218C76.6802 247.082 76.8969 247.11 76.8908 247.25C76.6863 251.904 75.5088 256.596 74.3127 261.081C70.3855 276.29 62.2036 291.205 64.204 307.307C70.422 302.509 77.8072 299.177 85.5646 297.767C86.0123 295.862 86.5071 293.97 86.8791 292.052C86.5132 289.104 86.2638 286.141 85.9449 283.179C84.9922 274.317 83.5369 265.478 81.5969 256.772C78.5873 248.012 75.9598 239.133 75.0203 229.897L74.8492 229.93C72.7626 230.345 70.4637 231.246 68.5278 229.944C67.299 229.109 66.7675 227.726 66.2709 226.398C64.853 223.177 64.5907 218.944 68.6032 217.597C67.1074 207.357 68.0795 196.667 69.8871 186.522C71.335 177.631 74.5108 168.87 73.3219 159.767C72.0019 151.02 69.5412 141.858 73.0986 133.296C78.9451 119.006 93.7508 112.226 108.311 110.044L108.547 109.976C110.349 109.454 111.989 108.903 113.866 109.299C118.293 101.251 125.472 104.524 132.483 106.318C132.956 104.953 133.351 103.557 133.722 102.162C133.953 101.452 133.877 99.8121 134.683 99.5845ZM175.262 567.599L175.243 567.95C175.058 571.718 175.267 574.946 180.035 574.921C183.316 575.264 186.598 575.599 189.884 575.89L191.117 575.997C200.871 576.849 210.743 577.266 220.478 575.986L220.884 575.932C221.697 575.818 223.204 575.841 223.848 575.251C224.625 574.228 223.726 572.276 223.537 571.088C208.347 570.915 193.136 570.366 177.935 570.555C176.337 570.563 175.615 569.225 175.762 568.006C175.582 567.886 175.413 567.748 175.262 567.599ZM21.0308 565.709C20.284 568.282 20.468 570.714 20.8899 573.291C21.1009 575.989 22.4111 576.162 24.782 576.225C34.0377 577.062 43.3607 576.887 52.619 576.185C57.5811 575.661 62.6806 575.681 67.5504 574.605C69.8738 573.597 68.5325 570.425 68.6114 568.48C57.6747 575.385 41.1342 574.508 29.2079 570.513L29.0168 570.433C26.1956 569.272 22.5891 568.541 21.0308 565.709ZM39.1472 519.248C37.8389 520.694 37.8636 524.92 37.8043 526.093C37.6631 528.922 37.6855 531.757 37.5604 534.586C37.6526 546.499 30.6307 552.441 25.416 562.02C23.9897 564.344 26.0646 564.674 27.7524 565.428C38.6813 570.411 51.6087 571.172 63.0263 567.357C68.7654 565.723 67.5122 561.94 67.0251 557.311C66.5453 547.853 71.6249 539.332 73.1274 530.183L73.1819 529.862C73.6313 527.119 74.3452 520.392 70.022 521.848C69.0714 522.422 68.178 521.703 68.0656 520.824C67.9526 520.842 67.8362 520.852 67.7242 520.854C67.2193 523.912 66.6959 526.966 66.193 530.024C66.6162 530.287 67.0128 530.585 67.3644 530.925C67.7917 531.34 67.4932 532.211 66.8493 532.158C66.5183 532.13 66.191 532.081 65.866 532.02C65.6082 534.678 61.2994 533.187 62.544 531.056C56.3486 528.959 49.5232 529.126 43.2317 530.734L43.2057 530.745C42.7186 530.935 39.2166 531.623 40.3431 532.158C40.8127 532.214 39.7435 532.815 39.5561 531.884C39.4956 530.716 42.2177 530.142 43.0518 529.657C40.9482 526.707 39.5109 522.884 39.1472 519.248ZM197.865 509.909C192.029 506.812 184.857 507.962 178.526 508.509L178.26 508.539C176.649 508.709 174.404 508.814 173.665 510.439C172.594 513.044 174.369 518.87 174.926 521.767L175.179 522.78C175.618 524.549 176.024 526.308 176.175 528.138C176.179 528.199 176.12 528.242 176.065 528.242C173.848 525.92 172.851 522.799 171.815 519.821C171.373 520.068 170.942 520.336 170.535 520.629C168.946 525.98 168.414 531.677 169.672 537.135L169.717 537.328C171.272 544.073 176.112 549.59 176.572 556.639C176.879 559.489 176.811 562.409 177.647 565.177C178.123 565.279 178.538 565.623 178.725 566.055L181.453 566.059C194.64 566.081 207.831 566.198 221.011 566.73C220.585 563.099 217.314 559.877 215.011 557.388C207.941 550.295 204.884 540.105 206.048 530.285C206.661 525.372 209.46 517.653 202.614 515.838C202.114 519.842 201.438 523.833 201.064 527.853C202.356 528.463 202.277 530.073 200.699 530.042C199.99 532.377 197.615 531.433 197.872 529.23C189.184 526.086 184.199 525.032 175.736 529.768C175.499 529.734 176.386 528.804 176.498 528.638C179.173 525.813 183.281 524.484 187.135 524.436C190.955 524.436 194.548 525.847 198.151 526.937C198.693 523.144 199.058 519.328 199.487 515.521L199.58 514.706C199.805 512.707 199.723 511.057 197.865 509.909ZM58.249 558.893C59.5205 558.615 60.6898 558.194 61.9818 558.48C66.5283 561.826 47.9513 562.769 46.3697 562.532C42.343 562.416 38.3147 561.915 34.4395 560.8L34.1414 560.714C33.6304 560.574 29.9402 559.554 30.6575 559.093C35.8988 559.548 41.03 560.491 46.3697 560.246C49.0333 560.191 51.7073 560.007 54.3423 559.614C55.6527 559.417 56.957 559.178 58.249 558.893ZM181.069 554.748C180.237 553.525 184.295 555.148 184.823 555.163C188.183 555.974 191.603 556.59 195.054 556.845C197.368 557.018 199.707 557.054 202.025 556.943C203.742 556.884 205.44 556.636 207.146 556.465L207.208 556.462C208.221 556.427 210.252 557.043 209 558.225C207.054 559.704 204.174 559.253 201.841 559.47C194.757 559.448 187.255 558.33 181.069 554.748ZM47.8826 545.864C49.9251 545.501 61.1664 545.383 60.0459 548.763C59.774 549.405 59.1525 549.618 58.4984 549.517C51.5409 547.859 44.0359 546.992 37.1009 549.278C36.9884 549.316 36.9108 549.136 37.0212 549.088C40.431 547.413 44.0794 546.243 47.8826 545.864ZM193.799 542.559C195.634 542.422 197.481 542.47 199.317 542.605L199.914 542.651C200.738 542.714 201.586 542.788 202.375 543.023L202.522 543.069C203.531 543.388 205.803 545.085 204.078 545.902C202.226 546.489 200.66 545.791 198.873 545.341C193.893 544.185 188.657 544.576 183.723 545.758L184.418 545.977V545.977C184.461 545.947 184.516 546.018 184.475 546.052C183.976 546.479 183.292 546.327 182.938 545.797C182.877 545.706 182.915 545.56 183.014 545.509C186.358 543.79 190.046 542.838 193.799 542.559ZM38.6811 542.127C44.3058 539.688 50.8225 539.418 56.8546 540.126L57.2843 540.177C59.1662 540.393 61.6205 540.493 62.6973 542.21C63.0694 542.806 62.6851 543.488 62.0841 543.703C60.3137 544.337 58.2326 543.067 56.5318 542.595C51.5029 541.246 46.1315 541.104 41.0177 542.036C41.0535 542.222 40.2066 542.14 40.0222 542.206C39.791 542.194 38.2569 542.691 38.6811 542.127ZM180.522 538.318C185.428 535.98 191.102 535.422 196.399 536.629L196.62 536.691C198.967 537.337 202.746 538.099 203.587 540.534C203.769 541.082 203.375 541.824 202.784 541.935C200.782 542.31 198.965 540.878 197.154 540.189C191.825 538.227 185.793 537.757 180.282 539.201C180.246 539.414 180.209 539.624 180.17 539.837C180.264 539.776 180.362 539.912 180.286 539.987C179.407 540.591 178.492 539.067 180.522 538.318ZM51.325 534.207C55.2953 533.949 59.299 534.443 63.1319 535.469L63.8527 535.664C64.9003 535.952 66.2573 536.405 66.4097 537.514C66.469 537.956 66.3566 538.259 65.9907 538.533C64.6564 539.511 61.7541 537.462 60.0952 537.221C54.0721 535.448 47.6069 535.473 41.5056 536.83L41.2978 536.876L41.445 537.903C41.5897 538.394 40.2485 537.237 40.7581 536.71C43.9789 535.103 47.7371 534.497 51.325 534.207ZM184.265 532.373C187.451 531.809 190.738 531.702 193.96 531.986L194.341 532.02C196.265 532.187 202.498 532.43 201.024 535.617C200.776 536.149 200.059 536.218 199.595 535.987C198.037 535.214 196.334 534.934 194.615 534.679C188.544 533.852 182.343 534.191 176.417 535.793C176.545 535.991 176.28 536.226 176.028 536.273C175.403 536.386 175.403 535.655 175.67 535.266C175.989 534.807 176.625 534.639 177.116 534.436C179.398 533.461 181.818 532.803 184.265 532.373ZM63.5764 514.639L63.2135 514.555C57.1327 513.152 43.6507 510.638 42.2545 518.847C41.759 522.463 43.3936 525.989 43.2728 529.57C49.5784 527.057 56.5512 527.083 63.1023 528.744C63.6827 525.028 64.2367 521.308 64.8295 517.594L64.9253 517.15C65.1891 515.897 65.2789 514.917 63.5764 514.639ZM50.0331 516.134C51.3582 515.02 53.5678 515.036 54.8678 516.251C56.0563 516.496 56.8949 517.732 56.9141 518.793C58.7213 521.906 56.5418 526.207 53.0913 526.984C45.2999 528.593 41.8167 518.105 50.0331 516.134ZM185.025 511.166C191.544 510.025 193.912 518.13 188.562 521.417C181.003 525.133 175.967 513.451 185.025 511.166ZM53.2589 493.163C53.3548 493.783 53.044 494.224 52.6722 494.642C51.3356 500.011 49.324 505.008 47.3407 510.156C53.7931 509.108 59.8893 510.022 65.5984 511.739C65.6666 510.169 66.3971 508.54 66.9045 507.059C67.8926 504.248 69.0868 501.508 70.4642 498.862L70.6373 498.532C71.132 497.59 71.6083 496.606 72.193 495.705C65.878 494.86 59.563 494.098 53.2589 493.163ZM180.442 492.019L180.274 492.767C179.549 496.008 178.861 499.279 177.782 502.428L177.767 502.493C177.602 503.288 177.231 506.967 176.997 504.37C176.817 504.761 176.625 505.148 176.421 505.528L177.536 505.398C183.504 504.704 189.754 504.103 195.621 505.575C195.027 501.068 195.901 496.762 197.176 492.501C191.586 492.375 186.045 492.416 180.442 492.019ZM74.5705 497.621C74.3661 497.809 74.1657 498.001 73.9756 498.202C74.2332 498.137 74.491 498.074 74.73 498.019C74.7201 497.871 74.6136 497.76 74.5705 497.621ZM200.555 493.487L200.433 493.768C200.413 493.814 200.393 493.861 200.374 493.907C200.467 493.852 200.571 493.799 200.683 493.753C200.632 493.672 200.59 493.585 200.555 493.487ZM98.4313 226.805C97.8589 227.076 97.262 227.145 96.4729 227.178C90.0617 227.438 83.6708 228.166 77.3753 229.407C77.7228 234.399 79.2723 239.235 80.7469 243.994L81.0527 245.037C86.035 262.088 90.3839 279.906 89.5081 297.741C89.5571 297.759 89.6041 297.783 89.6491 297.806C89.5696 298.024 89.5124 298.248 89.4324 298.465L89.3813 298.593L89.0821 299.322C88.9168 299.726 88.7562 300.132 88.6168 300.548C88.3721 300.634 88.0713 300.697 87.7847 300.738C86.3302 310.18 87.7132 320.767 94.2671 328.151C91.5472 322.575 90.5028 315.64 91.6241 309.551C92.2327 310.197 92.276 311.687 92.5091 312.653C93.1489 315.958 93.5981 319.31 94.5593 322.546L94.6635 322.871C95.7412 326.184 97.5445 330.458 100.67 332.169C101.26 332.342 102.172 332.127 102.45 332.835C102.612 333.468 102.311 334.249 101.649 334.446L101.602 334.459C99.6988 334.988 98.0838 333.582 96.8634 332.1L96.8025 332.874C96.6852 334.34 96.5217 335.747 95.6532 336.952C95.551 337.371 95.4508 337.793 95.3469 338.212C92.996 352.428 89.4598 367.123 83.0216 379.954L82.2728 382.167C70.0331 418.302 57.3568 454.413 49.9799 491.904C57.7309 491.104 65.547 491.491 73.2826 492.244C80.5772 492.986 88.2927 494.962 95.2811 491.807C114.214 435.121 133.745 378.605 155.15 322.783C157.73 313.923 162.575 305.378 164.972 296.295L165.123 295.815C165.686 293.994 165.95 292.813 165.537 290.779L165.519 290.53C165.434 289.257 165.404 287.326 166.886 286.974C167.138 286.913 167.467 286.959 167.641 287.172C168.557 288.324 167.699 289.791 167.963 291.129C168.733 296.247 166.672 301.072 164.263 305.485C164.421 305.671 164.529 305.9 164.547 306.151C164.758 308.871 164.731 311.619 164.852 314.344C165.195 322.182 165.694 330.012 166.326 337.831C168.306 352.152 171.112 366.326 172.637 380.71C176.108 414.213 175.484 447.974 178.005 481.544C178.025 484.492 178.97 487.557 178.013 490.419C178.616 490.031 179.473 490.118 180.002 490.587C190.279 489.89 200.572 490.232 210.846 489.634C210.857 489.18 210.891 488.757 210.91 488.431C210.622 487.761 211.099 487.016 211.086 486.304C209.832 479.338 210.864 471.851 210.605 464.727C210.617 457.986 210.652 451.247 210.699 444.505C211.088 402.378 210.565 360.242 211.351 318.121C211.413 316.049 211.509 313.984 211.646 311.918C211.08 311.301 211.457 310.426 211.458 309.685L211.491 309.026C211.663 305.696 211.858 302.638 210.534 299.357C210.564 298.966 210.656 298.599 210.865 298.3C204.668 295.452 198.197 293.295 191.8 290.949C190.72 291.21 189.369 290.552 189.142 289.414C186.732 277.292 184.833 265.093 183.191 252.851C172.449 259.765 159.351 260.858 147.153 263.659L144.844 264.246C139.151 265.7 133.178 267.393 128.848 271.356C128.411 277.613 131.663 295.645 121.889 295.173C118.688 296.131 115.397 296.9 112.12 297.314C115.935 304.411 122.894 313.868 117.392 321.728C116.594 322.557 115.521 321.716 114.792 321.201C114.882 325.796 115.007 330.368 115.013 334.959C115.013 335.571 114.369 336.124 113.747 335.915C110.223 334.725 109.787 330.589 109.242 327.469C108.753 324.682 108.262 321.896 107.78 319.107C107.472 324.111 108.701 329.262 107.7 334.208C106.74 337.037 103.755 336.194 102.861 333.823L102.835 333.75C101.065 328.942 100.204 323.807 99.846 318.714L99.827 318.416C99.7239 316.871 99.5563 315.236 99.9464 313.739C100.738 315.197 100.541 317.576 100.909 319.34C101.526 323.11 102.361 326.854 103.534 330.494L103.565 330.622C104.095 332.758 106.171 336.918 106.147 331.691C106.226 329.036 105.993 326.388 105.846 323.738L105.826 323.36C105.633 319.741 105.654 316.088 106.762 312.599C107.044 311.706 108.577 311.538 108.763 312.599C109.507 316.843 110.219 321.092 110.93 325.34C111.449 327.935 111.427 330.862 113.003 333.1C113.021 328.214 112.745 323.342 112.506 318.461L112.458 318.31C112.264 317.688 112.055 316.857 112.5 316.319C112.674 315.205 114.334 315.333 114.475 316.499C114.506 316.742 114.528 316.989 114.553 317.234C115.102 317.91 115.614 318.601 116.264 319.182C120.604 310.494 106.402 295.49 104.442 285.68C98.6673 266.574 101.987 246.542 103.667 227.086C101.93 226.885 100.179 226.831 98.4313 226.805ZM49.8041 492.568C49.7382 492.808 49.6877 493.073 49.569 493.291C49.663 493.307 49.7591 493.325 49.8552 493.346C49.9717 493.115 50.0943 492.89 50.2272 492.669C50.0862 492.637 49.9451 492.604 49.8041 492.568ZM121.894 403.089C122.076 403.058 122.149 403.305 121.971 403.362C115.988 405.312 110.944 408.941 105.901 412.542C105.186 413.052 104.517 411.987 105.018 411.41C107.127 408.989 109.71 407.317 112.586 405.911L112.756 405.829C115.632 404.408 118.718 403.503 121.894 403.089ZM179.193 399.462C179.123 399.33 179.307 399.229 179.391 399.346C180.724 401.187 182.488 402.9 184.24 404.346C186.015 405.812 187.95 406.971 189.85 408.257C190.874 408.949 189.995 410.425 188.883 409.895C186.72 408.864 184.778 407.161 183.189 405.389C181.552 403.56 180.34 401.604 179.193 399.462ZM142.042 335.65C135.438 346.527 125.687 357.48 118.41 368.634C113.496 375.785 109.05 383.241 103.665 390.07C102.587 391.507 100.51 390.306 101.248 388.67C103.297 384.138 105.58 379.784 108.33 375.631L109.216 374.341C118.791 360.434 128.939 346.499 142.042 335.65ZM169.554 319.051C169.497 318.869 169.768 318.789 169.841 318.95L169.848 318.969C174.806 332.295 182.449 344.409 189.136 356.905C189.653 357.928 188.275 359.161 187.452 358.193C182.731 352.644 179.422 346.118 176.486 339.512C173.391 332.964 171.492 325.989 169.554 319.051ZM181.073 116.846C184.109 122.82 186.337 129.142 187.881 135.649C188.357 137.658 185.608 138.89 184.498 137.131L184.465 137.076C183.1 134.843 181.065 132.876 178.489 132.107C176.735 139.32 177.59 146.942 178.502 154.225C180.118 164.371 181.405 174.561 181.597 184.843L181.606 185.394C182.17 220.508 187.433 255.464 193.198 289.843C202.414 291.295 210.851 295.389 219.346 298.988C220.822 299.553 222.331 300.045 223.877 300.386C219.609 261.409 203.376 224.855 198.36 186.02C197.034 175.92 196.972 165.664 198.804 155.622C198.834 155.43 199.112 155.494 199.124 155.665C199.326 159.789 200.045 163.86 200.472 167.963C200.762 165.62 201.432 163.246 201.974 161.001C202.637 158.804 202.881 155.276 204.822 153.844L204.945 153.429V153.429C204.996 153.251 205.265 153.326 205.223 153.504C205.202 153.589 205.182 153.672 205.163 153.757C206.41 154.082 205.245 155.531 204.936 156.225C202.936 161.489 202.34 167.187 200.975 172.612C202.951 189.549 206.51 206.271 210.893 222.733C214.921 221.69 218.962 220.687 223 219.669C213.993 190.879 219.26 158.749 205.766 131.259C200.711 122.033 188.261 123.286 181.073 116.846ZM112.647 111.583C110.758 111.484 108.786 112.49 106.972 112.837C104.568 113.294 102.176 113.657 99.8258 114.36C87.7919 117.598 76.1822 126.443 74.0022 139.187C72.5037 147.937 76.2141 156.462 76.0837 165.188C75.6922 173.833 72.7887 182.142 71.6574 190.7C70.2963 199.451 69.828 208.611 70.9951 217.405C81.7901 214.398 93.0637 214.21 104.133 215.762C103.21 202.434 104.421 189.04 105.092 175.721C105.574 167.167 106.4 158.575 106.108 150.004C106.101 149.814 106.416 149.768 106.447 149.958C109.766 167.462 107.819 185.23 107.484 202.883C107.271 207.343 107.833 211.845 107.606 216.281C112.639 217.344 112.457 223.106 110.918 226.904C110.645 227.818 109.719 227.659 108.97 227.548C108.158 228.386 106.22 227.293 105.116 227.293C104.252 249.204 99.0011 272.608 109.761 293.088C114.259 293.112 118.589 291.588 122.961 290.724L123.2 290.677L123.206 290.675C123.849 289.854 124.163 288.534 124.249 287.567C124.86 270.693 122.948 253.78 124.066 236.904C125.437 218.172 129.692 199.555 127.724 180.696C126.363 163.842 122.627 147.292 120.826 130.488L120.734 129.618C120.622 128.582 120.58 127.437 120.058 126.647C117.02 129.365 114.47 132.597 112.645 136.234C111.635 137.99 108.928 137.209 108.886 135.226C108.497 131.685 108.439 128.13 108.833 124.589L108.869 124.276C109.358 119.843 110.723 115.611 112.647 111.583ZM225.592 233.19C221.679 233.393 217.761 233.819 213.841 233.769L214.236 235.223C218.981 252.668 224.034 270.082 227.013 287.931L227.121 286.258C227.228 284.584 227.332 282.909 227.399 281.231C228.244 265.189 226.953 249.168 225.592 233.19ZM214.144 233.206L213.68 233.184L213.708 233.283V233.283C213.804 233.264 213.901 233.247 213.998 233.231L214.144 233.206ZM226.896 221.424C226.823 221.402 226.698 221.402 226.559 221.408C226.358 221.862 225.954 222.236 225.483 222.36L221.561 223.401C218.292 224.268 215.021 225.131 211.746 225.971C212.296 228.052 212.854 230.134 213.418 232.214C217.885 230.797 222.831 231.119 227.385 230.207C227.329 227.804 227.195 225.389 227.154 222.982C227.143 222.589 227.225 221.957 227.021 221.605C226.892 221.38 227.021 221.463 226.896 221.424ZM76.8496 229.512L76.7271 229.539V229.539C76.7679 229.648 76.8045 229.758 76.8392 229.869C76.8414 229.749 76.8433 229.632 76.8496 229.512ZM105.93 217.949C97.5143 216.743 88.9559 216.031 80.4683 216.852C76.6291 217.363 72.7319 217.909 68.9692 218.608C67.6608 220.586 69.1084 225.4 70.7375 226.922C71.2261 227.105 72.0663 226.75 72.5344 226.647C76.0469 225.866 79.5939 225.237 83.1585 224.745C83.2648 224.877 83.4202 224.962 83.6124 224.944L84.4314 224.869C89.3479 224.428 94.3078 224.105 99.235 224.381L99.2716 224.409V224.409C102.596 224.648 105.909 225.164 109.219 225.537C110.526 222.172 110.301 218.31 105.93 217.949ZM167.162 108.185C167.487 109.27 167.878 110.324 168.364 111.348C168.872 111.21 169.571 111.321 169.944 111.636L170.103 111.607C170.539 111.526 171.063 111.401 171.2 111.387C177.213 110.567 176.755 118.491 176.776 122.474C176.813 124.47 176.854 126.469 176.915 128.466C178.636 127.889 180.937 128.926 182.441 129.845C181.264 125.983 179.88 122.184 178.336 118.452L177.985 117.579C176.784 114.616 175.44 111.631 172.898 109.568C170.934 109.062 169.031 108.97 167.162 108.185ZM123.566 106.197C117.977 104.233 115.763 108.696 114.213 113.146C112.386 118.075 111.887 123.503 112.191 128.806L112.38 128.561C114.436 125.86 117.401 121.403 121.149 122.119C121.113 120.07 121.188 117.82 121.587 115.692C121.354 114.319 121.295 112.932 121.456 111.545C121.542 109.805 123.465 110.069 124.731 109.823C125.827 109.104 127.153 108.815 128.486 109.321C129.492 109.189 130.498 109.064 131.504 108.938C131.658 108.604 131.783 108.268 131.913 107.926C129.129 107.359 126.346 106.775 123.566 106.197Z" fill="#594A4E"/>
<path d="M250.844 527.855C250.801 527.934 250.726 528.077 250.619 528.284C250.518 528.492 250.379 528.728 250.2 528.993C250.028 529.251 249.82 529.52 249.577 529.799C249.333 530.078 249.054 530.336 248.739 530.573C248.424 530.802 248.069 530.991 247.675 531.142C247.288 531.292 246.866 531.367 246.408 531.367C245.999 531.367 245.638 531.292 245.323 531.142C245.008 530.999 244.739 530.795 244.517 530.53C244.295 530.257 244.127 529.939 244.012 529.573C243.898 529.208 243.84 528.804 243.84 528.36C243.84 527.93 243.901 527.529 244.023 527.156C244.145 526.777 244.309 526.448 244.517 526.168C244.732 525.889 244.979 525.67 245.258 525.513C245.537 525.348 245.835 525.266 246.15 525.266C246.386 525.266 246.601 525.309 246.794 525.395C246.988 525.474 247.149 525.581 247.278 525.717C247.414 525.853 247.518 526.003 247.589 526.168C247.668 526.333 247.707 526.498 247.707 526.662C247.707 526.82 247.686 526.967 247.643 527.103C247.607 527.239 247.557 527.361 247.493 527.468C247.435 527.568 247.367 527.651 247.288 527.715C247.21 527.772 247.131 527.801 247.052 527.801C246.93 527.801 246.83 527.762 246.751 527.683C246.68 527.604 246.644 527.507 246.644 527.393C246.644 527.336 246.655 527.285 246.676 527.242C246.705 527.199 246.733 527.156 246.762 527.114C246.798 527.063 246.827 527.006 246.848 526.942C246.877 526.87 246.891 526.781 246.891 526.673C246.891 526.523 246.819 526.387 246.676 526.265C246.54 526.143 246.365 526.082 246.15 526.082C245.949 526.082 245.756 526.143 245.57 526.265C245.391 526.387 245.233 526.551 245.097 526.759C244.961 526.96 244.85 527.199 244.764 527.479C244.685 527.751 244.646 528.041 244.646 528.349C244.646 528.642 244.682 528.922 244.753 529.187C244.825 529.452 244.932 529.688 245.076 529.896C245.219 530.096 245.398 530.257 245.613 530.379C245.835 530.501 246.096 530.562 246.397 530.562C246.784 530.562 247.142 530.494 247.471 530.358C247.8 530.214 248.101 530.035 248.373 529.821C248.646 529.606 248.885 529.373 249.093 529.122C249.301 528.865 249.476 528.625 249.62 528.403C249.77 528.173 249.884 527.976 249.963 527.812C250.049 527.64 250.099 527.532 250.114 527.49C250.142 527.418 250.189 527.364 250.253 527.328C250.325 527.285 250.4 527.264 250.479 527.264C250.601 527.264 250.697 527.307 250.769 527.393C250.848 527.479 250.887 527.575 250.887 527.683C250.887 527.726 250.873 527.783 250.844 527.855ZM256.226 527.855C256.147 528.019 256.047 528.216 255.925 528.446C255.811 528.668 255.678 528.9 255.528 529.144C255.377 529.387 255.209 529.631 255.023 529.874C254.837 530.111 254.633 530.325 254.411 530.519C254.196 530.705 253.963 530.855 253.712 530.97C253.469 531.092 253.207 531.153 252.928 531.153C252.498 531.153 252.13 531.02 251.822 530.755C251.514 530.49 251.252 530.143 251.037 529.713C250.823 529.283 250.647 528.796 250.511 528.252C250.382 527.701 250.282 527.142 250.21 526.576C250.139 526.003 250.089 525.448 250.06 524.911C250.038 524.374 250.028 523.898 250.028 523.483C250.028 522.881 250.046 522.258 250.081 521.614C250.124 520.969 250.189 520.339 250.275 519.723C250.361 519.107 250.468 518.523 250.597 517.972C250.733 517.42 250.891 516.937 251.07 516.522C251.256 516.106 251.467 515.777 251.703 515.533C251.94 515.29 252.208 515.168 252.509 515.168C252.745 515.168 252.957 515.226 253.143 515.34C253.336 515.448 253.497 515.627 253.626 515.877C253.755 516.128 253.856 516.454 253.927 516.855C253.999 517.256 254.035 517.746 254.035 518.326C254.035 519.043 253.959 519.784 253.809 520.55C253.659 521.309 253.454 522.075 253.197 522.849C252.939 523.622 252.634 524.396 252.284 525.169C251.933 525.935 251.557 526.684 251.156 527.414C251.335 528.324 251.575 529.04 251.875 529.563C252.176 530.078 252.538 530.336 252.96 530.336C253.247 530.336 253.523 530.225 253.787 530.003C254.052 529.774 254.296 529.505 254.518 529.198C254.74 528.89 254.933 528.578 255.098 528.263C255.27 527.941 255.402 527.683 255.495 527.49C255.531 527.418 255.581 527.364 255.646 527.328C255.71 527.285 255.782 527.264 255.861 527.264C255.982 527.264 256.079 527.307 256.151 527.393C256.23 527.479 256.269 527.575 256.269 527.683C256.269 527.726 256.255 527.783 256.226 527.855ZM250.844 523.536C250.844 523.995 250.855 524.435 250.876 524.858C250.898 525.28 250.926 525.685 250.962 526.072C251.263 525.491 251.55 524.876 251.822 524.224C252.094 523.565 252.334 522.903 252.541 522.237C252.749 521.563 252.914 520.897 253.036 520.239C253.164 519.573 253.229 518.939 253.229 518.337C253.229 517.492 253.161 516.887 253.025 516.522C252.889 516.156 252.706 515.974 252.477 515.974C252.327 515.974 252.18 516.078 252.036 516.285C251.9 516.493 251.772 516.776 251.65 517.134C251.528 517.492 251.417 517.915 251.317 518.402C251.217 518.889 251.131 519.411 251.059 519.97C250.995 520.529 250.941 521.112 250.898 521.721C250.862 522.33 250.844 522.935 250.844 523.536ZM263.81 527.833C263.781 527.891 263.72 528.012 263.627 528.198C263.541 528.378 263.427 528.585 263.284 528.822C263.148 529.058 262.986 529.305 262.8 529.563C262.614 529.821 262.406 530.057 262.177 530.272C261.948 530.487 261.701 530.666 261.436 530.809C261.171 530.945 260.892 531.013 260.598 531.013C260.183 531.013 259.832 530.88 259.545 530.615C259.266 530.351 259.062 530.017 258.933 529.616C258.689 530.025 258.399 530.351 258.063 530.594C257.726 530.83 257.39 530.948 257.053 530.948C256.788 530.948 256.548 530.902 256.333 530.809C256.119 530.709 255.936 530.573 255.786 530.401C255.635 530.222 255.517 530.014 255.431 529.778C255.352 529.541 255.313 529.283 255.313 529.004C255.313 528.446 255.406 527.955 255.592 527.532C255.786 527.103 256.029 526.745 256.323 526.458C256.616 526.172 256.939 525.957 257.289 525.814C257.648 525.67 257.991 525.599 258.321 525.599C258.543 525.599 258.747 525.631 258.933 525.696C259.119 525.753 259.277 525.817 259.406 525.889C259.542 525.961 259.646 526.029 259.717 526.093C259.789 526.15 259.828 526.183 259.835 526.19C259.914 526.283 259.953 526.379 259.953 526.48C259.953 526.587 259.914 526.684 259.835 526.77C259.757 526.849 259.663 526.888 259.556 526.888C259.441 526.888 259.345 526.849 259.266 526.77C259.252 526.755 259.219 526.73 259.169 526.695C259.119 526.652 259.051 526.609 258.965 526.566C258.879 526.523 258.775 526.487 258.654 526.458C258.539 526.422 258.407 526.405 258.256 526.405C258.034 526.405 257.798 526.455 257.547 526.555C257.297 526.655 257.067 526.813 256.86 527.028C256.652 527.235 256.477 527.5 256.333 527.823C256.197 528.138 256.129 528.514 256.129 528.95C256.129 529.087 256.144 529.226 256.172 529.369C256.201 529.505 256.251 529.631 256.323 529.745C256.394 529.86 256.491 529.953 256.613 530.025C256.734 530.096 256.885 530.132 257.064 530.132C257.193 530.132 257.34 530.089 257.504 530.003C257.676 529.917 257.837 529.785 257.988 529.606C258.145 529.427 258.285 529.201 258.407 528.929C258.536 528.657 258.625 528.335 258.675 527.962C258.689 527.862 258.736 527.78 258.815 527.715C258.894 527.643 258.987 527.608 259.094 527.608C259.194 527.608 259.28 527.647 259.352 527.726C259.431 527.805 259.474 527.894 259.481 527.994C259.488 528.13 259.502 528.324 259.524 528.574C259.545 528.818 259.592 529.061 259.663 529.305C259.742 529.548 259.857 529.76 260.007 529.939C260.158 530.118 260.365 530.207 260.63 530.207C260.802 530.207 260.97 530.161 261.135 530.068C261.307 529.975 261.472 529.853 261.629 529.702C261.794 529.545 261.948 529.369 262.091 529.176C262.242 528.976 262.378 528.775 262.499 528.574C262.621 528.374 262.729 528.181 262.822 527.994C262.915 527.808 262.994 527.647 263.058 527.511C263.094 527.432 263.144 527.371 263.208 527.328C263.28 527.285 263.355 527.264 263.434 527.264C263.556 527.264 263.652 527.31 263.724 527.404C263.803 527.49 263.842 527.583 263.842 527.683C263.842 527.733 263.831 527.783 263.81 527.833ZM264.197 526.415C264.168 526.609 264.132 526.791 264.089 526.963C264.046 527.128 264.003 527.275 263.96 527.404C263.925 527.525 263.892 527.626 263.864 527.704C263.835 527.783 263.817 527.826 263.81 527.833C263.738 527.998 263.613 528.08 263.434 528.08C263.334 528.08 263.241 528.045 263.155 527.973C263.069 527.894 263.026 527.797 263.026 527.683C263.026 527.64 263.033 527.608 263.047 527.586C263.062 527.565 263.083 527.522 263.112 527.457C263.14 527.393 263.176 527.285 263.219 527.135C263.262 526.985 263.316 526.752 263.38 526.437C263.259 526.437 263.133 526.433 263.004 526.426C262.875 526.419 262.757 526.394 262.65 526.351C262.535 526.308 262.442 526.24 262.37 526.147C262.299 526.054 262.263 525.925 262.263 525.76C262.263 525.638 262.299 525.474 262.37 525.266C262.435 525.058 262.524 524.854 262.639 524.654C262.754 524.453 262.883 524.281 263.026 524.138C263.169 523.988 263.312 523.912 263.455 523.912C263.62 523.912 263.753 523.973 263.853 524.095C263.96 524.217 264.043 524.367 264.1 524.546C264.157 524.718 264.197 524.901 264.218 525.094C264.247 525.287 264.261 525.456 264.261 525.599C264.383 525.599 264.501 525.599 264.616 525.599C264.737 525.592 264.852 525.588 264.959 525.588C265.368 525.588 265.679 525.678 265.894 525.857C266.109 526.036 266.216 526.329 266.216 526.738C266.216 526.902 266.205 527.074 266.184 527.253C266.162 527.432 266.137 527.618 266.109 527.812C266.08 527.998 266.055 528.184 266.034 528.37C266.012 528.557 266.001 528.739 266.001 528.918C266.001 529.176 266.037 529.391 266.109 529.563C266.18 529.727 266.27 529.86 266.377 529.96C266.485 530.06 266.599 530.132 266.721 530.175C266.843 530.211 266.954 530.229 267.054 530.229C267.362 530.229 267.652 530.128 267.924 529.928C268.196 529.727 268.447 529.488 268.676 529.208C268.905 528.922 269.109 528.621 269.288 528.306C269.475 527.991 269.629 527.715 269.75 527.479C269.786 527.414 269.836 527.364 269.901 527.328C269.965 527.293 270.033 527.275 270.105 527.275C270.234 527.275 270.334 527.318 270.406 527.404C270.477 527.482 270.513 527.572 270.513 527.672C270.513 527.744 270.499 527.808 270.47 527.865C270.305 528.159 270.112 528.492 269.89 528.865C269.675 529.23 269.428 529.573 269.149 529.896C268.87 530.218 268.554 530.49 268.203 530.712C267.86 530.934 267.48 531.045 267.065 531.045C266.807 531.045 266.564 530.995 266.334 530.895C266.105 530.802 265.905 530.666 265.733 530.487C265.568 530.3 265.436 530.075 265.335 529.81C265.235 529.538 265.185 529.233 265.185 528.897C265.185 528.539 265.221 528.184 265.292 527.833C265.364 527.475 265.4 527.135 265.4 526.813C265.4 526.677 265.368 526.576 265.303 526.512C265.246 526.44 265.113 526.405 264.906 526.405C264.805 526.405 264.694 526.405 264.573 526.405C264.458 526.405 264.333 526.408 264.197 526.415ZM263.477 525.62C263.477 525.57 263.473 525.506 263.466 525.427C263.466 525.341 263.459 525.259 263.445 525.18C263.438 525.101 263.423 525.033 263.402 524.976C263.387 524.919 263.37 524.89 263.348 524.89C263.327 524.89 263.298 524.919 263.262 524.976C263.233 525.026 263.201 525.09 263.165 525.169C263.13 525.241 263.097 525.32 263.069 525.406C263.04 525.491 263.019 525.563 263.004 525.62H263.477ZM271.501 522.398C271.501 522.67 271.405 522.903 271.211 523.096C271.025 523.282 270.796 523.375 270.524 523.375C270.252 523.375 270.019 523.282 269.826 523.096C269.639 522.903 269.546 522.67 269.546 522.398C269.546 522.262 269.571 522.136 269.621 522.022C269.672 521.9 269.74 521.796 269.826 521.71C269.919 521.617 270.023 521.545 270.137 521.495C270.259 521.445 270.388 521.42 270.524 521.42C270.66 521.42 270.785 521.445 270.9 521.495C271.022 521.545 271.125 521.617 271.211 521.71C271.304 521.796 271.376 521.9 271.426 522.022C271.476 522.136 271.501 522.262 271.501 522.398ZM269.761 528.693C269.761 527.661 269.826 526.634 269.954 525.61C269.969 525.509 270.012 525.423 270.083 525.352C270.162 525.273 270.262 525.234 270.384 525.234C270.492 525.234 270.581 525.277 270.653 525.363C270.724 525.441 270.76 525.534 270.76 525.642C270.76 525.685 270.749 525.814 270.728 526.029C270.714 526.243 270.692 526.501 270.663 526.802C270.642 527.096 270.62 527.411 270.599 527.747C270.585 528.077 270.578 528.381 270.578 528.66C270.578 529.04 270.613 529.348 270.685 529.584C270.764 529.813 270.86 529.992 270.975 530.121C271.097 530.25 271.222 530.336 271.351 530.379C271.487 530.422 271.616 530.444 271.738 530.444C271.938 530.444 272.146 530.372 272.361 530.229C272.576 530.086 272.794 529.885 273.016 529.627C273.245 529.369 273.474 529.061 273.703 528.703C273.933 528.338 274.158 527.934 274.38 527.49C274.416 527.418 274.466 527.364 274.531 527.328C274.595 527.285 274.667 527.264 274.745 527.264C274.86 527.264 274.953 527.307 275.025 527.393C275.104 527.479 275.143 527.572 275.143 527.672C275.143 527.744 275.129 527.805 275.1 527.855C275.014 528.019 274.907 528.22 274.778 528.456C274.649 528.693 274.502 528.936 274.337 529.187C274.173 529.437 273.99 529.688 273.789 529.939C273.596 530.182 273.388 530.404 273.166 530.605C272.944 530.798 272.712 530.956 272.468 531.077C272.225 531.199 271.978 531.26 271.727 531.26C271.405 531.26 271.122 531.192 270.878 531.056C270.635 530.92 270.427 530.737 270.255 530.508C270.091 530.279 269.965 530.01 269.879 529.702C269.8 529.387 269.761 529.051 269.761 528.693ZM270.9 522.398C270.9 522.297 270.86 522.212 270.782 522.14C270.71 522.061 270.624 522.022 270.524 522.022C270.424 522.022 270.338 522.061 270.266 522.14C270.194 522.212 270.159 522.297 270.159 522.398C270.159 522.498 270.194 522.584 270.266 522.656C270.338 522.727 270.424 522.763 270.524 522.763C270.624 522.763 270.71 522.727 270.782 522.656C270.86 522.584 270.9 522.498 270.9 522.398ZM275.562 526.856C275.519 526.97 275.465 527.099 275.401 527.242C275.343 527.386 275.275 527.536 275.197 527.694C275.132 527.815 275.064 527.912 274.993 527.984C274.928 528.048 274.842 528.08 274.735 528.08C274.613 528.08 274.516 528.045 274.445 527.973C274.373 527.894 274.337 527.805 274.337 527.704C274.337 527.669 274.341 527.64 274.348 527.618C274.355 527.59 274.373 527.547 274.402 527.49C274.588 527.131 274.724 526.82 274.81 526.555C274.903 526.283 274.978 526 275.036 525.706C274.985 525.542 274.95 525.402 274.928 525.287C274.907 525.173 274.896 525.055 274.896 524.933C274.896 524.697 274.946 524.507 275.046 524.364C275.147 524.213 275.286 524.138 275.465 524.138C275.63 524.138 275.759 524.21 275.852 524.353C275.952 524.496 276.002 524.671 276.002 524.879C276.002 524.994 275.992 525.108 275.97 525.223C275.949 525.337 275.92 525.481 275.884 525.653C276.049 526.061 276.214 526.422 276.378 526.738C276.543 527.053 276.69 527.343 276.819 527.608C276.948 527.865 277.051 528.109 277.13 528.338C277.216 528.567 277.259 528.796 277.259 529.026C277.259 529.326 277.198 529.613 277.077 529.885C276.955 530.157 276.754 530.386 276.475 530.573C276.511 530.58 276.547 530.583 276.582 530.583C276.618 530.583 276.654 530.583 276.69 530.583C277.098 530.583 277.474 530.49 277.818 530.304C278.161 530.118 278.469 529.878 278.742 529.584C279.021 529.283 279.268 528.954 279.483 528.596C279.698 528.231 279.884 527.869 280.041 527.511C280.113 527.346 280.213 527.264 280.342 527.264C280.464 527.264 280.557 527.307 280.621 527.393C280.693 527.479 280.729 527.572 280.729 527.672C280.729 527.729 280.718 527.783 280.697 527.833C280.618 528.027 280.514 528.249 280.385 528.499C280.263 528.743 280.113 528.997 279.934 529.262C279.762 529.52 279.562 529.774 279.332 530.025C279.103 530.275 278.845 530.501 278.559 530.701C278.28 530.895 277.972 531.049 277.635 531.163C277.299 531.285 276.93 531.346 276.529 531.346C276.049 531.346 275.601 531.26 275.186 531.088C274.778 530.923 274.445 530.648 274.187 530.261C274.144 530.197 274.122 530.128 274.122 530.057C274.122 529.949 274.162 529.856 274.241 529.778C274.327 529.692 274.423 529.649 274.531 529.649C274.645 529.649 274.742 529.688 274.821 529.767C274.828 529.781 274.853 529.806 274.896 529.842C274.939 529.871 274.989 529.906 275.046 529.949C275.111 529.985 275.182 530.017 275.261 530.046C275.347 530.075 275.433 530.089 275.519 530.089C275.691 530.089 275.834 530.053 275.949 529.982C276.07 529.91 276.167 529.824 276.239 529.724C276.31 529.616 276.36 529.505 276.389 529.391C276.425 529.269 276.443 529.165 276.443 529.079C276.443 528.9 276.414 528.721 276.357 528.542C276.3 528.363 276.224 528.184 276.131 528.005C276.045 527.826 275.949 527.643 275.841 527.457C275.741 527.264 275.648 527.063 275.562 526.856ZM281.148 526.856C281.105 526.97 281.051 527.099 280.987 527.242C280.929 527.386 280.861 527.536 280.783 527.694C280.718 527.815 280.65 527.912 280.578 527.984C280.514 528.048 280.428 528.08 280.321 528.08C280.199 528.08 280.102 528.045 280.031 527.973C279.959 527.894 279.923 527.805 279.923 527.704C279.923 527.669 279.927 527.64 279.934 527.618C279.941 527.59 279.959 527.547 279.988 527.49C280.174 527.131 280.31 526.82 280.396 526.555C280.489 526.283 280.564 526 280.621 525.706C280.571 525.542 280.536 525.402 280.514 525.287C280.493 525.173 280.482 525.055 280.482 524.933C280.482 524.697 280.532 524.507 280.632 524.364C280.732 524.213 280.872 524.138 281.051 524.138C281.216 524.138 281.345 524.21 281.438 524.353C281.538 524.496 281.588 524.671 281.588 524.879C281.588 524.994 281.578 525.108 281.556 525.223C281.535 525.337 281.506 525.481 281.47 525.653C281.635 526.061 281.8 526.422 281.964 526.738C282.129 527.053 282.276 527.343 282.405 527.608C282.534 527.865 282.637 528.109 282.716 528.338C282.802 528.567 282.845 528.796 282.845 529.026C282.845 529.326 282.784 529.613 282.662 529.885C282.541 530.157 282.34 530.386 282.061 530.573C282.097 530.58 282.133 530.583 282.168 530.583C282.204 530.583 282.24 530.583 282.276 530.583C282.684 530.583 283.06 530.49 283.404 530.304C283.747 530.118 284.055 529.878 284.328 529.584C284.607 529.283 284.854 528.954 285.069 528.596C285.284 528.231 285.47 527.869 285.627 527.511C285.699 527.346 285.799 527.264 285.928 527.264C286.05 527.264 286.143 527.307 286.207 527.393C286.279 527.479 286.315 527.572 286.315 527.672C286.315 527.729 286.304 527.783 286.283 527.833C286.204 528.027 286.1 528.249 285.971 528.499C285.849 528.743 285.699 528.997 285.52 529.262C285.348 529.52 285.148 529.774 284.918 530.025C284.689 530.275 284.431 530.501 284.145 530.701C283.866 530.895 283.558 531.049 283.221 531.163C282.884 531.285 282.516 531.346 282.115 531.346C281.635 531.346 281.187 531.26 280.772 531.088C280.364 530.923 280.031 530.648 279.773 530.261C279.73 530.197 279.708 530.128 279.708 530.057C279.708 529.949 279.748 529.856 279.827 529.778C279.912 529.692 280.009 529.649 280.117 529.649C280.231 529.649 280.328 529.688 280.407 529.767C280.414 529.781 280.439 529.806 280.482 529.842C280.525 529.871 280.575 529.906 280.632 529.949C280.697 529.985 280.768 530.017 280.847 530.046C280.933 530.075 281.019 530.089 281.105 530.089C281.277 530.089 281.42 530.053 281.535 529.982C281.656 529.91 281.753 529.824 281.825 529.724C281.896 529.616 281.946 529.505 281.975 529.391C282.011 529.269 282.029 529.165 282.029 529.079C282.029 528.9 282 528.721 281.943 528.542C281.885 528.363 281.81 528.184 281.717 528.005C281.631 527.826 281.535 527.643 281.427 527.457C281.327 527.264 281.234 527.063 281.148 526.856ZM286.83 529.649C286.981 529.856 287.174 530.025 287.411 530.154C287.647 530.275 287.937 530.336 288.281 530.336C288.632 530.336 288.95 530.254 289.237 530.089C289.523 529.917 289.785 529.695 290.021 529.423C290.257 529.151 290.468 528.847 290.655 528.51C290.841 528.173 291.009 527.837 291.16 527.5C291.195 527.421 291.245 527.364 291.31 527.328C291.374 527.285 291.446 527.264 291.525 527.264C291.647 527.264 291.743 527.307 291.815 527.393C291.894 527.479 291.933 527.572 291.933 527.672C291.933 527.708 291.929 527.74 291.922 527.769C291.915 527.79 291.904 527.815 291.89 527.844C291.396 528.933 290.855 529.753 290.268 530.304C289.688 530.855 289.029 531.138 288.291 531.153C287.819 531.153 287.411 531.059 287.067 530.873C286.723 530.694 286.44 530.462 286.218 530.175C285.996 529.881 285.831 529.552 285.724 529.187C285.617 528.822 285.563 528.456 285.563 528.091C285.563 527.726 285.606 527.389 285.692 527.081C285.785 526.773 285.914 526.505 286.078 526.276C286.25 526.046 286.451 525.867 286.68 525.739C286.916 525.61 287.174 525.545 287.453 525.545C287.618 525.545 287.779 525.581 287.937 525.653C288.102 525.717 288.248 525.814 288.377 525.943C288.506 526.064 288.61 526.215 288.689 526.394C288.768 526.573 288.807 526.777 288.807 527.006C288.807 527.3 288.757 527.575 288.657 527.833C288.556 528.091 288.417 528.331 288.238 528.553C288.066 528.775 287.858 528.979 287.615 529.165C287.371 529.351 287.11 529.513 286.83 529.649ZM286.508 528.95C286.73 528.857 286.931 528.739 287.11 528.596C287.296 528.453 287.453 528.295 287.582 528.123C287.711 527.951 287.812 527.772 287.883 527.586C287.955 527.393 287.991 527.199 287.991 527.006C287.991 526.791 287.937 526.63 287.829 526.523C287.722 526.408 287.597 526.351 287.453 526.351C287.26 526.351 287.095 526.405 286.959 526.512C286.823 526.619 286.712 526.759 286.626 526.931C286.54 527.103 286.476 527.296 286.433 527.511C286.397 527.719 286.379 527.926 286.379 528.134C286.379 528.263 286.39 528.399 286.411 528.542C286.44 528.685 286.472 528.822 286.508 528.95ZM296.853 529.917C296.967 529.674 297.1 529.412 297.25 529.133C297.401 528.847 297.562 528.557 297.734 528.263C297.906 527.962 298.088 527.665 298.282 527.371C298.475 527.078 298.675 526.802 298.883 526.544C299.091 526.294 299.299 526.115 299.506 526.007C299.721 525.892 299.922 525.835 300.108 525.835C300.294 525.835 300.455 525.875 300.591 525.953C300.734 526.025 300.849 526.125 300.935 526.254C301.028 526.383 301.096 526.533 301.139 526.705C301.189 526.877 301.214 527.063 301.214 527.264C301.214 527.429 301.196 527.651 301.161 527.93C301.132 528.202 301.118 528.489 301.118 528.789C301.118 528.961 301.125 529.133 301.139 529.305C301.161 529.47 301.193 529.62 301.236 529.756C301.286 529.885 301.357 529.992 301.451 530.078C301.544 530.157 301.665 530.197 301.816 530.197C301.988 530.197 302.16 530.15 302.331 530.057C302.503 529.957 302.672 529.828 302.836 529.67C303.001 529.505 303.159 529.326 303.309 529.133C303.459 528.933 303.595 528.736 303.717 528.542C303.839 528.342 303.946 528.152 304.039 527.973C304.133 527.787 304.208 527.633 304.265 527.511C304.337 527.346 304.462 527.264 304.641 527.264C304.763 527.264 304.859 527.307 304.931 527.393C305.003 527.479 305.038 527.572 305.038 527.672C305.038 527.729 305.028 527.783 305.006 527.833C304.978 527.891 304.92 528.009 304.834 528.188C304.756 528.367 304.645 528.574 304.501 528.811C304.365 529.047 304.204 529.294 304.018 529.552C303.832 529.81 303.624 530.05 303.395 530.272C303.173 530.487 302.929 530.666 302.664 530.809C302.407 530.945 302.134 531.013 301.848 531.013C301.519 531.013 301.254 530.945 301.053 530.809C300.853 530.666 300.695 530.487 300.58 530.272C300.473 530.057 300.398 529.817 300.355 529.552C300.319 529.287 300.301 529.029 300.301 528.779C300.301 528.65 300.305 528.514 300.312 528.37C300.326 528.22 300.341 528.073 300.355 527.93C300.369 527.787 300.38 527.654 300.387 527.532C300.401 527.404 300.409 527.296 300.409 527.21C300.409 526.988 300.376 526.838 300.312 526.759C300.255 526.68 300.187 526.641 300.108 526.641C299.993 526.641 299.861 526.709 299.71 526.845C299.567 526.974 299.413 527.146 299.248 527.361C299.091 527.575 298.93 527.819 298.765 528.091C298.607 528.356 298.453 528.621 298.303 528.886C298.153 529.151 298.017 529.405 297.895 529.649C297.773 529.885 297.673 530.082 297.594 530.24C297.444 530.54 297.29 530.741 297.132 530.841C296.982 530.948 296.846 531.002 296.724 531.002C296.502 531.002 296.33 530.916 296.208 530.744C296.094 530.565 296.036 530.351 296.036 530.1V529.423C296.036 528.07 296.036 526.781 296.036 525.556C296.044 524.324 296.062 523.182 296.09 522.129C296.126 521.069 296.18 520.113 296.251 519.261C296.33 518.402 296.445 517.671 296.595 517.07C296.745 516.461 296.935 515.992 297.164 515.662C297.401 515.333 297.694 515.168 298.045 515.168C298.346 515.168 298.6 515.251 298.808 515.415C299.016 515.58 299.184 515.806 299.313 516.092C299.442 516.371 299.535 516.701 299.592 517.08C299.649 517.453 299.678 517.847 299.678 518.262C299.678 519.107 299.599 519.938 299.442 520.754C299.291 521.563 299.087 522.355 298.829 523.128C298.572 523.902 298.271 524.657 297.927 525.395C297.583 526.125 297.222 526.838 296.842 527.532C296.842 527.661 296.842 527.815 296.842 527.994C296.842 528.173 296.842 528.352 296.842 528.531C296.842 528.711 296.842 528.879 296.842 529.036C296.842 529.194 296.842 529.319 296.842 529.412L296.853 529.917ZM296.853 525.953C297.154 525.295 297.426 524.654 297.669 524.031C297.92 523.4 298.131 522.774 298.303 522.151C298.482 521.528 298.622 520.897 298.722 520.26C298.822 519.615 298.872 518.946 298.872 518.251C298.872 518.137 298.865 517.954 298.851 517.703C298.844 517.453 298.812 517.198 298.754 516.941C298.704 516.683 298.622 516.457 298.507 516.264C298.4 516.071 298.246 515.974 298.045 515.974C297.888 515.974 297.752 516.081 297.637 516.296C297.523 516.504 297.422 516.79 297.336 517.156C297.25 517.514 297.179 517.933 297.121 518.412C297.064 518.892 297.018 519.401 296.982 519.938C296.946 520.475 296.917 521.026 296.896 521.592C296.882 522.158 296.871 522.709 296.864 523.246C296.856 523.776 296.853 524.274 296.853 524.74C296.853 525.205 296.853 525.61 296.853 525.953ZM308.444 527.704C308.795 529.359 309.303 530.186 309.969 530.186C310.227 530.186 310.474 530.093 310.71 529.906C310.947 529.713 311.165 529.48 311.366 529.208C311.573 528.929 311.756 528.635 311.913 528.327C312.071 528.019 312.2 527.751 312.3 527.522C312.372 527.35 312.497 527.264 312.676 527.264C312.791 527.264 312.887 527.307 312.966 527.393C313.045 527.479 313.084 527.572 313.084 527.672C313.084 527.729 313.074 527.78 313.052 527.823C313.002 527.944 312.927 528.109 312.827 528.317C312.733 528.517 312.615 528.736 312.472 528.972C312.336 529.201 312.182 529.437 312.01 529.681C311.838 529.924 311.648 530.143 311.441 530.336C311.233 530.53 311.011 530.691 310.775 530.82C310.546 530.941 310.302 531.002 310.044 531.002C309.564 531.002 309.153 530.837 308.809 530.508C308.465 530.171 308.168 529.62 307.917 528.854C307.574 529.584 307.226 530.114 306.875 530.444C306.524 530.773 306.145 530.938 305.737 530.938C305.522 530.938 305.314 530.902 305.114 530.83C304.913 530.766 304.738 530.655 304.587 530.497C304.437 530.34 304.315 530.139 304.222 529.896C304.129 529.645 304.082 529.341 304.082 528.983C304.082 528.489 304.168 528.034 304.34 527.618C304.512 527.203 304.734 526.849 305.006 526.555C305.278 526.254 305.579 526.021 305.909 525.857C306.245 525.692 306.578 525.61 306.908 525.61C307.015 525.61 307.108 525.649 307.187 525.728C307.266 525.799 307.305 525.892 307.305 526.007C307.305 526.107 307.273 526.197 307.208 526.276C307.144 526.354 307.058 526.401 306.951 526.415C306.736 526.444 306.507 526.512 306.263 526.619C306.02 526.727 305.794 526.884 305.586 527.092C305.386 527.293 305.217 527.55 305.081 527.865C304.953 528.181 304.888 528.557 304.888 528.993C304.888 529.351 304.96 529.631 305.103 529.831C305.253 530.032 305.468 530.132 305.747 530.132C305.862 530.132 305.984 530.103 306.113 530.046C306.242 529.982 306.378 529.86 306.521 529.681C306.671 529.502 306.832 529.248 307.004 528.918C307.183 528.589 307.38 528.156 307.595 527.618C307.473 526.988 307.362 526.261 307.262 525.438C307.162 524.614 307.112 523.694 307.112 522.677C307.112 522.233 307.126 521.771 307.155 521.291C307.183 520.804 307.23 520.332 307.294 519.873C307.359 519.408 307.445 518.967 307.552 518.552C307.66 518.137 307.788 517.771 307.939 517.456C308.096 517.141 308.279 516.894 308.487 516.715C308.694 516.529 308.931 516.436 309.196 516.436C309.432 516.436 309.633 516.5 309.797 516.629C309.962 516.758 310.094 516.937 310.195 517.166C310.302 517.395 310.381 517.671 310.431 517.993C310.481 518.316 310.506 518.67 310.506 519.057C310.506 519.888 310.435 520.718 310.291 521.549C310.148 522.38 309.969 523.175 309.754 523.934C309.547 524.693 309.325 525.395 309.088 526.039C308.852 526.684 308.637 527.239 308.444 527.704ZM309.701 519.046C309.701 518.867 309.693 518.674 309.679 518.466C309.672 518.258 309.647 518.065 309.604 517.886C309.568 517.7 309.518 517.546 309.453 517.424C309.389 517.302 309.303 517.241 309.196 517.241C309.017 517.241 308.848 517.399 308.691 517.714C308.54 518.029 308.408 518.445 308.293 518.96C308.179 519.469 308.086 520.049 308.014 520.7C307.95 521.345 307.917 521.997 307.917 522.656C307.917 523.286 307.942 523.916 307.993 524.546C308.043 525.176 308.1 525.739 308.164 526.233C308.372 525.681 308.569 525.115 308.755 524.535C308.941 523.948 309.103 523.35 309.239 522.741C309.382 522.133 309.493 521.52 309.572 520.905C309.658 520.281 309.701 519.662 309.701 519.046Z" fill="black"/>
</svg>
