<svg width="229" height="364" viewBox="0 0 229 364" fill="none" xmlns="http://www.w3.org/2000/svg">
<path fill-rule="evenodd" clip-rule="evenodd" d="M89.9071 363.727C73.794 363.328 59.1261 364.449 43.61 360.825L43.5902 360.223C40.2621 360.112 41.3638 356.531 42.0329 354.025C-20.5867 350.817 20.2574 175.046 63.6517 163.227C65.7775 162.81 68.0869 162.59 70.4284 162.563C73.4495 161.501 76.4266 161.312 79.5847 160.343C79.8877 159.07 79.9373 158.334 81.277 158.711C86.0856 153.422 94.738 148.551 97.6575 158.871C101.5 152.72 103.703 145.53 105.308 138.248L105.568 138.297C106.25 136.36 107.367 133.91 108.726 133.506C110.844 132.699 114.837 132.885 117.139 132.557C122.131 132.159 127.93 131.181 132.715 132.5C144.673 135.871 139.491 152.127 149.185 162.71C153.635 160.589 160.608 161.171 164.87 163.696C167.615 166.228 166.239 169.082 165.758 171.758C196.374 168.58 204.52 209.475 210.838 236.433C213.373 245.402 215.889 251.482 220.206 258.406C225.815 266.501 228.964 277.101 223.218 285.64C231.421 304.49 222.516 322.208 213.093 336.438C211.248 338.717 208.255 345.058 205.551 345.491C204.817 346.263 203.645 347.214 202.818 347.904L203.815 349.41C203.934 350.801 203.942 352.295 204.768 353.535C205.562 354.427 206.411 355.34 206.435 356.671C205.169 358.363 203.534 356.473 202.333 355.633C201.873 356.675 201.939 359.151 200.463 359.054C163.878 361.944 126.409 363.838 89.9071 363.727Z" fill="white"/>
<path fill-rule="evenodd" clip-rule="evenodd" d="M104.593 138.308C107.503 142.67 102.763 156.009 100.581 160.635C115.496 167.807 132.139 170.934 148.071 166.861C143.933 162.303 139.361 147.737 142.767 142.617L142.923 143.538C144.078 150.31 145.491 157.336 149.732 162.516C155.739 160.68 170.341 160.845 167.95 171.754C205.026 171.854 205.334 223.521 217.696 252.349C223.627 263.36 232.81 274.655 225.121 287.885C226.632 292.058 227.685 296.482 228.077 300.976C229.285 315.64 221.493 328.191 214.468 339.57C211.993 342.697 209.923 347.938 206.325 349.275C205.956 349.64 205.571 349.987 205.177 350.317C205.891 351.515 205.312 353.42 206.148 354.47L206.475 354.835C207.024 355.454 207.778 356.374 207.928 357.196L207.999 357.907C208.03 358.186 208.037 358.171 208.019 357.862L208.009 357.764C207.998 357.63 208.014 357.641 208.059 357.796L208.078 357.866C208.455 359.11 207.661 360.533 206.577 360.864C203.349 362.856 199.917 357.026 200.998 353.125C183.1 362.015 145.924 345.937 127.939 337.967C124.503 336.377 121.245 334.314 117.769 332.854L117.511 332.709C113.499 330.435 109.5 327.136 104.796 328.456C85.0032 338.217 66.5983 354.471 44.6571 357.676C48.0894 365.225 37.9883 366.236 40.0121 357.804C-19.6968 348.883 17.5102 201.1 49.228 172.554C59.3256 161.478 66.1188 164.018 78.3877 160.82C78.6696 159.63 79.7041 158.632 80.7993 158.801C85.1595 154.026 94.1886 149.374 97.9143 157.13C100.193 153.03 101.777 148.474 102.885 143.789C103.327 141.928 103.483 139.802 104.593 138.308ZM81.2192 359.773C78.0357 356.868 82.8727 352.289 85.6287 354.136C86.4798 355.335 83.5386 354.138 83.9064 356.795C84.4424 358.561 82.8425 360.911 81.2192 359.773ZM146.198 356.167C143.932 351.257 145.921 349.069 149.323 352.892C152.43 355.591 148.263 359.976 146.198 356.167ZM114.647 355.709C111.452 353.732 110.658 344.716 115.843 349.05C120.457 350.939 119.189 357.698 114.647 355.709ZM78.8235 163.427C72.4364 165.46 65.3103 164.584 59.4522 168.796C45.1215 179.184 36.8801 197.093 30.6806 214.68L30.4933 215.213C17.9134 250.881 7.84476 292.349 18.4304 330.248C23.7769 347.49 36.9375 354.883 51.9168 348.894C89.5106 334.869 120.927 301.155 160.906 295.412C161.47 290.082 160.191 284.829 158.558 279.846C134.031 281.022 110.517 290.167 87.0138 297.528C85.6452 304.432 78.8061 312.474 74.7086 317.831C71.0067 323.537 61.8497 325.256 60.7234 316.482L60.543 316.717C57.5229 320.618 50.897 327.377 48.8628 318.957C48.4047 314.542 50.8619 310.722 52.0704 306.705L51.9426 306.813C49.7092 308.736 40.4667 317.808 39.8236 311.767C39.8648 306.074 41.4297 300.472 44.2684 295.809C47.1205 291.504 50.6247 287.451 54.4417 284.268C54.643 282.917 55.0093 281.612 55.2837 280.276C54.8647 275.254 56.5843 270.54 57.0352 265.622C58.075 261.008 58.3018 252.37 61.2026 249.124C63.4293 251.856 61.2232 262.272 61.1091 266.257C60.314 271.1 60.658 276.05 59.1339 280.76C63.433 278.052 68.092 276.678 72.7732 276.447C73.25 265.872 86.2497 269.565 92.2706 270.385C101.461 266.622 140.047 267.94 146.426 275.851C149.611 275.425 152.655 275.09 155.888 274.835C159.648 272.081 170.019 273.208 171.618 278.624C175.798 280.049 179.43 282.48 183.097 285.257C184.232 263.708 179.267 242.482 180.476 220.901C180.585 219.648 181.089 218.56 181.068 217.285C181.065 217.134 181.257 217.14 181.269 217.285C183.074 223.586 183.418 230.311 184.433 236.845C185.77 248.241 188.119 259.506 188.898 270.974C189.237 280.611 187.878 290.918 191.216 300.055C191.691 301.355 190.907 303.473 189.812 304.029C180.664 308.454 170.022 305.274 161.668 299.88C143.869 306.442 126.456 314.236 110.058 324.642C113.214 325.599 116.052 327.726 118.909 329.493C122.976 331.115 127.015 332.826 131.078 334.461C151.186 341.462 172.229 350.861 193.473 349.436C200.004 348.152 202.942 344.93 206.819 339.174L207.458 338.218C214.385 327.899 222.303 316.973 223.463 303.587C223.728 299.242 223.37 294.92 223.151 290.592C222.218 291.692 221.216 292.719 220.247 293.783C218.902 295.259 217.183 293.398 217.843 291.647C219.27 286.67 221.785 281.975 222.22 276.708C222.293 271.754 219.474 267.346 216.983 263.581C197.598 236.107 206.053 178.418 167.66 172.817C151.278 212.491 95.4164 195.998 79.3064 164.403L78.8235 163.427ZM35.7966 330.657C35.9583 325.249 43.4327 332.29 42.7425 335.242C42.3238 339.321 38.0281 337.415 37.0555 334.661C36.4518 333.401 35.9433 332.092 35.7966 330.657ZM183.794 325.092C184.872 322.829 191.29 329.337 187.963 331.475C185.711 332.843 184.848 329.638 184.359 327.714C184.092 326.909 183.586 325.98 183.794 325.092ZM74.0213 328.061C69.9789 325.299 78.8278 321.579 79.1601 326.084C79.2899 329.142 75.7053 328.979 74.0213 328.061ZM149.147 316.163C151.178 313.045 151.226 324.089 150.022 324.839C149.466 325.849 148.22 325.611 147.889 324.518C147.035 321.703 148.32 318.809 149.147 316.163ZM53.0774 318.107L53.0335 318.294C52.8081 319.307 53.3382 317.971 53.1339 318.168C53.1156 318.146 53.0964 318.126 53.0774 318.107ZM96.9679 291.694C87.7187 279.565 71.0351 276.555 58.5676 283.751C56.731 284.371 55.1196 286.107 53.4661 287.242C53.8813 287.069 54.3019 286.923 54.7266 286.799C49.2499 292.167 44.588 299.519 43.7463 307.891C48.7391 304.334 53.1253 299.878 56.5851 294.31C57.7227 292.024 60.99 293.594 60.2945 296.11C58.0496 303.216 54.6146 310.075 53.1764 317.418C58.5572 312.933 62.5281 306.331 64.7607 299.163C65.6993 296.088 69.8774 297.339 69.0443 300.523C67.9419 304.737 66.7652 308.936 65.7193 313.17L65.4375 314.326C65.0868 315.783 64.8809 317.118 66.3842 317.518C71.2287 317.878 77.7229 305.549 80.6098 301.349C82.0263 299.363 83.279 295.052 85.9536 295.68C89.283 293.173 93.2979 292.879 96.9679 291.694ZM203.611 311.091C204.163 310.539 204.841 310.157 205.575 310.438L205.646 310.468C207.863 311.361 206.144 314.855 204.243 313.626C203.597 313.068 202.895 312.599 202.125 312.294C201.663 311.746 203.335 311.498 203.611 311.091ZM100.417 300.891C101.07 297.368 107.114 302.159 104.963 304.641C102.921 306.438 100.591 303.145 100.417 300.891ZM27.6012 301.383C33.2757 297.129 33.9595 307.431 25.5689 304.421C24.8787 303.219 26.9076 302.04 27.6012 301.383ZM172.85 280.18C175.951 284.452 177.175 290.036 177.724 295.458C177.85 296.524 178.069 297.702 178.024 298.802C180.141 299.16 182.321 299.253 184.392 298.774C183.881 296.656 183.565 294.475 183.373 292.276C180.576 287.473 177.361 282.964 172.85 280.18ZM164.578 293.77C164.587 294.358 164.57 294.948 164.529 295.541C167.271 295.912 169.972 296.705 172.656 297.475L172.638 296.537C172.632 296.222 172.626 295.906 172.617 295.595C169.964 296.418 166.705 295.565 164.578 293.77ZM171.701 286.521C168.638 285.093 165.831 284.2 162.537 284.439C163.511 286.851 164.215 289.379 164.472 291.975C165.813 292.413 167.333 292.536 168.629 292.459C169.943 292.382 171.155 291.654 172.405 291.622C172.263 289.91 172.052 288.195 171.701 286.521ZM142.564 287.726C144.502 286.834 147.355 289.293 145.23 291.22C143.682 292.431 141.566 290.808 140.309 289.702C139.617 288.786 141.959 287.892 142.564 287.726ZM104.155 279.525C103.316 282.498 97.793 281.193 95.2627 282.794L95.4865 282.942C97.9176 284.574 100.558 286.892 101.01 289.838C104.229 288.391 107.474 287.021 110.737 285.726C108.803 283.238 106.581 281.189 104.155 279.525ZM141.667 276.611C127.139 270.612 111.305 270.788 96.0654 271.346L96.4662 271.485C103.036 273.781 110.729 277.348 114.154 284.405C123.131 281.033 132.317 278.241 141.667 276.611ZM169.952 281.347C167.716 276.788 163.364 274.75 159.107 275.092L158.436 275.219C158.899 275.406 159.335 275.671 159.727 276.046C160.426 276.717 160.414 278.192 159.796 278.929C160.58 280.268 161.316 281.663 161.967 283.105C164.314 281.219 167.129 280.947 169.952 281.347ZM209.201 281.447C204.115 284.884 200.434 268.79 206.843 272.247L207.3 272.811C209.157 275.119 212.028 279.02 209.201 281.447ZM89.951 273.911C88.3267 275.429 86.4355 276.53 84.7906 278.033C87.4949 278.821 90.1529 279.868 92.6679 281.245C94.7171 279.222 97.1815 277.933 99.7908 277.025C96.6613 275.532 93.307 274.536 89.951 273.911ZM23.3575 274.25L23.3814 274.177C24.1688 271.631 28.9206 267.854 31.2812 268.843C31.3915 268.837 31.5007 268.961 31.4943 269.089L31.5328 269.404C31.6657 270.524 31.7343 271.62 31.0927 272.618C29.9439 274.75 28.847 277.407 26.6375 278.238C24.4601 279.034 22.595 276.655 23.3575 274.25ZM84.5355 273.188L83.8097 273.144C80.4765 272.93 75.677 272.581 74.0492 276.41C76.8603 276.387 79.7196 276.742 82.5554 277.437C82.9797 275.965 83.6761 274.486 84.5355 273.188ZM102.742 256.922C102.234 255.807 104.116 257.029 104.553 256.858C105.365 256.915 106.099 257.107 106.558 257.948C107.294 259.297 105.864 260.743 104.738 260.044C103.651 259.353 103.912 257.549 102.742 256.922ZM166.602 250.682L166.671 250.675C167.794 250.53 172.608 249.269 172.595 250.64L172.503 250.789C170.989 253.273 169.016 258.163 165.936 256.419C163.958 255.122 164.355 251.244 166.602 250.682ZM133.079 250.48C133.968 248.594 135.871 252.973 136.438 253.752C137.243 255.83 134.919 257.451 133.772 255.547C133.06 254.061 132.743 252.147 133.079 250.48ZM49.707 246.153C50.9835 245.408 54.2117 245.341 53.328 247.854C51.606 250.484 48.4473 249.211 46.5184 247.527C45.5321 246.22 49.0939 246.751 49.707 246.153ZM80.7395 236.396C80.6238 234.513 82.4479 233.84 83.6775 234.455C85.8718 235.553 87.5724 239.592 86.8779 242.204C86.3189 244.795 82.9134 245.368 81.8313 242.963C81.2091 240.743 81.1253 238.623 80.7395 236.396ZM193.766 239.912C196.286 239.297 198.929 237.352 201.518 237.9C202.325 238.249 202.618 239.306 202.016 240.074C201.675 241.844 192.348 241.45 193.766 239.912ZM120.9 233.155C121.972 230.914 124.437 228.537 126.802 228.731C128.253 228.676 128.82 231.078 127.542 231.876L127.499 231.897C126.697 232.265 120.611 234.064 120.9 233.155ZM154.396 229.543C150.766 228.944 150.787 218.89 152.949 220.853C153.686 223.319 155.557 224.788 156.627 226.974C157.167 228.473 155.605 229.967 154.396 229.543ZM44.1888 227.318C45.7311 227.59 53.7404 221.98 52.2728 226.47C51.3178 227.728 50.1087 227.759 48.7535 227.875L48.7165 227.871C48.0215 227.819 42.9695 228.51 44.1888 227.318ZM99.5834 218.187C97.9808 217.973 92.1516 203.948 95.0026 204.831L95.4377 205.159C98.5967 207.561 102.08 210.631 103.489 214.729C104.045 217.173 101.566 219.751 99.5834 218.187ZM135.439 212.417C135.67 212.297 135.873 212.675 135.641 212.817C134.651 213.422 133.576 214.704 132.954 215.785C130.823 218.854 128.303 213.431 131.578 213.023C132.772 213.122 134.343 212.989 135.439 212.417ZM67.4479 195.44C70.4042 194.563 71.8336 199.052 69.4497 200.908C68.2575 202.085 57.0572 205.77 56.3866 204.291C57.7916 201.66 64.8119 196.363 67.4479 195.44ZM178.493 196.068C186.677 195.297 186.897 193.572 181.117 201.258C177.704 204.707 174.246 197.641 178.493 196.068ZM140.187 173.095C137.348 173.372 134.498 173.455 131.653 173.349C132.091 174.431 131.711 176.004 130.465 175.786C129.88 180.163 129.613 184.61 128.874 188.958C128.68 189.975 128.405 190.962 128.142 191.953C133.561 192.414 139.06 192.156 144.342 190.612C142.38 184.951 141.528 178.96 140.187 173.095ZM117.294 171.228C117.268 171.686 117.156 172.138 116.97 172.521C114.518 177.411 112.366 182.514 109.775 187.3C115.367 189.686 121.243 191.241 127.172 191.856C126.276 185.629 127.071 179.277 126.885 172.998C123.661 172.641 120.455 172.048 117.294 171.228ZM153.202 170.506C150.365 171.385 147.479 172.045 144.571 172.517C144.582 173.043 144.319 173.535 143.913 173.731C144.55 179.198 145.805 184.577 145.824 190.149C151.885 188.439 156.677 183.689 160.652 178.331L159.749 177.573C157.333 175.536 154.895 173.363 153.202 170.506ZM97.3317 158.149C93.8156 155.664 88.9481 156.722 86.1006 159.958C84.8388 161.254 83.7435 163.006 82.3066 164.024C82.1275 164.151 81.9439 164.237 81.7594 164.291C82.7492 166.447 84.2618 168.513 85.5405 170.29C92.397 177.185 100.116 182.975 108.599 186.785C108.946 180.924 110.707 175.231 112.72 169.846C110.844 169.195 108.994 168.445 107.177 167.597C106.946 169.007 105.799 170.095 105.073 171.189C103.427 173.409 102.33 176.124 100.762 178.383C99.0162 180.49 96.0495 177.802 97.3044 175.31C99.3265 171.91 101.94 168.832 104.976 166.517C102.975 165.483 101.066 164.266 99.2205 162.904C99.1423 162.998 99.0617 163.087 98.9801 163.174C98.8567 162.296 97.808 162.527 97.2503 162.671C96.853 162.283 96.3138 162.771 95.8712 162.898C95.8064 162.763 95.7521 162.619 95.7135 162.469C93.4408 165.054 91.7314 169.148 88.799 170.692C87.591 171.076 86.1903 169.695 86.6507 168.219C87.4264 165.952 93.719 161.141 95.7976 159.87C95.3427 159.108 95.7066 158.731 96.4439 158.844C96.5705 158.662 96.7646 158.605 96.9668 158.76C97.095 158.562 97.2152 158.356 97.3317 158.149ZM51.7472 180.921C53.1723 180.929 54.8549 180.244 56.1344 181.192C58.016 183.672 53.353 184.525 51.5255 181.538C51.3477 181.311 51.4644 180.919 51.7472 180.921ZM156.891 165.642C157.298 166.194 157.436 167.001 157.287 167.726C159.07 170.861 160.05 174.41 160.946 177.936L161.197 177.578C165.259 171.731 167.563 166.43 158.635 165.852C158.054 165.757 157.472 165.687 156.891 165.642ZM71.8116 173.869C64.4362 167.665 80.306 171.054 75.734 174.846C74.3271 175.435 72.9783 174.78 71.8116 173.869Z" fill="#594A4E"/>
<path fill-rule="evenodd" clip-rule="evenodd" d="M181.533 122.451C180.371 120.761 177.572 108.5 175.785 106.614C175.92 99.371 177.956 74.2934 172.139 63.0204C173.363 61.8038 176.615 51.3255 175.785 47.3643C178.525 39.0686 160.92 25.8929 154.22 22.3325C123.08 5.91555 77.9568 24.037 63.7951 54.4491C55.285 72.7644 55.1281 93.2705 54.166 112.978C54.0522 117.196 53.6579 121.447 53.6623 125.661C54.2777 129.363 57.2635 133.133 55 136.212C52.4996 137.912 47.4462 142.054 49.6962 144.403C51.0148 145.483 53.1212 144.857 54.5521 145.894C55.2806 146.295 55.735 147.173 56.5869 147.307C64.3691 147.016 69.8607 146.991 77.667 146.681C81.0843 146.571 86.288 147.992 90.2105 145.163C103.912 152.656 98.181 141.786 100.952 134.046C109.389 136.851 126.196 145.795 135.189 146.084C142.497 146.972 149.331 142.787 156.516 143.74C165.441 147 175.902 147.725 184.078 142.209C186.118 140.764 188.388 142.438 190.96 140.878C195.958 138.527 184.055 125.058 181.533 122.451Z" fill="white"/>
<path fill-rule="evenodd" clip-rule="evenodd" d="M171.332 62.0584C171.221 61.4327 172.098 60.966 172.438 61.6001C174.902 66.2063 175.889 71.5407 176.761 76.6285C177.643 81.7698 178.225 86.9325 178.258 92.1517C178.282 96.1664 177.911 100.227 177.215 104.245L177.3 104.531C177.456 105.056 177.614 105.581 177.773 106.105L178.014 106.892C178.479 108.401 178.919 109.918 179.397 111.424C180.394 114.567 181.444 117.719 182.729 120.761C183.984 123.729 185.51 126.591 187.324 129.266C189.072 131.845 191.846 134.026 193.078 136.891C193.507 137.889 192.872 139.208 191.687 139.049C191.61 139.14 191.492 139.206 191.333 139.22C190.412 139.299 189.549 139.224 188.631 139.139C188.118 139.092 188.119 138.403 188.631 138.356C189.021 138.32 189.401 138.288 189.781 138.266C187.154 136.736 185.28 133.748 183.782 131.302C181.856 128.159 180.402 124.725 179.216 121.253C177.999 117.687 177.137 114.048 176.444 110.352C176.364 109.927 176.289 109.501 176.216 109.075C175.341 112.733 174.213 116.325 172.878 119.776L172.69 120.257C169.611 128.106 165.44 136.031 158.502 141.219C158.187 141.454 157.865 141.678 157.541 141.896L157.936 142.119C158.329 142.339 158.716 142.551 159.094 142.724C160.496 143.367 162.018 143.858 163.523 144.205C166.632 144.923 169.898 144.717 173.07 144.817C174.11 144.85 174.702 146.384 173.638 146.882C170.135 148.522 166.351 148.174 162.734 147.02C160.945 146.448 159.266 145.648 157.712 144.604C157.07 144.173 156.324 143.64 155.694 143.024C148.756 146.841 140.133 147.268 132.41 145.903C128.397 145.193 124.508 143.898 121.087 141.682C117.796 139.551 115.45 136.852 113.775 133.356C113.627 133.046 114.04 132.661 114.293 132.963C119.554 139.245 128.607 141.866 136.572 142.365C140.821 142.631 145.169 142.41 149.254 141.16C153.13 139.974 156.456 137.799 159.233 134.908C164.861 129.046 168.234 121.072 170.656 113.483C173.291 105.228 174.545 96.5416 174.804 87.9018C174.935 83.5245 174.77 79.1104 174.071 74.7815C173.377 70.4884 172.09 66.3334 171.332 62.0584ZM92.4575 24.8686C92.8301 24.6824 93.0925 25.1669 92.7764 25.4052C86.2164 30.3515 80.3415 36.6232 75.5865 43.2613C66.8172 55.5043 61.1932 69.6717 58.6034 84.3931C57.0743 93.0868 56.675 101.912 56.8278 110.722C56.8883 114.221 57.0916 117.71 57.3177 121.2L57.573 125.069C57.6916 126.871 57.7906 128.658 57.714 130.469L57.6932 130.887C57.5718 132.995 57.7826 135.119 57.2449 137.175C56.9691 138.23 55.4567 138.396 54.909 137.475C54.8017 137.295 54.7015 137.109 54.6042 136.922C53.3207 138.98 51.6585 140.819 49.8142 142.463C50.6958 142.278 51.5858 142.161 52.4996 142.268C53.9481 142.439 55.2473 142.989 56.1667 143.953C57.0793 143.548 58.0177 143.27 59.0968 143.264C59.8916 143.26 60.4876 144.184 60.0341 144.87C59.1294 146.24 57.867 147.008 56.4326 147.767C55.416 148.305 54.2028 147.844 53.8274 146.781L53.8059 146.716C53.3834 145.371 51.1367 145.588 50.0766 145.796L49.7646 145.859C47.7914 146.262 45.8645 146.779 43.8543 146.246C42.5576 145.903 42.2188 143.984 43.4688 143.347C47.4176 141.335 50.7327 138.632 54.1395 135.919C53.3873 134.106 52.9601 132.08 52.4676 130.236C51.7743 127.641 51.5717 124.849 51.3214 122.183C50.8456 117.114 50.6641 111.991 50.7151 106.903C50.8878 89.7163 53.8774 72.4767 61.5139 56.914C64.8595 50.0966 69.2545 43.7882 74.4496 38.2044C79.6139 32.6535 85.6456 28.2702 92.4575 24.8686ZM86.3436 109.034C86.141 108.758 86.5365 108.393 86.8139 108.572C92.8181 112.449 96.9847 118.337 99.6733 124.805C102.335 131.209 103.969 139.052 101.344 145.73C100.926 146.793 98.9254 147.188 98.7205 145.73C97.8056 139.217 97.6634 132.695 95.6514 126.363C93.6568 120.087 90.2438 114.339 86.3436 109.034ZM81.6881 130.177C81.721 130.062 81.9121 130.082 81.9039 130.206C81.7535 132.503 81.6515 134.827 81.3577 137.111C81.215 138.221 81.0262 139.324 80.8655 140.431C80.7008 141.567 80.7257 142.714 80.0541 143.683C79.164 144.969 76.7994 144.607 76.8789 142.838C76.9337 141.617 77.5042 140.834 78.0386 139.763C78.3814 139.076 78.6802 138.366 78.9681 137.653L79.3962 136.583C80.247 134.461 81.0611 132.375 81.6881 130.177ZM70.9366 124.094C70.9729 123.913 71.2693 123.957 71.2605 124.137C71.1002 127.387 70.7273 130.601 70.1433 133.804C69.877 135.264 69.5665 136.716 69.2382 138.164L69.0964 138.784C68.7452 140.309 68.5186 142.101 67.7317 143.463C66.9455 144.825 65.0787 143.836 65.3205 142.464C65.6031 140.862 66.6031 139.25 67.1844 137.712C67.7209 136.291 68.19 134.846 68.6282 133.394C69.5508 130.336 70.3074 127.222 70.9366 124.094ZM90.9583 133.118L91.0282 133.048C91.3014 132.756 91.7089 132.95 91.8393 133.258C92.3735 134.521 92.1061 136.01 92.068 137.351L92.0609 137.643C92.0325 139.001 92.0523 140.273 91.426 141.526C90.6655 143.048 88.6618 142.103 88.5067 140.749C88.3373 139.271 89.0482 137.825 89.5073 136.441C89.7989 135.561 90.0115 134.646 90.455 133.848C90.0757 133.912 89.6969 134.041 89.3501 134.134C89.1947 134.175 89.1361 133.951 89.2845 133.899C89.8579 133.699 90.5051 133.55 90.9583 133.118ZM170.891 137.599C170.708 137.398 170.936 137.129 171.174 137.238C174.029 138.549 176.7 139.402 179.85 139.682C181.216 139.803 181.224 141.911 179.85 141.789C176.562 141.498 173.116 140.049 170.891 137.599ZM70.4323 93.3009C72.9461 87.7413 80.8989 82.8095 86.2318 87.9797C86.3318 88.0762 86.23 88.2869 86.0849 88.2279C82.7678 86.8764 78.707 88.5953 76.4113 91.0539C74.5899 93.004 73.4955 95.5081 73.2783 98.1474C73.061 100.789 73.7033 103.546 75.4878 105.589C76.4239 106.661 77.688 107.676 79.1755 107.805C80.6773 107.935 81.9291 106.895 83.3489 106.612C84.4192 106.4 85.2272 107.06 85.3321 108.097C85.5634 110.387 83.2451 111.923 81.2355 112.296C79.0737 112.698 76.8674 112.259 75.0047 111.107C68.9885 107.388 67.6906 99.3649 70.4323 93.3009ZM126.879 38.8084C127.972 37.7812 129.831 38.8024 129.428 40.2677C128.57 43.3863 126.747 46.0221 124.727 48.5239C122.784 50.9309 120.702 53.2439 118.47 55.3967C116.253 57.5353 113.845 59.5142 111.313 61.2819L110.551 61.8129C108.757 63.0563 106.857 64.3137 104.848 65.2093C104.364 69.3165 103.415 73.3689 101.98 77.2487C100.597 80.9847 98.8383 84.5953 96.7071 87.9741L96.4011 88.4581C94.4426 91.5439 92.0876 94.9927 88.7642 96.6843C88.6645 96.7353 88.5646 96.7664 88.4661 96.7846C89.2095 97.272 89.8378 97.885 90.2112 98.7659C90.6205 99.7303 89.7651 100.64 88.9451 100.959C87.2111 101.632 85.5195 100.492 83.9608 99.2757C83.8948 99.4216 83.8327 99.5688 83.7793 99.7173C83.4308 100.689 83.3282 101.681 82.4293 102.326C82.0022 102.632 81.476 102.358 81.2071 102.011C80.3259 100.872 81.2382 99.3216 82.013 98.3912C82.1203 98.2626 82.2312 98.1404 82.3452 98.0231C82.0177 97.7865 81.6982 97.5766 81.3886 97.4155C79.5684 96.4678 76.8701 96.2998 75.8221 98.3978C75.7418 98.5589 75.4894 98.4756 75.4894 98.309C75.492 95.732 78.1771 94.3324 80.5071 94.1422C82.2095 94.0033 83.856 94.5902 85.3884 95.2737L85.6743 95.4028C86.2445 95.6631 86.832 95.9087 87.3943 96.1834C87.3028 95.9462 87.3043 95.6672 87.4482 95.3905C89.2104 92.007 92.2364 89.2556 94.4187 86.122C96.5828 83.0132 98.4408 79.6862 99.9239 76.2123C101.363 72.8403 102.491 69.3626 103.28 65.8154C103.02 65.8681 102.727 65.6407 102.746 65.3741C102.79 64.7291 103.111 64.148 103.674 63.9004C104.295 60.5639 104.612 57.171 104.594 53.7506C104.592 53.4854 104.983 53.4949 105.006 53.7506C105.28 56.7917 105.303 59.8624 105.072 62.9153C106.538 61.5889 108.085 60.3279 109.496 58.9663C111.621 56.9176 113.676 54.8141 115.659 52.6326C117.682 50.4069 119.594 48.0994 121.342 45.6578L122.257 44.3774C123.664 42.4145 125.109 40.4721 126.879 38.8084ZM124.12 16.8959C136.186 16.1554 149.071 17.6132 159.909 23.1815C165.861 26.2392 170.461 30.8609 173.748 36.6125C175.711 40.0469 177.2 43.8501 177.764 47.7601C178.343 51.7777 177.663 55.36 175.054 58.5536C174.018 59.8218 172.272 58.4051 172.528 57.1076C174.09 49.1687 171.556 41.3249 167.063 34.7525C160.543 25.2152 149.156 20.9786 138.07 19.0887C132.623 18.1606 127.098 17.7726 121.572 17.9614C117.359 18.1055 113.037 18.4915 109.039 19.885C108.871 19.9438 108.804 19.6856 108.966 19.6248C113.735 17.834 119.059 17.2066 124.12 16.8959ZM142.014 34.8473C142.635 34.4602 143.395 34.8574 143.609 35.4855C144.361 37.6996 142.784 40.6248 141.728 42.5409C140.534 44.7092 138.998 46.7366 137.412 48.6409C134.239 52.4495 130.069 55.6275 125.493 57.6249C125.213 57.7474 124.886 57.4148 125.143 57.1796C128.684 53.9379 131.894 50.4625 134.673 46.5637C136.039 44.6478 137.178 42.6268 138.266 40.5507C139.239 38.6928 140.154 36.0066 142.014 34.8473ZM162.306 37.4556C162.703 36.0929 164.964 36.3249 164.87 37.7969C164.628 41.5994 162.804 45.4164 160.821 48.639C158.78 51.9574 156.194 54.9146 153.231 57.4685C153.085 57.5945 152.885 57.4005 153.017 57.2584C155.574 54.5064 157.639 51.3717 159.169 47.9603C160.696 44.5537 161.273 40.9994 162.306 37.4556ZM151.069 36.84C151.502 35.6551 153.571 35.743 153.445 37.1561C153.096 41.0408 150.777 45.112 148.629 48.3205C146.35 51.7248 143.441 54.7237 140.19 57.2425C140.068 57.3368 139.896 57.1806 140.015 57.0705C142.935 54.3655 145.303 51.2408 147.178 47.7556C148.135 45.9773 148.937 44.1254 149.571 42.2125C150.158 40.4428 150.433 38.5843 151.069 36.84Z" fill="#594A4E"/>
<path fill-rule="evenodd" clip-rule="evenodd" d="M142.457 126.338C140.159 125.52 138.108 124.156 136.608 122.414C136.087 121.808 135.952 121.168 136.061 120.583C136.184 119.925 136.63 119.329 137.239 118.929C137.85 118.528 138.613 118.33 139.352 118.431C139.993 118.519 140.632 118.825 141.137 119.46L141.243 119.587C142.134 120.639 143.296 121.502 144.62 122.058C145.895 122.594 147.322 122.845 148.799 122.699C151.611 122.422 153.549 121.096 155.609 119.295C155.864 119.067 156.12 118.833 156.377 118.594C156.539 118.378 156.764 118.24 157.014 118.167C157.291 118.086 157.605 118.09 157.892 118.178C158.17 118.262 158.417 118.422 158.584 118.635C158.741 118.837 158.831 119.087 158.802 119.374C158.613 121.241 157.494 122.907 155.905 124.215C154.14 125.667 151.8 126.672 149.597 127.025C147.17 127.413 144.697 127.135 142.457 126.338ZM150.742 97.544C153.324 98.9127 157.258 102.104 154.48 105.498C151.211 108.49 146.503 105.059 144.183 103.508C142.032 102.305 139.615 105.398 141.611 106.802C158.374 117.625 165.177 97.9019 152.048 95.9346C150.602 95.7179 150.065 97.1205 150.742 97.544ZM120.702 84.9537C120.987 81.8654 126.381 81.1641 126.917 84.2201C127.397 86.9576 126.832 89.4723 125.418 91.9369C124.067 94.2915 120.671 93.193 120.415 91.0489C120.07 88.1749 120.525 86.8747 120.702 84.9537ZM161.757 83.5864C162.508 82.7276 163.594 82.1414 164.895 82.4727C168.959 83.5083 167.761 88.5399 166.334 90.989C165.558 92.319 163.051 92.6562 161.919 91.4852C160.072 89.5755 159.188 85.7618 161.535 83.8808C161.599 83.7836 161.67 83.6855 161.757 83.5864ZM125.361 71.4404L126.003 71.3424C127.989 71.0429 130.458 70.7551 131.863 72.1474C132.608 72.8858 132.864 74.2581 131.863 74.9648C130.101 76.2084 128.153 75.7265 126.042 75.8317C124.302 75.9188 122.63 76.1699 120.955 76.5877C117.278 77.504 114.282 79.1769 111.142 81.0139C110.73 81.2548 110.31 80.7953 110.506 80.4592C112.319 77.363 115.832 74.8196 119.35 73.2693C121.228 72.4418 123.283 71.7553 125.361 71.4404ZM158.052 70.0534L158.543 70.1411C163.89 71.1158 170.837 73.0629 173.369 77.6431C173.466 78.2907 173.364 78.4295 173.281 78.5202L173.253 78.5504C173.185 78.6279 173.13 78.7346 172.809 78.8228C172.719 78.8042 172.629 78.7845 172.538 78.7637C171.377 78.4984 170.459 78.133 169.57 77.7538L168.606 77.3397C167.488 76.8615 166.359 76.4007 165.164 76.0605C162.612 75.3347 159.988 74.8234 157.322 74.5504C156.745 74.4913 156.189 74.3213 155.75 74.0299C155.333 73.7533 155.015 73.3703 154.87 72.8613C154.682 72.2026 154.736 71.7038 155.141 71.1096C155.446 70.6633 155.882 70.3539 156.383 70.1763C156.893 69.9952 157.474 69.9525 158.052 70.0534Z" fill="#594A4E"/>
<path fill-rule="evenodd" clip-rule="evenodd" d="M172.187 97.2165C168.823 100.435 163.205 101.359 158.728 99.6328C147.233 95.1865 152.86 81.3181 161.725 77.5938C162.832 77.3383 164.312 76.732 165.66 76.5945C165.782 76.539 166.048 76.6994 166.37 76.5478C176.145 77.5582 178.371 91.6066 172.187 97.2165ZM135.11 98.0404C131.336 102.675 124.32 104.104 118.587 101.95C107.262 97.821 111.279 85.5233 119.027 80.7021C135.395 75.0083 142.154 89.496 135.11 98.0404ZM110.56 87.7725C110.55 87.7679 110.539 87.7656 110.528 87.7609C110.588 87.7366 110.648 87.7122 110.708 87.6873C110.688 87.7343 110.667 87.7807 110.648 87.8277C110.619 87.8089 110.593 87.7871 110.56 87.7725ZM179.979 82.7632C179.055 82.765 177.72 82.9056 176.955 83.4991C175.069 77.6098 168.106 72.1592 162.051 76.1336C157.282 77.5533 153.744 80.7018 151.733 84.8877C148.107 82.891 142.405 83.7436 139.261 86.3841C137.202 80.0848 132.134 77.8789 126.101 77.5533C119.517 76.5549 112.955 82.4746 110.907 87.2234C109.205 87.0441 106.661 86.5424 105.059 87.5151C94.6639 84.9914 76.4896 83.5999 74.3763 85.0022C72.8702 85.5371 72.0437 88.8281 74.1473 89.0056C75.9804 88.7647 73.9334 86.5943 75.7811 86.3574C85.6265 85.7924 95.1841 87.628 104.925 88.3983C105.795 89.4813 108.605 89.8436 110.104 89.4085C107.743 97.4641 112.84 102.945 120.477 104.586C132.302 107.101 142.59 97.3079 139.498 87.1215C143.08 85.4717 147.201 85.5425 151.103 86.4116C144.582 108.629 183.233 107.632 177.197 84.2604C181.214 86.1103 182.087 83.1366 179.979 82.7632Z" fill="#594A4E"/>
</svg>
